Pretension2VF-ThinItalic.ufo
<glyph name="exclam" format="2">
  <advance width="554"/>
  <unicode hex="0021"/>
  <outline>
    <contour>
      <point x="234" y="434" type="line"/>
      <point x="409" y="1490" type="line"/>
      <point x="455" y="1490" type="line"/>
      <point x="280" y="434" type="line"/>
    </contour>
    <contour>
      <point x="186" y="-9" type="qcurve" smooth="yes"/>
      <point x="164" y="-9"/>
      <point x="135" y="25"/>
      <point x="139" y="47" type="qcurve" smooth="yes"/>
      <point x="143" y="68"/>
      <point x="177" y="97"/>
      <point x="197" y="97" type="qcurve" smooth="yes"/>
      <point x="220" y="97"/>
      <point x="248" y="64"/>
      <point x="244" y="41" type="qcurve"/>
      <point x="241" y="20"/>
      <point x="207" y="-9"/>
    </contour>
  </outline>
</glyph>
<glyph name="ampersand" format="2">
  <advance width="1195"/>
  <unicode hex="0026"/>
  <outline>
    <contour>
      <point x="455" y="-20" type="qcurve" smooth="yes"/>
      <point x="337" y="-20"/>
      <point x="163" y="86"/>
      <point x="81" y="264"/>
      <point x="99" y="372" type="qcurve" smooth="yes"/>
      <point x="111" y="439"/>
      <point x="180" y="557"/>
      <point x="312" y="679"/>
      <point x="419" y="750" type="qcurve" smooth="yes"/>
      <point x="663" y="914" type="line"/>
      <point x="784" y="994"/>
      <point x="896" y="1129"/>
      <point x="909" y="1208" type="qcurve" smooth="yes"/>
      <point x="926" y="1319"/>
      <point x="821" y="1463"/>
      <point x="713" y="1464" type="qcurve"/>
      <point x="641" y="1464"/>
      <point x="500" y="1389"/>
      <point x="399" y="1267"/>
      <point x="387" y="1196" type="qcurve"/>
      <point x="380" y="1148"/>
      <point x="407" y="1056"/>
      <point x="476" y="939"/>
      <point x="529" y="852" type="qcurve"/>
      <point x="1063" y="0" type="line"/>
      <point x="1005" y="0" type="line"/>
      <point x="489" y="824" type="line" smooth="yes"/>
      <point x="436" y="910"/>
      <point x="363" y="1034"/>
      <point x="332" y="1139"/>
      <point x="341" y="1196" type="qcurve" smooth="yes"/>
      <point x="355" y="1280"/>
      <point x="466" y="1423"/>
      <point x="625" y="1510"/>
      <point x="711" y="1510" type="qcurve" smooth="yes"/>
      <point x="796" y="1510"/>
      <point x="915" y="1431"/>
      <point x="969" y="1295"/>
      <point x="955" y="1208" type="qcurve" smooth="yes"/>
      <point x="940" y="1118"/>
      <point x="817" y="962"/>
      <point x="687" y="876" type="qcurve"/>
      <point x="443" y="712" type="line"/>
      <point x="291" y="612"/>
      <point x="160" y="462"/>
      <point x="145" y="372" type="qcurve" smooth="yes"/>
      <point x="130" y="276"/>
      <point x="198" y="117"/>
      <point x="346" y="24"/>
      <point x="451" y="26" type="qcurve" smooth="yes"/>
      <point x="560" y="29"/>
      <point x="751" y="105"/>
      <point x="908" y="242"/>
      <point x="1028" y="429"/>
      <point x="1065" y="542" type="qcurve"/>
      <point x="1111" y="536" type="line"/>
      <point x="1091" y="473"/>
      <point x="1029" y="350"/>
      <point x="955" y="239"/>
      <point x="917" y="192" type="qcurve" smooth="yes"/>
      <point x="907" y="180"/>
      <point x="888" y="158"/>
      <point x="877" y="148" type="qcurve"/>
      <point x="786" y="72"/>
      <point x="564" y="-20"/>
    </contour>
  </outline>
</glyph>
<glyph name="five" format="2">
  <advance width="1162"/>
  <unicode hex="0035"/>
  <outline>
    <contour>
      <point x="424" y="-20" type="curve" smooth="yes"/>
      <point x="692" y="-20"/>
      <point x="921" y="143"/>
      <point x="971" y="417" type="curve" smooth="yes"/>
      <point x="1022" y="702"/>
      <point x="841" y="940"/>
      <point x="590" y="940" type="curve" smooth="yes"/>
      <point x="466" y="940"/>
      <point x="330" y="889"/>
      <point x="254" y="807" type="curve"/>
      <point x="248" y="807" type="line"/>
      <point x="443" y="1443" type="line"/>
      <point x="1093" y="1443" type="line"/>
      <point x="1102" y="1489" type="line"/>
      <point x="411" y="1489" type="line"/>
      <point x="184" y="749" type="line"/>
      <point x="244" y="749" type="line"/>
      <point x="329" y="836"/>
      <point x="451" y="894"/>
      <point x="581" y="894" type="curve" smooth="yes"/>
      <point x="805" y="894"/>
      <point x="969" y="682"/>
      <point x="924" y="421" type="curve" smooth="yes"/>
      <point x="882" y="177"/>
      <point x="678" y="26"/>
      <point x="433" y="26" type="curve" smooth="yes"/>
      <point x="223" y="26"/>
      <point x="103" y="184"/>
      <point x="126" y="372" type="curve"/>
      <point x="78" y="372" type="line"/>
      <point x="54" y="158"/>
      <point x="192" y="-20"/>
    </contour>
  </outline>
</glyph>
<glyph name="seven" format="2">
  <advance width="1113"/>
  <unicode hex="0037"/>
  <outline>
    <contour>
      <point x="132" y="0" type="line"/>
      <point x="1074" y="1438" type="line"/>
      <point x="1075" y="1444" type="line"/>
      <point x="267" y="1444" type="line"/>
      <point x="275" y="1490" type="line"/>
      <point x="1139" y="1490" type="line"/>
      <point x="1131" y="1442" type="line"/>
      <point x="184" y="0" type="line"/>
    </contour>
  </outline>
</glyph>
<glyph name="eight" format="2">
  <advance width="1220"/>
  <unicode hex="0038"/>
  <outline>
    <contour>
      <point x="513" y="-20" type="qcurve" smooth="yes"/>
      <point x="386" y="-20"/>
      <point x="193" y="89"/>
      <point x="99" y="272"/>
      <point x="118" y="384" type="qcurve" smooth="yes"/>
      <point x="133" y="473"/>
      <point x="239" y="632"/>
      <point x="400" y="747"/>
      <point x="495" y="768" type="qcurve"/>
      <point x="496" y="774" type="line"/>
      <point x="387" y="814"/>
      <point x="271" y="1009"/>
      <point x="291" y="1132" type="qcurve" smooth="yes"/>
      <point x="309" y="1238"/>
      <point x="448" y="1409"/>
      <point x="652" y="1510"/>
      <point x="766" y="1510" type="qcurve" smooth="yes"/>
      <point x="879" y="1510"/>
      <point x="1051" y="1410"/>
      <point x="1135" y="1239"/>
      <point x="1117" y="1132" type="qcurve" smooth="yes"/>
      <point x="1104" y="1051"/>
      <point x="1013" y="907"/>
      <point x="877" y="800"/>
      <point x="794" y="774" type="qcurve"/>
      <point x="793" y="768" type="line"/>
      <point x="881" y="748"/>
      <point x="1004" y="633"/>
      <point x="1059" y="473"/>
      <point x="1044" y="384" type="qcurve" smooth="yes"/>
      <point x="1025" y="272"/>
      <point x="870" y="89"/>
      <point x="642" y="-20"/>
    </contour>
    <contour>
      <point x="512" y="26" type="qcurve" smooth="yes"/>
      <point x="629" y="26"/>
      <point x="837" y="124"/>
      <point x="980" y="288"/>
      <point x="996" y="386" type="qcurve" smooth="yes"/>
      <point x="1013" y="486"/>
      <point x="933" y="650"/>
      <point x="765" y="748"/>
      <point x="648" y="748" type="qcurve" smooth="yes"/>
      <point x="532" y="748"/>
      <point x="323" y="650"/>
      <point x="181" y="486"/>
      <point x="164" y="386" type="qcurve" smooth="yes"/>
      <point x="148" y="288"/>
      <point x="228" y="124"/>
      <point x="397" y="26"/>
    </contour>
    <contour>
      <point x="638" y="788" type="qcurve" smooth="yes"/>
      <point x="739" y="788"/>
      <point x="926" y="883"/>
      <point x="1056" y="1039"/>
      <point x="1071" y="1132" type="qcurve" smooth="yes"/>
      <point x="1087" y="1225"/>
      <point x="1016" y="1376"/>
      <point x="867" y="1464"/>
      <point x="766" y="1464" type="qcurve" smooth="yes"/>
      <point x="666" y="1464"/>
      <point x="481" y="1376"/>
      <point x="353" y="1225"/>
      <point x="337" y="1132" type="qcurve" smooth="yes"/>
      <point x="322" y="1039"/>
      <point x="391" y="883"/>
      <point x="538" y="788"/>
    </contour>
  </outline>
</glyph>
<glyph name="nine.ss01" format="2">
  <advance width="1154"/>
  <unicode hex="0039"/>
  <unicode hex="E070"/>
  <outline>
    <contour>
      <point x="734" y="1510" type="qcurve" smooth="yes"/>
      <point x="853" y="1510"/>
      <point x="1028" y="1385"/>
      <point x="1109" y="1173"/>
      <point x="1087" y="1044" type="qcurve" smooth="yes"/>
      <point x="1078" y="988"/>
      <point x="1036" y="884"/>
      <point x="976" y="790"/>
      <point x="940" y="748" type="qcurve" smooth="yes"/>
      <point x="300" y="0" type="line"/>
      <point x="240" y="0" type="line"/>
      <point x="825" y="682" type="line"/>
      <point x="839" y="682" type="line"/>
      <point x="822" y="660"/>
      <point x="749" y="613"/>
      <point x="645" y="580"/>
      <point x="580" y="580" type="qcurve" smooth="yes"/>
      <point x="461" y="580"/>
      <point x="287" y="705"/>
      <point x="206" y="916"/>
      <point x="227" y="1044" type="qcurve" smooth="yes"/>
      <point x="249" y="1173"/>
      <point x="399" y="1385"/>
      <point x="615" y="1510"/>
    </contour>
    <contour>
      <point x="735" y="1464" type="qcurve" smooth="yes"/>
      <point x="630" y="1464"/>
      <point x="432" y="1351"/>
      <point x="293" y="1160"/>
      <point x="273" y="1044" type="qcurve" smooth="yes"/>
      <point x="254" y="929"/>
      <point x="323" y="739"/>
      <point x="475" y="626"/>
      <point x="580" y="626" type="qcurve" smooth="yes"/>
      <point x="686" y="626"/>
      <point x="883" y="739"/>
      <point x="1022" y="929"/>
      <point x="1041" y="1044" type="qcurve" smooth="yes"/>
      <point x="1061" y="1160"/>
      <point x="993" y="1351"/>
      <point x="841" y="1464"/>
    </contour>
  </outline>
</glyph>
<glyph name="F" format="2">
  <advance width="1196"/>
  <unicode hex="0046"/>
  <anchor x="250" y="0" name="m.uni0326"/>
  <anchor x="796" y="1490" name="m.uni030F_1"/>
  <outline>
    <contour>
      <point x="139" y="0" type="line"/>
      <point x="386" y="1490" type="line"/>
      <point x="1184" y="1490" type="line"/>
      <point x="1176" y="1444" type="line"/>
      <point x="424" y="1444" type="line"/>
      <point x="312" y="768" type="line"/>
      <point x="994" y="768" type="line"/>
      <point x="987" y="722" type="line"/>
      <point x="305" y="722" type="line"/>
      <point x="185" y="0" type="line"/>
    </contour>
  </outline>
</glyph>
<glyph name="L" format="2">
  <advance width="1152"/>
  <unicode hex="004C"/>
  <anchor x="558" y="0" name="m.uni0326"/>
  <anchor x="495" y="1490" name="m.uni030F_1"/>
  <outline>
    <contour>
      <point x="139" y="0" type="line"/>
      <point x="386" y="1490" type="line"/>
      <point x="434" y="1490" type="line"/>
      <point x="195" y="46" type="line"/>
      <point x="939" y="46" type="line"/>
      <point x="931" y="0" type="line"/>
    </contour>
  </outline>
</glyph>
<glyph name="P" format="2">
  <advance width="1241"/>
  <unicode hex="0050"/>
  <anchor x="854" y="1490" name="m.uni030F_1"/>
  <outline>
    <contour>
      <point x="139" y="0" type="line"/>
      <point x="386" y="1490" type="line"/>
      <point x="824" y="1490" type="line" smooth="yes"/>
      <point x="949" y="1490"/>
      <point x="1122" y="1378"/>
      <point x="1199" y="1181"/>
      <point x="1177" y="1054" type="qcurve" smooth="yes"/>
      <point x="1156" y="927"/>
      <point x="1015" y="731"/>
      <point x="805" y="620"/>
      <point x="680" y="620" type="qcurve" smooth="yes"/>
      <point x="266" y="620" type="line"/>
      <point x="273" y="666" type="line"/>
      <point x="687" y="666" type="line" smooth="yes"/>
      <point x="798" y="666"/>
      <point x="986" y="765"/>
      <point x="1113" y="940"/>
      <point x="1131" y="1054" type="qcurve" smooth="yes"/>
      <point x="1150" y="1168"/>
      <point x="1082" y="1344"/>
      <point x="927" y="1444"/>
      <point x="816" y="1444" type="qcurve" smooth="yes"/>
      <point x="424" y="1444" type="line"/>
      <point x="185" y="0" type="line"/>
    </contour>
  </outline>
</glyph>
<glyph name="f" format="2">
  <advance width="594"/>
  <unicode hex="0066"/>
  <anchor x="344" y="0" name="m.uni0326"/>
  <anchor x="852" y="1655" name="m.uni030F_1"/>
  <outline>
    <contour>
      <point x="641" y="1118" type="line"/>
      <point x="633" y="1072" type="line"/>
      <point x="95" y="1072" type="line"/>
      <point x="103" y="1118" type="line"/>
    </contour>
    <contour>
      <point x="-150" y="-467" type="qcurve" smooth="yes"/>
      <point x="-168" y="-467"/>
      <point x="-198" y="-464"/>
      <point x="-225" y="-456"/>
      <point x="-238" y="-451" type="qcurve"/>
      <point x="-217" y="-409" type="line"/>
      <point x="-200" y="-415"/>
      <point x="-165" y="-421"/>
      <point x="-143" y="-421" type="qcurve" smooth="yes"/>
      <point x="-60" y="-421"/>
      <point x="85" y="-310"/>
      <point x="101" y="-211" type="qcurve" smooth="yes"/>
      <point x="351" y="1300" type="line" smooth="yes"/>
      <point x="364" y="1379"/>
      <point x="454" y="1493"/>
      <point x="580" y="1556"/>
      <point x="648" y="1556" type="qcurve" smooth="yes"/>
      <point x="675" y="1556"/>
      <point x="716" y="1548"/>
      <point x="736" y="1540" type="qcurve"/>
      <point x="712" y="1499" type="line"/>
      <point x="696" y="1505"/>
      <point x="666" y="1510"/>
      <point x="641" y="1510" type="qcurve" smooth="yes"/>
      <point x="559" y="1510"/>
      <point x="414" y="1398"/>
      <point x="397" y="1300" type="qcurve"/>
      <point x="147" y="-211" type="line" smooth="yes"/>
      <point x="134" y="-290"/>
      <point x="44" y="-405"/>
      <point x="-82" y="-467"/>
    </contour>
  </outline>
</glyph>
<glyph name="n" format="2">
  <advance width="1197"/>
  <unicode hex="006E"/>
  <anchor x="689" y="0" name="m.uni0326"/>
  <anchor x="902" y="1242" name="m.uni030F_1"/>
  <outline>
    <contour>
      <point x="276" y="750" type="qcurve" smooth="yes"/>
      <point x="152" y="0" type="line"/>
      <point x="106" y="0" type="line"/>
      <point x="291" y="1118" type="line"/>
      <point x="337" y="1118" type="line"/>
      <point x="297" y="878" type="line"/>
      <point x="285" y="878" type="line"/>
      <point x="343" y="1006"/>
      <point x="577" y="1134"/>
      <point x="704" y="1134" type="qcurve" smooth="yes"/>
      <point x="819" y="1134"/>
      <point x="978" y="1037"/>
      <point x="1049" y="865"/>
      <point x="1030" y="750" type="qcurve" smooth="yes"/>
      <point x="906" y="0" type="line"/>
      <point x="860" y="0" type="line"/>
      <point x="984" y="750" type="line"/>
      <point x="1010" y="902"/>
      <point x="856" y="1088"/>
      <point x="704" y="1088" type="qcurve" smooth="yes"/>
      <point x="600" y="1088"/>
      <point x="417" y="1001"/>
      <point x="292" y="848"/>
    </contour>
  </outline>
</glyph>
<glyph name="asciitilde" format="2">
  <advance width="1304"/>
  <unicode hex="007E"/>
  <outline>
    <contour>
      <point x="180" y="488" type="line"/>
      <point x="200" y="552"/>
      <point x="283" y="642"/>
      <point x="402" y="690"/>
      <point x="474" y="690" type="qcurve"/>
      <point x="551" y="689"/>
      <point x="650" y="631"/>
      <point x="690" y="602" type="qcurve" smooth="yes"/>
      <point x="729" y="574"/>
      <point x="803" y="529"/>
      <point x="856" y="530" type="qcurve"/>
      <point x="932" y="529"/>
      <point x="1057" y="616"/>
      <point x="1088" y="686" type="qcurve"/>
      <point x="1132" y="674" type="line"/>
      <point x="1107" y="614"/>
      <point x="1024" y="528"/>
      <point x="915" y="483"/>
      <point x="850" y="482" type="qcurve"/>
      <point x="784" y="483"/>
      <point x="695" y="539"/>
      <point x="658" y="568" type="qcurve" smooth="yes"/>
      <point x="618" y="598"/>
      <point x="534" y="643"/>
      <point x="468" y="642" type="qcurve"/>
      <point x="381" y="643"/>
      <point x="249" y="553"/>
      <point x="226" y="482" type="qcurve"/>
    </contour>
  </outline>
</glyph>
<glyph name="exclamdown" format="2">
  <advance width="554"/>
  <unicode hex="00A1"/>
  <outline>
    <contour>
      <point x="321" y="691" type="line"/>
      <point x="147" y="-365" type="line"/>
      <point x="101" y="-365" type="line"/>
      <point x="275" y="691" type="line"/>
    </contour>
    <contour>
      <point x="372" y="1134" type="qcurve" smooth="yes"/>
      <point x="394" y="1134"/>
      <point x="420" y="1103"/>
      <point x="416" y="1081" type="qcurve" smooth="yes"/>
      <point x="412" y="1059"/>
      <point x="376" y="1028"/>
      <point x="354" y="1028" type="qcurve" smooth="yes"/>
      <point x="332" y="1028"/>
      <point x="306" y="1059"/>
      <point x="310" y="1081" type="qcurve" smooth="yes"/>
      <point x="314" y="1103"/>
      <point x="350" y="1134"/>
    </contour>
  </outline>
</glyph>
<glyph name="section" format="2">
  <advance width="1086"/>
  <unicode hex="00A7"/>
  <outline>
    <contour>
      <point x="972" y="1190" type="qcurve"/>
      <point x="926" y="1190" type="line"/>
      <point x="939" y="1315"/>
      <point x="812" y="1466"/>
      <point x="696" y="1466" type="qcurve" smooth="yes"/>
      <point x="620" y="1466"/>
      <point x="482" y="1398"/>
      <point x="388" y="1282"/>
      <point x="376" y="1210" type="qcurve" smooth="yes"/>
      <point x="367" y="1159"/>
      <point x="399" y="1064"/>
      <point x="483" y="972"/>
      <point x="552" y="926" type="qcurve" smooth="yes"/>
      <point x="662" y="852" type="line" smooth="yes"/>
      <point x="746" y="796"/>
      <point x="860" y="702"/>
      <point x="926" y="619"/>
      <point x="949" y="538"/>
      <point x="942" y="496" type="qcurve" smooth="yes"/>
      <point x="932" y="432"/>
      <point x="848" y="331"/>
      <point x="722" y="274"/>
      <point x="648" y="274" type="qcurve"/>
      <point x="648" y="270" type="line"/>
      <point x="746" y="197"/>
      <point x="811" y="58"/>
      <point x="798" y="-16" type="qcurve" smooth="yes"/>
      <point x="784" y="-99"/>
      <point x="675" y="-229"/>
      <point x="509" y="-302"/>
      <point x="408" y="-302" type="qcurve" smooth="yes"/>
      <point x="302" y="-302"/>
      <point x="151" y="-220"/>
      <point x="78" y="-73"/>
      <point x="88" y="24" type="qcurve"/>
      <point x="136" y="24" type="line"/>
      <point x="123" y="-106"/>
      <point x="268" y="-256"/>
      <point x="402" y="-256" type="qcurve" smooth="yes"/>
      <point x="539" y="-256"/>
      <point x="735" y="-115"/>
      <point x="752" y="-10" type="qcurve" smooth="yes"/>
      <point x="760" y="35"/>
      <point x="735" y="123"/>
      <point x="648" y="219"/>
      <point x="562" y="274" type="qcurve" smooth="yes"/>
      <point x="430" y="360" type="line" smooth="yes"/>
      <point x="351" y="411"/>
      <point x="241" y="501"/>
      <point x="176" y="586"/>
      <point x="153" y="674"/>
      <point x="160" y="722" type="qcurve"/>
      <point x="172" y="790"/>
      <point x="254" y="888"/>
      <point x="382" y="939"/>
      <point x="460" y="934" type="qcurve"/>
      <point x="460" y="940" type="line"/>
      <point x="384" y="992"/>
      <point x="317" y="1136"/>
      <point x="330" y="1218" type="qcurve" smooth="yes"/>
      <point x="344" y="1301"/>
      <point x="450" y="1433"/>
      <point x="606" y="1510"/>
      <point x="696" y="1510" type="qcurve" smooth="yes"/>
      <point x="788" y="1510"/>
      <point x="919" y="1429"/>
      <point x="982" y="1285"/>
    </contour>
    <contour>
      <point x="894" y="502" type="qcurve"/>
      <point x="903" y="549"/>
      <point x="860" y="638"/>
      <point x="745" y="741"/>
      <point x="642" y="808" type="qcurve"/>
      <point x="508" y="898" type="line"/>
      <point x="430" y="905"/>
      <point x="301" y="862"/>
      <point x="217" y="776"/>
      <point x="206" y="716" type="qcurve"/>
      <point x="193" y="637"/>
      <point x="304" y="494"/>
      <point x="446" y="402" type="qcurve" smooth="yes"/>
      <point x="584" y="314" type="line"/>
      <point x="663" y="308"/>
      <point x="797" y="353"/>
      <point x="885" y="443"/>
    </contour>
  </outline>
</glyph>
<glyph name="logicalnot" format="2">
  <advance width="1024"/>
  <unicode hex="00AC"/>
  <outline>
    <contour>
      <point x="962" y="806" type="line"/>
      <point x="954" y="760" type="line"/>
      <point x="142" y="760" type="line"/>
      <point x="152" y="806" type="line"/>
    </contour>
    <contour>
      <point x="958" y="786" type="line"/>
      <point x="890" y="376" type="line"/>
      <point x="844" y="376" type="line"/>
      <point x="912" y="786" type="line"/>
    </contour>
  </outline>
</glyph>
<glyph name="registered" format="2">
  <advance width="1374"/>
  <unicode hex="00AE"/>
  <outline>
    <contour>
      <point x="516" y="666" type="line"/>
      <point x="606" y="1202" type="line"/>
      <point x="834" y="1202" type="line"/>
      <point x="890" y="1203"/>
      <point x="960" y="1162"/>
      <point x="988" y="1089"/>
      <point x="980" y="1042" type="qcurve" smooth="yes"/>
      <point x="973" y="996"/>
      <point x="921" y="923"/>
      <point x="837" y="880"/>
      <point x="782" y="880" type="qcurve" smooth="yes"/>
      <point x="578" y="880" type="line"/>
      <point x="584" y="926" type="line"/>
      <point x="788" y="926" type="line"/>
      <point x="851" y="927"/>
      <point x="926" y="990"/>
      <point x="934" y="1042" type="qcurve" smooth="yes"/>
      <point x="942" y="1096"/>
      <point x="889" y="1156"/>
      <point x="826" y="1156" type="qcurve" smooth="yes"/>
      <point x="644" y="1156" type="line"/>
      <point x="562" y="666" type="line"/>
    </contour>
    <contour>
      <point x="848" y="908" type="line"/>
      <point x="940" y="666" type="line"/>
      <point x="886" y="666" type="line"/>
      <point x="798" y="908" type="line"/>
    </contour>
    <contour>
      <point x="748" y="346" type="qcurve" smooth="yes"/>
      <point x="627" y="346"/>
      <point x="416" y="437"/>
      <point x="257" y="597"/>
      <point x="166" y="808"/>
      <point x="166" y="928" type="qcurve" smooth="yes"/>
      <point x="166" y="1048"/>
      <point x="256" y="1259"/>
      <point x="415" y="1419"/>
      <point x="627" y="1510"/>
      <point x="748" y="1510" type="qcurve" smooth="yes"/>
      <point x="868" y="1510"/>
      <point x="1079" y="1419"/>
      <point x="1239" y="1259"/>
      <point x="1330" y="1048"/>
      <point x="1330" y="928" type="qcurve" smooth="yes"/>
      <point x="1330" y="808"/>
      <point x="1239" y="597"/>
      <point x="1079" y="437"/>
      <point x="868" y="346"/>
    </contour>
    <contour>
      <point x="748" y="392" type="qcurve"/>
      <point x="859" y="392"/>
      <point x="1053" y="476"/>
      <point x="1200" y="623"/>
      <point x="1283" y="817"/>
      <point x="1282" y="928" type="qcurve"/>
      <point x="1282" y="1076"/>
      <point x="1138" y="1319"/>
      <point x="896" y="1464"/>
      <point x="748" y="1464" type="qcurve" smooth="yes"/>
      <point x="637" y="1464"/>
      <point x="442" y="1380"/>
      <point x="296" y="1233"/>
      <point x="212" y="1039"/>
      <point x="212" y="928" type="qcurve" smooth="yes"/>
      <point x="212" y="780"/>
      <point x="356" y="537"/>
      <point x="600" y="393"/>
    </contour>
  </outline>
</glyph>
<glyph name="two.sups" format="2">
  <advance width="844"/>
  <unicode hex="00B2"/>
  <outline>
    <contour>
      <point x="154" y="744" type="line"/>
      <point x="160" y="780" type="line"/>
      <point x="536" y="1114" type="line" smooth="yes"/>
      <point x="620" y="1189"/>
      <point x="719" y="1291"/>
      <point x="767" y="1376"/>
      <point x="774" y="1422" type="qcurve" smooth="yes"/>
      <point x="787" y="1501"/>
      <point x="682" y="1609"/>
      <point x="588" y="1608" type="qcurve"/>
      <point x="485" y="1609"/>
      <point x="339" y="1489"/>
      <point x="326" y="1408" type="qcurve"/>
      <point x="280" y="1408" type="line"/>
      <point x="292" y="1477"/>
      <point x="379" y="1586"/>
      <point x="511" y="1650"/>
      <point x="590" y="1650" type="qcurve"/>
      <point x="704" y="1649"/>
      <point x="835" y="1517"/>
      <point x="818" y="1416" type="qcurve" smooth="yes"/>
      <point x="809" y="1364"/>
      <point x="757" y="1274"/>
      <point x="650" y="1164"/>
      <point x="558" y="1082" type="qcurve" smooth="yes"/>
      <point x="230" y="792" type="line"/>
      <point x="230" y="788" type="line"/>
      <point x="766" y="788" type="line"/>
      <point x="756" y="744" type="line"/>
    </contour>
  </outline>
</glyph>
<glyph name="uni00B5" format="2">
  <advance width="1201"/>
  <unicode hex="00B5"/>
  <outline>
    <contour>
      <point x="37" y="-418" type="line"/>
      <point x="291" y="1118" type="line"/>
      <point x="337" y="1118" type="line"/>
      <point x="213" y="368" type="line" smooth="yes"/>
      <point x="197" y="272"/>
      <point x="264" y="119"/>
      <point x="410" y="30"/>
      <point x="511" y="30" type="qcurve" smooth="yes"/>
      <point x="613" y="30"/>
      <point x="787" y="119"/>
      <point x="905" y="272"/>
      <point x="921" y="368" type="qcurve" smooth="yes"/>
      <point x="1045" y="1118" type="line"/>
      <point x="1091" y="1118" type="line"/>
      <point x="939" y="198" type="line" smooth="yes"/>
      <point x="926" y="116"/>
      <point x="980" y="46"/>
      <point x="1052" y="46" type="qcurve" smooth="yes"/>
      <point x="1076" y="46" type="line"/>
      <point x="1068" y="0" type="line"/>
      <point x="1044" y="0" type="line" smooth="yes"/>
      <point x="952" y="0"/>
      <point x="877" y="96"/>
      <point x="893" y="198" type="qcurve" smooth="yes"/>
      <point x="921" y="368" type="line"/>
      <point x="957" y="368" type="line"/>
      <point x="939" y="262"/>
      <point x="844" y="115"/>
      <point x="714" y="25"/>
      <point x="573" y="-16"/>
      <point x="511" y="-16" type="qcurve" smooth="yes"/>
      <point x="449" y="-16"/>
      <point x="317" y="25"/>
      <point x="211" y="115"/>
      <point x="159" y="262"/>
      <point x="177" y="368" type="qcurve"/>
      <point x="213" y="368" type="line"/>
      <point x="83" y="-418" type="line"/>
    </contour>
  </outline>
</glyph>
<glyph name="paragraph" format="2">
  <advance width="1142"/>
  <unicode hex="00B6"/>
  <outline>
    <contour>
      <point x="1037" y="1442" type="line"/>
      <point x="869" y="1442" type="line"/>
      <point x="723" y="552" type="line"/>
      <point x="639" y="552" type="line" smooth="yes"/>
      <point x="481" y="552"/>
      <point x="279" y="674"/>
      <point x="200" y="887"/>
      <point x="223" y="1022" type="qcurve" smooth="yes"/>
      <point x="247" y="1156"/>
      <point x="395" y="1367"/>
      <point x="635" y="1490"/>
      <point x="793" y="1490" type="qcurve" smooth="yes"/>
      <point x="1045" y="1490" type="line"/>
    </contour>
    <contour>
      <point x="771" y="0" type="line"/>
      <point x="1017" y="1490" type="line"/>
      <point x="1063" y="1490" type="line"/>
      <point x="817" y="0" type="line"/>
    </contour>
  </outline>
</glyph>
<glyph name="ordmasculine" format="2">
  <advance width="800"/>
  <unicode hex="00BA"/>
  <outline>
    <contour>
      <point x="168" y="1046" type="qcurve"/>
      <point x="184" y="1130" type="line"/>
      <point x="203" y="1242"/>
      <point x="301" y="1397"/>
      <point x="455" y="1478"/>
      <point x="556" y="1478" type="qcurve" smooth="yes"/>
      <point x="698" y="1478"/>
      <point x="836" y="1290"/>
      <point x="808" y="1130" type="qcurve" smooth="yes"/>
      <point x="794" y="1046" type="line" smooth="yes"/>
      <point x="775" y="935"/>
      <point x="676" y="779"/>
      <point x="523" y="698"/>
      <point x="422" y="698" type="qcurve" smooth="yes"/>
      <point x="279" y="698"/>
      <point x="140" y="886"/>
    </contour>
    <contour>
      <point x="226" y="1130" type="qcurve" smooth="yes"/>
      <point x="212" y="1046" type="line" smooth="yes"/>
      <point x="187" y="902"/>
      <point x="303" y="742"/>
      <point x="430" y="742" type="qcurve" smooth="yes"/>
      <point x="555" y="742"/>
      <point x="726" y="907"/>
      <point x="750" y="1046" type="qcurve"/>
      <point x="766" y="1130" type="line"/>
      <point x="790" y="1274"/>
      <point x="674" y="1434"/>
      <point x="548" y="1434" type="qcurve" smooth="yes"/>
      <point x="422" y="1434"/>
      <point x="250" y="1270"/>
    </contour>
  </outline>
</glyph>
<glyph name="Thorn" format="2">
  <advance width="1210"/>
  <unicode hex="00DE"/>
  <outline>
    <contour>
      <point x="366" y="1490" type="line"/>
      <point x="410" y="1490" type="line"/>
      <point x="162" y="0" type="line"/>
      <point x="120" y="0" type="line"/>
    </contour>
    <contour>
      <point x="328" y="1132" type="line"/>
      <point x="710" y="1132" type="line" smooth="yes"/>
      <point x="849" y="1132"/>
      <point x="1024" y="1028"/>
      <point x="1095" y="853"/>
      <point x="1078" y="748" type="qcurve" smooth="yes"/>
      <point x="1060" y="634"/>
      <point x="937" y="459"/>
      <point x="729" y="361"/>
      <point x="582" y="360" type="qcurve"/>
      <point x="200" y="360" type="line"/>
      <point x="212" y="408" type="line"/>
      <point x="594" y="408" type="line" smooth="yes"/>
      <point x="711" y="408"/>
      <point x="893" y="483"/>
      <point x="1011" y="633"/>
      <point x="1030" y="744" type="qcurve" smooth="yes"/>
      <point x="1050" y="854"/>
      <point x="978" y="1006"/>
      <point x="815" y="1086"/>
      <point x="698" y="1086" type="qcurve" smooth="yes"/>
      <point x="318" y="1086" type="line"/>
    </contour>
  </outline>
</glyph>
<glyph name="eth" format="2">
  <advance width="1214"/>
  <unicode hex="00F0"/>
  <outline>
    <contour>
      <point x="1132" y="1458" type="line"/>
      <point x="518" y="1200" type="line"/>
      <point x="512" y="1248" type="line"/>
      <point x="1126" y="1506" type="line"/>
    </contour>
    <contour>
      <point x="512" y="-24" type="qcurve"/>
      <point x="380" y="-23"/>
      <point x="186" y="122"/>
      <point x="99" y="369"/>
      <point x="124" y="520" type="qcurve" smooth="yes"/>
      <point x="150" y="674"/>
      <point x="316" y="919"/>
      <point x="555" y="1062"/>
      <point x="690" y="1062" type="qcurve" smooth="yes"/>
      <point x="772" y="1062"/>
      <point x="908" y="1006"/>
      <point x="1011" y="898"/>
      <point x="1042" y="820" type="qcurve"/>
      <point x="1048" y="820" type="line"/>
      <point x="1026" y="970"/>
      <point x="904" y="1236"/>
      <point x="709" y="1457"/>
      <point x="576" y="1536" type="qcurve"/>
      <point x="598" y="1582" type="line"/>
      <point x="736" y="1501"/>
      <point x="941" y="1275"/>
      <point x="1066" y="1003"/>
      <point x="1107" y="703"/>
      <point x="1082" y="548" type="qcurve" smooth="yes"/>
      <point x="1054" y="373"/>
      <point x="885" y="117"/>
      <point x="647" y="-23"/>
    </contour>
    <contour>
      <point x="520" y="24" type="qcurve" smooth="yes"/>
      <point x="640" y="24"/>
      <point x="856" y="157"/>
      <point x="1009" y="382"/>
      <point x="1032" y="520" type="qcurve" smooth="yes"/>
      <point x="1056" y="661"/>
      <point x="979" y="885"/>
      <point x="806" y="1016"/>
      <point x="684" y="1016" type="qcurve" smooth="yes"/>
      <point x="565" y="1016"/>
      <point x="347" y="882"/>
      <point x="193" y="657"/>
      <point x="170" y="520" type="qcurve" smooth="yes"/>
      <point x="147" y="378"/>
      <point x="223" y="153"/>
      <point x="397" y="24"/>
    </contour>
  </outline>
</glyph>
<glyph name="deltaturn" format="2">
  <advance width="954"/>
  <unicode hex="018D"/>
  <outline>
    <contour>
      <point x="618" y="-376" type="line"/>
      <point x="14" y="-376" type="line"/>
      <point x="22" y="-328" type="line"/>
      <point x="554" y="-330" type="line"/>
      <point x="511" y="-270"/>
      <point x="418" y="-147"/>
      <point x="297" y="3"/>
      <point x="212" y="104" type="qcurve" smooth="yes"/>
      <point x="145" y="184"/>
      <point x="66" y="345"/>
      <point x="40" y="509"/>
      <point x="50" y="592" type="qcurve"/>
      <point x="54" y="614" type="line"/>
      <point x="76" y="776"/>
      <point x="222" y="1009"/>
      <point x="442" y="1135"/>
      <point x="574" y="1134" type="qcurve"/>
      <point x="702" y="1135"/>
      <point x="874" y="1005"/>
      <point x="945" y="770"/>
      <point x="920" y="610" type="qcurve"/>
      <point x="918" y="590" type="line"/>
      <point x="895" y="443"/>
      <point x="747" y="217"/>
      <point x="529" y="90"/>
      <point x="402" y="90" type="qcurve" smooth="yes"/>
      <point x="376" y="90"/>
      <point x="314" y="96"/>
      <point x="274" y="102" type="qcurve"/>
      <point x="335" y="29"/>
      <point x="436" y="-96"/>
      <point x="520" y="-203"/>
      <point x="592" y="-299"/>
      <point x="624" y="-344" type="qcurve"/>
    </contour>
    <contour>
      <point x="872" y="590" type="qcurve"/>
      <point x="874" y="610" type="line"/>
      <point x="898" y="760"/>
      <point x="838" y="974"/>
      <point x="684" y="1088"/>
      <point x="566" y="1088" type="qcurve" smooth="yes"/>
      <point x="451" y="1088"/>
      <point x="253" y="971"/>
      <point x="120" y="759"/>
      <point x="100" y="614" type="qcurve"/>
      <point x="98" y="592" type="line"/>
      <point x="83" y="481"/>
      <point x="139" y="281"/>
      <point x="224" y="162" type="qcurve"/>
      <point x="277" y="149"/>
      <point x="365" y="137"/>
      <point x="402" y="136" type="qcurve"/>
      <point x="517" y="137"/>
      <point x="715" y="253"/>
      <point x="852" y="458"/>
    </contour>
  </outline>
</glyph>
<glyph name="uni018F" format="2">
  <advance width="1511"/>
  <unicode hex="018F"/>
  <outline>
    <contour>
      <point x="663" y="-20" type="qcurve" smooth="yes"/>
      <point x="489" y="-20"/>
      <point x="248" y="141"/>
      <point x="146" y="432"/>
      <point x="178" y="628" type="qcurve" smooth="yes"/>
      <point x="185" y="672" type="line"/>
      <point x="1354" y="672" type="line"/>
      <point x="1347" y="626" type="line"/>
      <point x="204" y="626" type="line"/>
      <point x="225" y="636" type="line"/>
      <point x="194" y="449"/>
      <point x="286" y="175"/>
      <point x="507" y="26"/>
      <point x="670" y="26" type="qcurve" smooth="yes"/>
      <point x="846" y="26"/>
      <point x="1127" y="208"/>
      <point x="1314" y="532"/>
      <point x="1349" y="744" type="qcurve" smooth="yes"/>
      <point x="1385" y="960"/>
      <point x="1295" y="1284"/>
      <point x="1068" y="1464"/>
      <point x="896" y="1464" type="qcurve" smooth="yes"/>
      <point x="782" y="1464"/>
      <point x="587" y="1385"/>
      <point x="433" y="1255"/>
      <point x="327" y="1100"/>
      <point x="301" y="1024" type="qcurve"/>
      <point x="254" y="1024" type="line"/>
      <point x="281" y="1104"/>
      <point x="393" y="1274"/>
      <point x="558" y="1420"/>
      <point x="774" y="1510"/>
      <point x="904" y="1510" type="qcurve" smooth="yes"/>
      <point x="1089" y="1510"/>
      <point x="1335" y="1318"/>
      <point x="1433" y="974"/>
      <point x="1395" y="744" type="qcurve" smooth="yes"/>
      <point x="1367" y="573"/>
      <point x="1238" y="293"/>
      <point x="1047" y="90"/>
      <point x="804" y="-20"/>
    </contour>
  </outline>
</glyph>
<glyph name="florin" format="2">
  <advance width="608"/>
  <unicode hex="0192"/>
  <outline>
    <contour>
      <point x="610" y="1070" type="line"/>
      <point x="602" y="1024" type="line"/>
      <point x="404" y="1024" type="line"/>
      <point x="206" y="-162" type="line" smooth="yes"/>
      <point x="193" y="-241"/>
      <point x="104" y="-356"/>
      <point x="-23" y="-418"/>
      <point x="-94" y="-418" type="qcurve"/>
      <point x="-119" y="-419"/>
      <point x="-158" y="-411"/>
      <point x="-178" y="-404" type="qcurve"/>
      <point x="-158" y="-360" type="line"/>
      <point x="-140" y="-365"/>
      <point x="-106" y="-372"/>
      <point x="-84" y="-372" type="qcurve" smooth="yes"/>
      <point x="-1" y="-372"/>
      <point x="144" y="-261"/>
      <point x="160" y="-162" type="qcurve" smooth="yes"/>
      <point x="358" y="1024" type="line"/>
      <point x="160" y="1024" type="line"/>
      <point x="168" y="1070" type="line"/>
      <point x="366" y="1070" type="line"/>
      <point x="402" y="1300" type="line"/>
      <point x="416" y="1379"/>
      <point x="505" y="1493"/>
      <point x="633" y="1556"/>
      <point x="702" y="1556" type="qcurve" smooth="yes"/>
      <point x="728" y="1556"/>
      <point x="767" y="1549"/>
      <point x="786" y="1542" type="qcurve"/>
      <point x="766" y="1498" type="line"/>
      <point x="749" y="1503"/>
      <point x="716" y="1510"/>
      <point x="694" y="1510" type="qcurve" smooth="yes"/>
      <point x="611" y="1510"/>
      <point x="466" y="1398"/>
      <point x="450" y="1300" type="qcurve" smooth="yes"/>
      <point x="412" y="1070" type="line"/>
    </contour>
  </outline>
</glyph>
<glyph name="uni0195" format="2">
  <advance width="1881"/>
  <unicode hex="0195"/>
  <outline>
    <contour>
      <point x="105" y="0" type="line"/>
      <point x="353" y="1490" type="line"/>
      <point x="399" y="1490" type="line"/>
      <point x="307" y="940" type="line"/>
      <point x="313" y="940" type="line"/>
      <point x="368" y="1028"/>
      <point x="566" y="1132"/>
      <point x="681" y="1132" type="qcurve" smooth="yes"/>
      <point x="793" y="1132"/>
      <point x="948" y="1035"/>
      <point x="1017" y="863"/>
      <point x="999" y="750" type="qcurve" smooth="yes"/>
      <point x="957" y="494" type="line"/>
      <point x="911" y="494" type="line"/>
      <point x="953" y="750" type="line" smooth="yes"/>
      <point x="977" y="899"/>
      <point x="822" y="1085"/>
      <point x="673" y="1086" type="qcurve"/>
      <point x="574" y="1086"/>
      <point x="406" y="999"/>
      <point x="293" y="848"/>
      <point x="277" y="750" type="qcurve" smooth="yes"/>
      <point x="153" y="0" type="line"/>
    </contour>
    <contour>
      <point x="1133" y="-18" type="qcurve" smooth="yes"/>
      <point x="1031" y="-18"/>
      <point x="910" y="81"/>
      <point x="875" y="285"/>
      <point x="899" y="440" type="qcurve"/>
      <point x="931" y="622" type="line"/>
      <point x="977" y="622" type="line"/>
      <point x="947" y="440" type="line" smooth="yes"/>
      <point x="923" y="294"/>
      <point x="948" y="112"/>
      <point x="1049" y="28"/>
      <point x="1139" y="28" type="qcurve" smooth="yes"/>
      <point x="1279" y="28"/>
      <point x="1496" y="251"/>
      <point x="1659" y="698"/>
      <point x="1715" y="1032" type="qcurve"/>
      <point x="1727" y="1118" type="line"/>
      <point x="1775" y="1118" type="line"/>
      <point x="1759" y="1016" type="line"/>
      <point x="1701" y="669"/>
      <point x="1527" y="209"/>
      <point x="1289" y="-18"/>
    </contour>
  </outline>
</glyph>
<glyph name="mcapturn" format="2">
  <advance width="1704"/>
  <unicode hex="019C"/>
  <outline>
    <contour>
      <point x="1432" y="228" type="line"/>
      <point x="1640" y="1490" type="line"/>
      <point x="1688" y="1490" type="line"/>
      <point x="1440" y="0" type="line"/>
      <point x="1400" y="0" type="line"/>
    </contour>
    <contour>
      <point x="1454" y="366" type="qcurve"/>
      <point x="1486" y="366" type="line"/>
      <point x="1475" y="252"/>
      <point x="1359" y="81"/>
      <point x="1185" y="-14"/>
      <point x="1086" y="-14" type="qcurve" smooth="yes"/>
      <point x="976" y="-14"/>
      <point x="834" y="84"/>
      <point x="780" y="256"/>
      <point x="798" y="366" type="qcurve" smooth="yes"/>
      <point x="984" y="1490" type="line"/>
      <point x="1030" y="1490" type="line"/>
      <point x="844" y="366" type="line" smooth="yes"/>
      <point x="827" y="265"/>
      <point x="871" y="115"/>
      <point x="993" y="32"/>
      <point x="1094" y="32" type="qcurve" smooth="yes"/>
      <point x="1176" y="32"/>
      <point x="1329" y="118"/>
      <point x="1438" y="269"/>
    </contour>
    <contour>
      <point x="798" y="366" type="qcurve"/>
      <point x="830" y="366" type="line"/>
      <point x="818" y="252"/>
      <point x="702" y="81"/>
      <point x="528" y="-14"/>
      <point x="428" y="-14" type="qcurve" smooth="yes"/>
      <point x="317" y="-14"/>
      <point x="176" y="84"/>
      <point x="122" y="255"/>
      <point x="140" y="366" type="qcurve" smooth="yes"/>
      <point x="326" y="1490" type="line"/>
      <point x="372" y="1490" type="line"/>
      <point x="186" y="366" type="line"/>
      <point x="170" y="265"/>
      <point x="213" y="114"/>
      <point x="335" y="32"/>
      <point x="436" y="32" type="qcurve" smooth="yes"/>
      <point x="519" y="32"/>
      <point x="672" y="118"/>
      <point x="781" y="269"/>
    </contour>
  </outline>
</glyph>
<glyph name="uni01A3" format="2">
  <advance width="1062"/>
  <unicode hex="01A3"/>
  <outline>
    <contour>
      <point x="410" y="20" type="qcurve"/>
      <point x="470" y="20"/>
      <point x="577" y="54"/>
      <point x="626" y="82" type="qcurve"/>
      <point x="734" y="738" type="line"/>
      <point x="780" y="738" type="line"/>
      <point x="668" y="58" type="line"/>
      <point x="623" y="30"/>
      <point x="536" y="-7"/>
      <point x="449" y="-26"/>
      <point x="402" y="-26" type="qcurve"/>
      <point x="278" y="-25"/>
      <point x="101" y="116"/>
      <point x="25" y="363"/>
      <point x="50" y="522" type="qcurve"/>
      <point x="54" y="542" type="line"/>
      <point x="84" y="721"/>
      <point x="242" y="988"/>
      <point x="468" y="1135"/>
      <point x="600" y="1134" type="qcurve"/>
      <point x="644" y="1135"/>
      <point x="724" y="1118"/>
      <point x="799" y="1085"/>
      <point x="834" y="1062" type="qcurve"/>
      <point x="732" y="444" type="line"/>
      <point x="686" y="444" type="line"/>
      <point x="782" y="1034" type="line"/>
      <point x="744" y="1060"/>
      <point x="648" y="1088"/>
      <point x="592" y="1088" type="qcurve" smooth="yes"/>
      <point x="474" y="1088"/>
      <point x="276" y="952"/>
      <point x="134" y="707"/>
      <point x="100" y="542" type="qcurve"/>
      <point x="96" y="514" type="line"/>
      <point x="72" y="371"/>
      <point x="136" y="149"/>
      <point x="294" y="22"/>
    </contour>
    <contour>
      <point x="1094" y="1118" type="line"/>
      <point x="840" y="-418" type="line"/>
      <point x="794" y="-418" type="line"/>
      <point x="1040" y="1074" type="line"/>
      <point x="800" y="930" type="line"/>
      <point x="808" y="984" type="line"/>
      <point x="1030" y="1118" type="line"/>
    </contour>
  </outline>
</glyph>
<glyph name="uni01A4" format="2">
  <advance width="1401"/>
  <unicode hex="01A4"/>
  <anchor x="1294" y="1490" name="m.uni030F_1"/>
  <outline>
    <contour>
      <point x="178" y="1118" type="line"/>
      <point x="205" y="1280" type="line" smooth="yes"/>
      <point x="222" y="1382"/>
      <point x="341" y="1490"/>
      <point x="436" y="1490" type="qcurve" smooth="yes"/>
      <point x="546" y="1490" type="line"/>
      <point x="538" y="1444" type="line"/>
      <point x="432" y="1444" type="line" smooth="yes"/>
      <point x="353" y="1444"/>
      <point x="265" y="1364"/>
      <point x="251" y="1280" type="qcurve" smooth="yes"/>
      <point x="224" y="1118" type="line"/>
    </contour>
    <contour>
      <point x="299" y="0" type="line"/>
      <point x="546" y="1490" type="line"/>
      <point x="984" y="1490" type="line" smooth="yes"/>
      <point x="1109" y="1490"/>
      <point x="1282" y="1378"/>
      <point x="1359" y="1181"/>
      <point x="1337" y="1054" type="qcurve" smooth="yes"/>
      <point x="1316" y="927"/>
      <point x="1175" y="731"/>
      <point x="965" y="620"/>
      <point x="840" y="620" type="qcurve" smooth="yes"/>
      <point x="426" y="620" type="line"/>
      <point x="433" y="666" type="line"/>
      <point x="847" y="666" type="line" smooth="yes"/>
      <point x="958" y="666"/>
      <point x="1146" y="765"/>
      <point x="1273" y="940"/>
      <point x="1291" y="1054" type="qcurve" smooth="yes"/>
      <point x="1310" y="1168"/>
      <point x="1242" y="1344"/>
      <point x="1087" y="1444"/>
      <point x="976" y="1444" type="qcurve" smooth="yes"/>
      <point x="584" y="1444" type="line"/>
      <point x="345" y="0" type="line"/>
    </contour>
  </outline>
</glyph>
<glyph name="uni01B8" format="2">
  <advance width="1424"/>
  <unicode hex="01B8"/>
  <anchor x="994" y="1676" name="m.uni030F_1"/>
  <outline>
    <contour>
      <point x="1215" y="72" type="line"/>
      <point x="1190" y="-79"/>
      <point x="999" y="-311"/>
      <point x="720" y="-442"/>
      <point x="563" y="-442" type="qcurve" smooth="yes"/>
      <point x="427" y="-442"/>
      <point x="231" y="-345"/>
      <point x="112" y="-179"/>
      <point x="71" y="31"/>
      <point x="89" y="144" type="qcurve" smooth="yes"/>
      <point x="118" y="318"/>
      <point x="334" y="594"/>
      <point x="666" y="760"/>
      <point x="867" y="768" type="qcurve"/>
      <point x="869" y="774" type="line"/>
      <point x="355" y="1452" type="line"/>
      <point x="361" y="1490" type="line"/>
      <point x="1371" y="1490" type="line"/>
      <point x="1363" y="1442" type="line"/>
      <point x="401" y="1442" type="line"/>
      <point x="405" y="1470" type="line"/>
      <point x="937" y="768" type="line"/>
      <point x="931" y="722" type="line"/>
      <point x="863" y="722" type="line"/>
      <point x="676" y="714"/>
      <point x="366" y="562"/>
      <point x="164" y="308"/>
      <point x="137" y="144" type="qcurve" smooth="yes"/>
      <point x="111" y="-12"/>
      <point x="206" y="-256"/>
      <point x="419" y="-396"/>
      <point x="569" y="-396" type="qcurve" smooth="yes"/>
      <point x="717" y="-396"/>
      <point x="973" y="-275"/>
      <point x="1146" y="-63"/>
      <point x="1169" y="72" type="qcurve"/>
    </contour>
  </outline>
</glyph>
<glyph name="uni01BA" format="2">
  <advance width="1004"/>
  <unicode hex="01BA"/>
  <outline>
    <contour>
      <point x="194" y="1120" type="line"/>
      <point x="1028" y="1118" type="line"/>
      <point x="1020" y="1066" type="line"/>
      <point x="334" y="544" type="line"/>
      <point x="318" y="544" type="line"/>
      <point x="326" y="592" type="line"/>
      <point x="958" y="1072" type="line"/>
      <point x="188" y="1072" type="line"/>
    </contour>
    <contour>
      <point x="6" y="-156" type="qcurve" smooth="yes"/>
      <point x="-13" y="-277"/>
      <point x="137" y="-396"/>
      <point x="272" y="-396" type="qcurve" smooth="yes"/>
      <point x="377" y="-396"/>
      <point x="544" y="-321"/>
      <point x="657" y="-183"/>
      <point x="680" y="-88" type="qcurve"/>
      <point x="726" y="-88" type="line"/>
      <point x="699" y="-196"/>
      <point x="573" y="-355"/>
      <point x="388" y="-442"/>
      <point x="270" y="-442" type="qcurve" smooth="yes"/>
      <point x="116" y="-442"/>
      <point x="-61" y="-297"/>
      <point x="-38" y="-146" type="qcurve"/>
      <point x="-26" y="-73"/>
      <point x="56" y="38"/>
      <point x="233" y="125"/>
      <point x="386" y="162" type="qcurve" smooth="yes"/>
      <point x="547" y="200"/>
      <point x="685" y="289"/>
      <point x="698" y="368" type="qcurve" smooth="yes"/>
      <point x="714" y="463"/>
      <point x="555" y="544"/>
      <point x="354" y="544" type="qcurve" smooth="yes"/>
      <point x="328" y="544" type="line"/>
      <point x="338" y="590" type="line"/>
      <point x="362" y="590" type="line"/>
      <point x="510" y="591"/>
      <point x="686" y="545"/>
      <point x="757" y="448"/>
      <point x="744" y="370" type="qcurve" smooth="yes"/>
      <point x="734" y="305"/>
      <point x="658" y="212"/>
      <point x="512" y="145"/>
      <point x="396" y="118" type="qcurve" smooth="yes"/>
      <point x="258" y="86"/>
      <point x="94" y="6"/>
      <point x="16" y="-93"/>
    </contour>
  </outline>
</glyph>
<glyph name="uni01BD" format="2">
  <advance width="832"/>
  <unicode hex="01BD"/>
  <outline>
    <contour>
      <point x="190" y="524" type="qcurve"/>
      <point x="146" y="532" type="line"/>
      <point x="296" y="1082" type="line"/>
      <point x="846" y="1082" type="line"/>
      <point x="836" y="1036" type="line"/>
      <point x="330" y="1036" type="line"/>
      <point x="216" y="612" type="line"/>
      <point x="267" y="662"/>
      <point x="408" y="720"/>
      <point x="484" y="720" type="qcurve" smooth="yes"/>
      <point x="630" y="720"/>
      <point x="784" y="520"/>
      <point x="760" y="360" type="qcurve" smooth="yes"/>
      <point x="742" y="246"/>
      <point x="624" y="76"/>
      <point x="449" y="-17"/>
      <point x="344" y="-18" type="qcurve"/>
      <point x="270" y="-18"/>
      <point x="155" y="27"/>
      <point x="76" y="109"/>
      <point x="40" y="221"/>
      <point x="46" y="288" type="qcurve"/>
      <point x="94" y="300" type="line"/>
      <point x="81" y="178"/>
      <point x="213" y="29"/>
      <point x="338" y="30" type="qcurve"/>
      <point x="481" y="29"/>
      <point x="687" y="207"/>
      <point x="712" y="352" type="qcurve"/>
      <point x="736" y="499"/>
      <point x="613" y="672"/>
      <point x="484" y="674" type="qcurve" smooth="yes"/>
      <point x="399" y="675"/>
      <point x="237" y="591"/>
    </contour>
    <contour>
      <point x="374" y="1082" type="line"/>
      <point x="366" y="1036" type="line"/>
      <point x="118" y="1036" type="line"/>
      <point x="126" y="1082" type="line"/>
    </contour>
  </outline>
</glyph>
<glyph name="uni021C" format="2">
  <advance width="1210"/>
  <unicode hex="021C"/>
  <outline>
    <contour>
      <point x="174" y="368" type="qcurve"/>
      <point x="182" y="418" type="line"/>
      <point x="370" y="471"/>
      <point x="691" y="622"/>
      <point x="935" y="808"/>
      <point x="1085" y="1017"/>
      <point x="1102" y="1128" type="qcurve"/>
      <point x="1127" y="1281"/>
      <point x="941" y="1463"/>
      <point x="764" y="1464" type="qcurve"/>
      <point x="636" y="1464"/>
      <point x="424" y="1371"/>
      <point x="286" y="1214"/>
      <point x="270" y="1116" type="qcurve"/>
      <point x="224" y="1116" type="line"/>
      <point x="244" y="1231"/>
      <point x="396" y="1408"/>
      <point x="627" y="1510"/>
      <point x="764" y="1510" type="qcurve" smooth="yes"/>
      <point x="900" y="1510"/>
      <point x="1086" y="1413"/>
      <point x="1168" y="1238"/>
      <point x="1148" y="1120" type="qcurve" smooth="yes"/>
      <point x="1128" y="1001"/>
      <point x="970" y="778"/>
      <point x="713" y="582"/>
      <point x="374" y="423"/>
    </contour>
    <contour>
      <point x="854" y="718" type="qcurve"/>
      <point x="888" y="754" type="line"/>
      <point x="956" y="713"/>
      <point x="1034" y="591"/>
      <point x="1057" y="426"/>
      <point x="1040" y="322" type="qcurve" smooth="yes"/>
      <point x="1017" y="184"/>
      <point x="895" y="-30"/>
      <point x="666" y="-204"/>
      <point x="303" y="-358"/>
      <point x="40" y="-436" type="qcurve"/>
      <point x="48" y="-386" type="line"/>
      <point x="296" y="-311"/>
      <point x="639" y="-165"/>
      <point x="856" y="-3"/>
      <point x="973" y="194"/>
      <point x="994" y="320" type="qcurve" smooth="yes"/>
      <point x="1018" y="467"/>
      <point x="945" y="670"/>
    </contour>
  </outline>
</glyph>
<glyph name="uni0223" format="2">
  <advance width="1212"/>
  <unicode hex="0223"/>
  <outline>
    <contour>
      <point x="606" y="830" type="qcurve" smooth="yes"/>
      <point x="694" y="830" type="line" smooth="yes"/>
      <point x="857" y="830"/>
      <point x="1065" y="733"/>
      <point x="1150" y="547"/>
      <point x="1128" y="412" type="qcurve" smooth="yes"/>
      <point x="1105" y="274"/>
      <point x="953" y="81"/>
      <point x="707" y="-20"/>
      <point x="542" y="-20" type="qcurve" smooth="yes"/>
      <point x="476" y="-20" type="line" smooth="yes"/>
      <point x="315" y="-20"/>
      <point x="101" y="83"/>
      <point x="10" y="277"/>
      <point x="32" y="412" type="qcurve"/>
      <point x="56" y="551"/>
      <point x="199" y="736"/>
      <point x="438" y="830"/>
    </contour>
    <contour>
      <point x="686" y="782" type="qcurve"/>
      <point x="598" y="782" type="line"/>
      <point x="372" y="783"/>
      <point x="109" y="594"/>
      <point x="78" y="412" type="qcurve" smooth="yes"/>
      <point x="47" y="224"/>
      <point x="254" y="26"/>
      <point x="482" y="26" type="qcurve" smooth="yes"/>
      <point x="552" y="26" type="line" smooth="yes"/>
      <point x="775" y="26"/>
      <point x="1049" y="226"/>
      <point x="1080" y="412" type="qcurve" smooth="yes"/>
      <point x="1112" y="598"/>
      <point x="916" y="783"/>
    </contour>
    <contour>
      <point x="710" y="830" type="line" smooth="yes"/>
      <point x="848" y="830"/>
      <point x="1057" y="914"/>
      <point x="1186" y="1075"/>
      <point x="1204" y="1188" type="qcurve" smooth="yes"/>
      <point x="1227" y="1328"/>
      <point x="1133" y="1491"/>
      <point x="1018" y="1512" type="qcurve"/>
      <point x="1026" y="1556" type="line"/>
      <point x="1114" y="1542"/>
      <point x="1226" y="1445"/>
      <point x="1268" y="1290"/>
      <point x="1250" y="1188" type="qcurve"/>
      <point x="1229" y="1058"/>
      <point x="1087" y="877"/>
      <point x="857" y="783"/>
      <point x="702" y="782" type="qcurve"/>
      <point x="584" y="782" type="line"/>
      <point x="433" y="783"/>
      <point x="232" y="880"/>
      <point x="147" y="1061"/>
      <point x="168" y="1188" type="qcurve" smooth="yes"/>
      <point x="185" y="1291"/>
      <point x="266" y="1438"/>
      <point x="395" y="1530"/>
      <point x="484" y="1548" type="qcurve"/>
      <point x="476" y="1498" type="line"/>
      <point x="370" y="1476"/>
      <point x="235" y="1318"/>
      <point x="214" y="1188" type="qcurve" smooth="yes"/>
      <point x="195" y="1071"/>
      <point x="267" y="911"/>
      <point x="448" y="830"/>
      <point x="590" y="830" type="qcurve" smooth="yes"/>
    </contour>
  </outline>
</glyph>
<glyph name="drthook" format="2">
  <advance width="1190"/>
  <unicode hex="0256"/>
  <anchor x="784" y="0" name="m.uni0326"/>
  <anchor x="695" y="1430" name="m.uni030F_1"/>
  <outline>
    <contour>
      <point x="968" y="-418" type="qcurve" smooth="yes"/>
      <point x="876" y="-418"/>
      <point x="800" y="-322"/>
      <point x="817" y="-220" type="qcurve" smooth="yes"/>
      <point x="901" y="290" type="line"/>
      <point x="947" y="290" type="line"/>
      <point x="863" y="-220" type="line" smooth="yes"/>
      <point x="850" y="-302"/>
      <point x="903" y="-372"/>
      <point x="975" y="-372" type="qcurve" smooth="yes"/>
      <point x="988" y="-372"/>
      <point x="1028" y="-372"/>
      <point x="1047" y="-372" type="qcurve"/>
      <point x="1040" y="-418" type="line"/>
      <point x="1023" y="-418"/>
      <point x="982" y="-418"/>
    </contour>
    <contour>
      <point x="467" y="-24" type="qcurve" smooth="yes"/>
      <point x="299" y="-24"/>
      <point x="117" y="220"/>
      <point x="117" y="412" type="qcurve" smooth="yes"/>
      <point x="117" y="536"/>
      <point x="190" y="790"/>
      <point x="328" y="1004"/>
      <point x="526" y="1134"/>
      <point x="652" y="1134" type="qcurve" smooth="yes"/>
      <point x="742" y="1134"/>
      <point x="882" y="1061"/>
      <point x="971" y="925"/>
      <point x="984" y="832" type="qcurve"/>
      <point x="991" y="832" type="line"/>
      <point x="1100" y="1490" type="line"/>
      <point x="1146" y="1490" type="line"/>
      <point x="899" y="0" type="line"/>
      <point x="853" y="0" type="line"/>
      <point x="900" y="280" type="line"/>
      <point x="894" y="280" type="line"/>
      <point x="849" y="187"/>
      <point x="717" y="50"/>
      <point x="556" y="-24"/>
    </contour>
    <contour>
      <point x="468" y="22" type="qcurve" smooth="yes"/>
      <point x="583" y="22"/>
      <point x="765" y="145"/>
      <point x="892" y="345"/>
      <point x="958" y="582"/>
      <point x="958" y="696" type="qcurve" smooth="yes"/>
      <point x="958" y="869"/>
      <point x="799" y="1088"/>
      <point x="651" y="1088" type="qcurve" smooth="yes"/>
      <point x="538" y="1088"/>
      <point x="357" y="967"/>
      <point x="230" y="768"/>
      <point x="163" y="531"/>
      <point x="163" y="414" type="qcurve" smooth="yes"/>
      <point x="163" y="242"/>
      <point x="320" y="22"/>
    </contour>
  </outline>
</glyph>
<glyph name="uni025A" format="2">
  <advance width="1188"/>
  <unicode hex="025A"/>
  <outline>
    <contour>
      <point x="532" y="1134" type="qcurve"/>
      <point x="659" y="1135"/>
      <point x="824" y="987"/>
      <point x="883" y="726"/>
      <point x="850" y="556" type="qcurve"/>
      <point x="848" y="548" type="line"/>
      <point x="814" y="377"/>
      <point x="669" y="120"/>
      <point x="475" y="-23"/>
      <point x="364" y="-24" type="qcurve"/>
      <point x="238" y="-23"/>
      <point x="59" y="117"/>
      <point x="-19" y="354"/>
      <point x="8" y="498" type="qcurve"/>
      <point x="18" y="546" type="line"/>
      <point x="826" y="678" type="line"/>
      <point x="818" y="632" type="line"/>
      <point x="56" y="506" type="line"/>
      <point x="56" y="498" type="line"/>
      <point x="29" y="367"/>
      <point x="94" y="151"/>
      <point x="252" y="24"/>
      <point x="364" y="24" type="qcurve" smooth="yes"/>
      <point x="436" y="24"/>
      <point x="572" y="98"/>
      <point x="688" y="235"/>
      <point x="775" y="421"/>
      <point x="798" y="532" type="qcurve"/>
      <point x="800" y="546" type="line"/>
      <point x="833" y="710"/>
      <point x="787" y="953"/>
      <point x="644" y="1088"/>
      <point x="530" y="1088" type="qcurve" smooth="yes"/>
      <point x="426" y="1088"/>
      <point x="232" y="983"/>
      <point x="158" y="888" type="qcurve"/>
      <point x="126" y="914" type="line"/>
      <point x="176" y="984"/>
      <point x="304" y="1083"/>
      <point x="453" y="1135"/>
    </contour>
    <contour>
      <point x="830" y="632" type="line"/>
      <point x="840" y="680" type="line"/>
      <point x="978" y="702" type="line"/>
      <point x="968" y="619"/>
      <point x="980" y="515"/>
      <point x="1031" y="466"/>
      <point x="1076" y="464" type="qcurve" smooth="yes"/>
      <point x="1092" y="463"/>
      <point x="1127" y="469"/>
      <point x="1144" y="474" type="qcurve"/>
      <point x="1150" y="434" type="line"/>
      <point x="1125" y="426"/>
      <point x="1083" y="418"/>
      <point x="1064" y="418" type="qcurve"/>
      <point x="1016" y="420"/>
      <point x="950" y="476"/>
      <point x="921" y="578"/>
      <point x="926" y="648" type="qcurve"/>
    </contour>
  </outline>
</glyph>
<glyph name="omegaclosed" format="2">
  <advance width="1414"/>
  <unicode hex="0277"/>
  <outline>
    <contour>
      <point x="804" y="1134" type="qcurve"/>
      <point x="796" y="1088" type="line"/>
      <point x="601" y="1088"/>
      <point x="305" y="959"/>
      <point x="119" y="709"/>
      <point x="88" y="524" type="qcurve" smooth="yes"/>
      <point x="64" y="383"/>
      <point x="107" y="157"/>
      <point x="229" y="26"/>
      <point x="322" y="26" type="qcurve" smooth="yes"/>
      <point x="444" y="26"/>
      <point x="634" y="256"/>
      <point x="666" y="448" type="qcurve" smooth="yes"/>
      <point x="698" y="642" type="line"/>
      <point x="744" y="642" type="line"/>
      <point x="714" y="462" type="line" smooth="yes"/>
      <point x="677" y="235"/>
      <point x="463" y="-22"/>
      <point x="312" y="-20" type="qcurve" smooth="yes"/>
      <point x="231" y="-19"/>
      <point x="111" y="60"/>
      <point x="40" y="204"/>
      <point x="21" y="403"/>
      <point x="40" y="524" type="qcurve"/>
      <point x="65" y="672"/>
      <point x="192" y="899"/>
      <point x="388" y="1054"/>
      <point x="647" y="1134"/>
    </contour>
    <contour>
      <point x="792" y="1088" type="qcurve"/>
      <point x="802" y="1134" type="line"/>
      <point x="958" y="1134"/>
      <point x="1190" y="1054"/>
      <point x="1335" y="899"/>
      <point x="1386" y="672"/>
      <point x="1362" y="524" type="qcurve" smooth="yes"/>
      <point x="1342" y="403"/>
      <point x="1257" y="204"/>
      <point x="1137" y="60"/>
      <point x="991" y="-19"/>
      <point x="910" y="-20" type="qcurve" smooth="yes"/>
      <point x="759" y="-22"/>
      <point x="630" y="235"/>
      <point x="668" y="462" type="qcurve" smooth="yes"/>
      <point x="698" y="642" type="line"/>
      <point x="744" y="642" type="line"/>
      <point x="712" y="448" type="line" smooth="yes"/>
      <point x="691" y="320"/>
      <point x="729" y="130"/>
      <point x="835" y="26"/>
      <point x="916" y="26" type="qcurve" smooth="yes"/>
      <point x="1008" y="26"/>
      <point x="1173" y="157"/>
      <point x="1292" y="383"/>
      <point x="1314" y="524" type="qcurve" smooth="yes"/>
      <point x="1344" y="709"/>
      <point x="1242" y="959"/>
      <point x="989" y="1088"/>
    </contour>
  </outline>
</glyph>
<glyph name="philatin" format="2">
  <advance width="1054"/>
  <unicode hex="0278"/>
  <outline>
    <contour>
      <point x="148" y="544" type="qcurve" smooth="yes"/>
      <point x="152" y="568" type="line" smooth="yes"/>
      <point x="180" y="731"/>
      <point x="320" y="985"/>
      <point x="515" y="1132"/>
      <point x="622" y="1132" type="qcurve" smooth="yes"/>
      <point x="701" y="1132"/>
      <point x="824" y="1046"/>
      <point x="902" y="893"/>
      <point x="926" y="688"/>
      <point x="906" y="568" type="qcurve" smooth="yes"/>
      <point x="902" y="544" type="line" smooth="yes"/>
      <point x="875" y="379"/>
      <point x="731" y="125"/>
      <point x="538" y="-20"/>
      <point x="434" y="-20" type="qcurve" smooth="yes"/>
      <point x="353" y="-20"/>
      <point x="230" y="67"/>
      <point x="153" y="222"/>
      <point x="129" y="427"/>
    </contour>
    <contour>
      <point x="200" y="568" type="qcurve"/>
      <point x="194" y="544" type="line"/>
      <point x="176" y="433"/>
      <point x="197" y="245"/>
      <point x="265" y="105"/>
      <point x="371" y="27"/>
      <point x="438" y="26" type="qcurve"/>
      <point x="507" y="26"/>
      <point x="640" y="105"/>
      <point x="755" y="247"/>
      <point x="838" y="435"/>
      <point x="856" y="544" type="qcurve" smooth="yes"/>
      <point x="860" y="568" type="line" smooth="yes"/>
      <point x="878" y="678"/>
      <point x="858" y="866"/>
      <point x="790" y="1007"/>
      <point x="683" y="1086"/>
      <point x="614" y="1086" type="qcurve"/>
      <point x="546" y="1085"/>
      <point x="413" y="1006"/>
      <point x="299" y="865"/>
      <point x="218" y="678"/>
    </contour>
    <contour>
      <point x="346" y="-396" type="line"/>
      <point x="658" y="1490" type="line"/>
      <point x="704" y="1490" type="line"/>
      <point x="392" y="-396" type="line"/>
    </contour>
  </outline>
</glyph>
<glyph name="rturnascend" format="2">
  <advance width="658"/>
  <unicode hex="027A"/>
  <outline>
    <contour>
      <point x="426" y="236" type="line"/>
      <point x="642" y="1536" type="line"/>
      <point x="688" y="1536" type="line"/>
      <point x="434" y="0" type="line"/>
      <point x="394" y="0" type="line"/>
    </contour>
    <contour>
      <point x="28" y="-8" type="qcurve"/>
      <point x="36" y="38" type="line"/>
      <point x="53" y="35"/>
      <point x="81" y="32"/>
      <point x="94" y="32" type="qcurve" smooth="yes"/>
      <point x="181" y="32"/>
      <point x="330" y="118"/>
      <point x="432" y="269"/>
      <point x="448" y="366" type="qcurve"/>
      <point x="478" y="366" type="line"/>
      <point x="459" y="250"/>
      <point x="350" y="79"/>
      <point x="188" y="-14"/>
      <point x="88" y="-14" type="qcurve"/>
      <point x="71" y="-15"/>
      <point x="42" y="-12"/>
    </contour>
  </outline>
</glyph>
<glyph name="rrthook" format="2">
  <advance width="742"/>
  <unicode hex="027D"/>
  <unicode hex="E05D"/>
  <outline>
    <contour>
      <point x="227" y="-416" type="qcurve" smooth="yes"/>
      <point x="178" y="-416"/>
      <point x="111" y="-388"/>
      <point x="72" y="-335"/>
      <point x="63" y="-256"/>
      <point x="71" y="-205" type="qcurve" smooth="yes"/>
      <point x="106" y="0" type="line"/>
      <point x="153" y="0" type="line"/>
      <point x="119" y="-198" type="line" smooth="yes"/>
      <point x="108" y="-260"/>
      <point x="121" y="-335"/>
      <point x="178" y="-369"/>
      <point x="236" y="-369" type="qcurve" smooth="yes"/>
      <point x="257" y="-369"/>
      <point x="287" y="-365"/>
      <point x="301" y="-362" type="qcurve"/>
      <point x="294" y="-409" type="line"/>
      <point x="278" y="-412"/>
      <point x="246" y="-416"/>
    </contour>
    <contour>
      <point x="106" y="0" type="line"/>
      <point x="292" y="1117" type="line"/>
      <point x="339" y="1117" type="line"/>
      <point x="310" y="940" type="line"/>
      <point x="316" y="940" type="line"/>
      <point x="368" y="1027"/>
      <point x="567" y="1132"/>
      <point x="682" y="1132" type="qcurve" smooth="yes"/>
      <point x="717" y="1132"/>
      <point x="780" y="1120"/>
      <point x="804" y="1111" type="qcurve"/>
      <point x="781" y="1068" type="line"/>
      <point x="759" y="1076"/>
      <point x="706" y="1085"/>
      <point x="673" y="1085" type="qcurve" smooth="yes"/>
      <point x="575" y="1085"/>
      <point x="407" y="999"/>
      <point x="294" y="848"/>
      <point x="278" y="751" type="qcurve" smooth="yes"/>
      <point x="153" y="0" type="line"/>
    </contour>
  </outline>
</glyph>
<glyph name="zrthook" format="2">
  <advance width="1072"/>
  <unicode hex="0290"/>
  <anchor x="633" y="0" name="m.uni0326"/>
  <anchor x="860" y="1242" name="m.uni030F_1"/>
  <outline>
    <contour>
      <point x="890" y="-418" type="qcurve" smooth="yes"/>
      <point x="798" y="-418"/>
      <point x="722" y="-322"/>
      <point x="739" y="-220" type="qcurve" smooth="yes"/>
      <point x="775" y="0" type="line"/>
      <point x="821" y="0" type="line"/>
      <point x="785" y="-220" type="line" smooth="yes"/>
      <point x="772" y="-302"/>
      <point x="825" y="-372"/>
      <point x="897" y="-372" type="qcurve" smooth="yes"/>
      <point x="910" y="-372"/>
      <point x="950" y="-372"/>
      <point x="969" y="-372" type="qcurve"/>
      <point x="962" y="-418" type="line"/>
      <point x="945" y="-418"/>
      <point x="904" y="-418"/>
    </contour>
    <contour>
      <point x="65" y="0" type="line"/>
      <point x="73" y="46" type="line"/>
      <point x="906" y="1066" type="line"/>
      <point x="907" y="1072" type="line"/>
      <point x="284" y="1072" type="line"/>
      <point x="292" y="1118" type="line"/>
      <point x="976" y="1118" type="line"/>
      <point x="968" y="1070" type="line"/>
      <point x="136" y="52" type="line"/>
      <point x="135" y="46" type="line"/>
      <point x="829" y="46" type="line"/>
      <point x="821" y="0" type="line"/>
    </contour>
  </outline>
</glyph>
<glyph name="uni0293" format="2">
  <advance width="1241"/>
  <unicode hex="0293"/>
  <outline>
    <contour>
      <point x="370" y="-420" type="qcurve" smooth="yes"/>
      <point x="293" y="-420"/>
      <point x="174" y="-381"/>
      <point x="96" y="-309"/>
      <point x="65" y="-208"/>
      <point x="75" y="-146" type="qcurve" smooth="yes"/>
      <point x="88" y="-70"/>
      <point x="178" y="50"/>
      <point x="314" y="120"/>
      <point x="392" y="120" type="qcurve" smooth="yes"/>
      <point x="448" y="120"/>
      <point x="557" y="76"/>
      <point x="669" y="-17"/>
      <point x="731" y="-90" type="qcurve" smooth="yes"/>
      <point x="909" y="-298" type="line"/>
      <point x="871" y="-332" type="line"/>
      <point x="689" y="-116" type="line"/>
      <point x="605" y="-18"/>
      <point x="459" y="74"/>
      <point x="382" y="74" type="qcurve" smooth="yes"/>
      <point x="317" y="74"/>
      <point x="206" y="16"/>
      <point x="131" y="-86"/>
      <point x="120" y="-152" type="qcurve" smooth="yes"/>
      <point x="109" y="-218"/>
      <point x="166" y="-318"/>
      <point x="289" y="-374"/>
      <point x="378" y="-374" type="qcurve" smooth="yes"/>
      <point x="476" y="-374"/>
      <point x="662" y="-300"/>
      <point x="818" y="-170"/>
      <point x="922" y="-1"/>
      <point x="938" y="94" type="qcurve" smooth="yes"/>
      <point x="965" y="261"/>
      <point x="726" y="446"/>
      <point x="470" y="446" type="qcurve" smooth="yes"/>
      <point x="466" y="446" type="line"/>
      <point x="473" y="492" type="line"/>
      <point x="1036" y="1066" type="line"/>
      <point x="1037" y="1072" type="line"/>
      <point x="323" y="1072" type="line"/>
      <point x="331" y="1118" type="line"/>
      <point x="1115" y="1118" type="line"/>
      <point x="1109" y="1080" type="line"/>
      <point x="536" y="494" type="line"/>
      <point x="535" y="488" type="line"/>
      <point x="658" y="485"/>
      <point x="839" y="428"/>
      <point x="954" y="325"/>
      <point x="998" y="182"/>
      <point x="984" y="94" type="qcurve"/>
      <point x="966" y="-11"/>
      <point x="852" y="-197"/>
      <point x="682" y="-339"/>
      <point x="478" y="-420"/>
    </contour>
  </outline>
</glyph>
<glyph name="glottalstoprevinv" format="2">
  <advance width="1028"/>
  <unicode hex="0295"/>
  <outline>
    <contour>
      <point x="584" y="526" type="qcurve" smooth="yes"/>
      <point x="594" y="526" type="line"/>
      <point x="586" y="482" type="line"/>
      <point x="568" y="482" type="line"/>
      <point x="406" y="481"/>
      <point x="201" y="584"/>
      <point x="124" y="790"/>
      <point x="150" y="942" type="qcurve"/>
      <point x="168" y="1054" type="line"/>
      <point x="193" y="1198"/>
      <point x="326" y="1402"/>
      <point x="530" y="1510"/>
      <point x="660" y="1510" type="qcurve" smooth="yes"/>
      <point x="787" y="1510"/>
      <point x="963" y="1419"/>
      <point x="1047" y="1252"/>
      <point x="1036" y="1138" type="qcurve"/>
      <point x="990" y="1138" type="line"/>
      <point x="1006" y="1287"/>
      <point x="824" y="1462"/>
      <point x="652" y="1462" type="qcurve" smooth="yes"/>
      <point x="533" y="1462"/>
      <point x="353" y="1367"/>
      <point x="238" y="1185"/>
      <point x="216" y="1054" type="qcurve"/>
      <point x="196" y="942" type="line" smooth="yes"/>
      <point x="172" y="801"/>
      <point x="242" y="616"/>
      <point x="431" y="526"/>
    </contour>
    <contour>
      <point x="468" y="0" type="line"/>
      <point x="556" y="526" type="line"/>
      <point x="602" y="526" type="line"/>
      <point x="514" y="0" type="line"/>
    </contour>
  </outline>
</glyph>
<glyph name="kturn" format="2">
  <advance width="998"/>
  <unicode hex="029E"/>
  <anchor x="707" y="1242" name="m.uni0326"/>
  <anchor x="686" y="1242" name="m.uni030F_1"/>
  <outline>
    <contour>
      <point x="785" y="668" type="line"/>
      <point x="771" y="587" type="line"/>
      <point x="753" y="587" type="line"/>
      <point x="62" y="0" type="line"/>
      <point x="-4" y="0" type="line"/>
      <point x="587" y="502" type="line"/>
      <point x="594" y="508" type="line"/>
    </contour>
    <contour>
      <point x="893" y="1118" type="line"/>
      <point x="646" y="-372" type="line"/>
      <point x="600" y="-372" type="line"/>
      <point x="847" y="1118" type="line"/>
    </contour>
    <contour>
      <point x="222" y="1118" type="line"/>
      <point x="611" y="502" type="line"/>
      <point x="571" y="473" type="line"/>
      <point x="163" y="1118" type="line"/>
    </contour>
  </outline>
</glyph>
<glyph name="uni02A6" format="2">
  <advance width="1496"/>
  <unicode hex="02A6"/>
  <outline>
    <contour>
      <point x="432" y="0" type="line" smooth="yes"/>
      <point x="329" y="0"/>
      <point x="199" y="138"/>
      <point x="218" y="256" type="qcurve" smooth="yes"/>
      <point x="405" y="1384" type="line"/>
      <point x="451" y="1384" type="line"/>
      <point x="264" y="256" type="line" smooth="yes"/>
      <point x="248" y="158"/>
      <point x="356" y="46"/>
      <point x="440" y="46" type="qcurve" smooth="yes"/>
      <point x="905" y="46" type="line" smooth="yes"/>
      <point x="1062" y="46"/>
      <point x="1252" y="174"/>
      <point x="1271" y="290" type="qcurve" smooth="yes"/>
      <point x="1285" y="377"/>
      <point x="1195" y="487"/>
      <point x="1092" y="514" type="qcurve" smooth="yes"/>
      <point x="925" y="558" type="line" smooth="yes"/>
      <point x="801" y="590"/>
      <point x="693" y="736"/>
      <point x="710" y="840" type="qcurve" smooth="yes"/>
      <point x="725" y="928"/>
      <point x="835" y="1060"/>
      <point x="1003" y="1134"/>
      <point x="1105" y="1134" type="qcurve" smooth="yes"/>
      <point x="1234" y="1134"/>
      <point x="1386" y="1007"/>
      <point x="1405" y="882" type="qcurve"/>
      <point x="1357" y="870" type="line"/>
      <point x="1347" y="943"/>
      <point x="1282" y="1039"/>
      <point x="1174" y="1088"/>
      <point x="1097" y="1088" type="qcurve" smooth="yes"/>
      <point x="963" y="1088"/>
      <point x="775" y="952"/>
      <point x="756" y="840" type="qcurve" smooth="yes"/>
      <point x="742" y="753"/>
      <point x="832" y="632"/>
      <point x="941" y="603" type="qcurve" smooth="yes"/>
      <point x="1110" y="559" type="line" smooth="yes"/>
      <point x="1227" y="528"/>
      <point x="1334" y="394"/>
      <point x="1317" y="290" type="qcurve" smooth="yes"/>
      <point x="1302" y="199"/>
      <point x="1192" y="69"/>
      <point x="1014" y="0"/>
      <point x="897" y="0" type="qcurve" smooth="yes"/>
    </contour>
    <contour>
      <point x="189" y="1072" type="line"/>
      <point x="197" y="1118" type="line"/>
      <point x="1057" y="1118" type="line"/>
      <point x="915" y="1072" type="line"/>
    </contour>
  </outline>
</glyph>
<glyph name="uni02A7" format="2">
  <advance width="688"/>
  <unicode hex="02A7"/>
  <outline>
    <contour>
      <point x="494" y="1070" type="line"/>
      <point x="486" y="1022" type="line"/>
      <point x="44" y="1022" type="line"/>
      <point x="50" y="1070" type="line"/>
    </contour>
    <contour>
      <point x="258" y="1332" type="line"/>
      <point x="302" y="1332" type="line"/>
      <point x="122" y="236" type="line" smooth="yes"/>
      <point x="105" y="130"/>
      <point x="165" y="26"/>
      <point x="244" y="26" type="qcurve" smooth="yes"/>
      <point x="258" y="26"/>
      <point x="282" y="29"/>
      <point x="307" y="35"/>
      <point x="322" y="40" type="qcurve"/>
      <point x="330" y="-2" type="line"/>
      <point x="305" y="-12"/>
      <point x="262" y="-20"/>
      <point x="238" y="-20" type="qcurve" smooth="yes"/>
      <point x="174" y="-20"/>
      <point x="92" y="41"/>
      <point x="63" y="156"/>
      <point x="76" y="236" type="qcurve" smooth="yes"/>
    </contour>
    <contour>
      <point x="306" y="-162" type="line"/>
      <point x="264" y="-162" type="line"/>
      <point x="506" y="1300" type="line" smooth="yes"/>
      <point x="525" y="1413"/>
      <point x="692" y="1556"/>
      <point x="804" y="1556" type="qcurve" smooth="yes"/>
      <point x="830" y="1556"/>
      <point x="886" y="1548"/>
      <point x="914" y="1540" type="qcurve"/>
      <point x="898" y="1496" type="line"/>
      <point x="875" y="1503"/>
      <point x="821" y="1510"/>
      <point x="800" y="1510" type="qcurve" smooth="yes"/>
      <point x="709" y="1510"/>
      <point x="568" y="1391"/>
      <point x="552" y="1300" type="qcurve"/>
    </contour>
    <contour>
      <point x="506" y="1300" type="line"/>
      <point x="552" y="1300" type="line"/>
      <point x="306" y="-162" type="line" smooth="yes"/>
      <point x="287" y="-278"/>
      <point x="121" y="-419"/>
      <point x="2" y="-418" type="qcurve"/>
      <point x="-20" y="-419"/>
      <point x="-78" y="-412"/>
      <point x="-98" y="-408" type="qcurve"/>
      <point x="-90" y="-360" type="line"/>
      <point x="-65" y="-365"/>
      <point x="-5" y="-372"/>
      <point x="14" y="-372" type="qcurve" smooth="yes"/>
      <point x="106" y="-372"/>
      <point x="248" y="-253"/>
      <point x="264" y="-162" type="qcurve"/>
    </contour>
  </outline>
</glyph>
<glyph name="w.sups" format="2">
  <advance width="1086"/>
  <unicode hex="02B7"/>
  <outline>
    <contour>
      <point x="320" y="744" type="line"/>
      <point x="222" y="1490" type="line"/>
      <point x="268" y="1490" type="line"/>
      <point x="354" y="808" type="line"/>
      <point x="358" y="808" type="line"/>
      <point x="672" y="1490" type="line"/>
      <point x="718" y="1490" type="line"/>
      <point x="806" y="808" type="line"/>
      <point x="812" y="808" type="line"/>
      <point x="1122" y="1490" type="line"/>
      <point x="1172" y="1490" type="line"/>
      <point x="826" y="744" type="line"/>
      <point x="770" y="744" type="line"/>
      <point x="684" y="1410" type="line"/>
      <point x="680" y="1410" type="line"/>
      <point x="372" y="744" type="line"/>
    </contour>
  </outline>
</glyph>
<glyph name="y.sups" format="2">
  <advance width="726"/>
  <unicode hex="02B8"/>
  <outline>
    <contour>
      <point x="146" y="450" type="qcurve"/>
      <point x="130" y="451"/>
      <point x="84" y="460"/>
      <point x="66" y="468" type="qcurve"/>
      <point x="88" y="510" type="line"/>
      <point x="153" y="481"/>
      <point x="260" y="531"/>
      <point x="306" y="616" type="qcurve"/>
      <point x="366" y="734" type="line"/>
      <point x="222" y="1490" type="line"/>
      <point x="268" y="1490" type="line"/>
      <point x="398" y="802" type="line"/>
      <point x="402" y="802" type="line"/>
      <point x="760" y="1490" type="line"/>
      <point x="812" y="1490" type="line"/>
      <point x="344" y="600" type="line" smooth="yes"/>
      <point x="304" y="525"/>
      <point x="205" y="451"/>
    </contour>
  </outline>
</glyph>
<glyph name="uni02C0" format="2">
  <advance width="744"/>
  <unicode hex="02C0"/>
  <outline>
    <contour>
      <point x="264" y="1538" type="line"/>
      <point x="285" y="1622"/>
      <point x="382" y="1742"/>
      <point x="516" y="1807"/>
      <point x="590" y="1806" type="qcurve"/>
      <point x="669" y="1806"/>
      <point x="772" y="1732"/>
      <point x="813" y="1601"/>
      <point x="798" y="1512" type="qcurve" smooth="yes"/>
      <point x="760" y="1280" type="line"/>
      <point x="735" y="1135"/>
      <point x="587" y="987"/>
      <point x="462" y="986" type="qcurve"/>
      <point x="458" y="986" type="line"/>
      <point x="466" y="1032" type="line"/>
      <point x="472" y="1032" type="line" smooth="yes"/>
      <point x="540" y="1032"/>
      <point x="635" y="1082"/>
      <point x="697" y="1190"/>
      <point x="712" y="1274" type="qcurve"/>
      <point x="752" y="1518" type="line" smooth="yes"/>
      <point x="765" y="1595"/>
      <point x="734" y="1703"/>
      <point x="652" y="1760"/>
      <point x="586" y="1760" type="qcurve" smooth="yes"/>
      <point x="492" y="1760"/>
      <point x="343" y="1641"/>
      <point x="312" y="1538" type="qcurve"/>
    </contour>
    <contour>
      <point x="450" y="1032" type="line"/>
      <point x="498" y="1032" type="line"/>
      <point x="434" y="652" type="line"/>
      <point x="388" y="652" type="line"/>
    </contour>
  </outline>
</glyph>
<glyph name="uni02C1" format="2">
  <advance width="742"/>
  <unicode hex="02C1"/>
  <outline>
    <contour>
      <point x="802" y="1538" type="qcurve"/>
      <point x="756" y="1538" type="line"/>
      <point x="758" y="1641"/>
      <point x="649" y="1760"/>
      <point x="554" y="1760" type="qcurve" smooth="yes"/>
      <point x="456" y="1760"/>
      <point x="326" y="1634"/>
      <point x="306" y="1518" type="qcurve"/>
      <point x="268" y="1274" type="line"/>
      <point x="256" y="1190"/>
      <point x="281" y="1082"/>
      <point x="360" y="1032"/>
      <point x="428" y="1032" type="qcurve" smooth="yes"/>
      <point x="434" y="1032" type="line"/>
      <point x="426" y="986" type="line"/>
      <point x="422" y="986" type="line"/>
      <point x="298" y="987"/>
      <point x="197" y="1135"/>
      <point x="222" y="1280" type="qcurve"/>
      <point x="260" y="1512" type="line" smooth="yes"/>
      <point x="276" y="1607"/>
      <point x="354" y="1738"/>
      <point x="473" y="1806"/>
      <point x="550" y="1806" type="qcurve"/>
      <point x="669" y="1808"/>
      <point x="805" y="1657"/>
    </contour>
    <contour>
      <point x="402" y="1032" type="line"/>
      <point x="448" y="1032" type="line"/>
      <point x="386" y="652" type="line"/>
      <point x="338" y="652" type="line"/>
    </contour>
  </outline>
</glyph>
<glyph name="x.sups" format="2">
  <advance width="686"/>
  <unicode hex="02E3"/>
  <outline>
    <contour>
      <point x="296" y="1490" type="line"/>
      <point x="446" y="1166" type="line"/>
      <point x="702" y="1490" type="line"/>
      <point x="756" y="1490" type="line"/>
      <point x="466" y="1128" type="line"/>
      <point x="646" y="744" type="line"/>
      <point x="596" y="744" type="line"/>
      <point x="436" y="1090" type="line"/>
      <point x="160" y="744" type="line"/>
      <point x="104" y="744" type="line"/>
      <point x="414" y="1128" type="line"/>
      <point x="244" y="1490" type="line"/>
    </contour>
  </outline>
</glyph>
<glyph name="gravecomb" format="2">
  <unicode hex="0300"/>
  <anchor x="882" y="1242" name="_m.uni030F_1"/>
  <anchor x="882" y="1242" name="_t.uni030F"/>
  <anchor x="960" y="1734" name="t.uni030F"/>
  <outline>
    <contour>
      <point x="466" y="1283" type="line"/>
      <point x="345" y="1557" type="line"/>
      <point x="405" y="1557" type="line"/>
      <point x="512" y="1283" type="line"/>
    </contour>
  </outline>
</glyph>
<glyph name="uni0308" format="2">
  <unicode hex="0308"/>
  <anchor x="862" y="1242" name="_m.uni030F_1"/>
  <anchor x="862" y="1242" name="_t.uni030F"/>
  <anchor x="918" y="1589" name="t.uni030F"/>
  <outline>
    <contour>
      <point x="919" y="1373" type="qcurve" smooth="yes"/>
      <point x="900" y="1373"/>
      <point x="877" y="1401"/>
      <point x="880" y="1420" type="qcurve" smooth="yes"/>
      <point x="883" y="1440"/>
      <point x="916" y="1467"/>
      <point x="935" y="1467" type="qcurve" smooth="yes"/>
      <point x="955" y="1467"/>
      <point x="977" y="1440"/>
      <point x="974" y="1420" type="qcurve" smooth="yes"/>
      <point x="971" y="1401"/>
      <point x="939" y="1373"/>
    </contour>
    <contour>
      <point x="515" y="1373" type="qcurve" smooth="yes"/>
      <point x="496" y="1373"/>
      <point x="473" y="1401"/>
      <point x="476" y="1420" type="qcurve" smooth="yes"/>
      <point x="479" y="1440"/>
      <point x="512" y="1467"/>
      <point x="531" y="1467" type="qcurve" smooth="yes"/>
      <point x="551" y="1467"/>
      <point x="573" y="1440"/>
      <point x="570" y="1420" type="qcurve" smooth="yes"/>
      <point x="567" y="1401"/>
      <point x="535" y="1373"/>
    </contour>
  </outline>
</glyph>
<glyph name="uni0313" format="2">
  <unicode hex="0313"/>
  <outline>
    <contour>
      <point x="-566" y="1502" type="line"/>
      <point x="-592" y="1352" type="line" smooth="yes"/>
      <point x="-606" y="1267"/>
      <point x="-673" y="1121"/>
      <point x="-776" y="995"/>
      <point x="-844" y="938" type="qcurve"/>
      <point x="-864" y="972" type="line"/>
      <point x="-778" y="1048"/>
      <point x="-659" y="1226"/>
      <point x="-640" y="1346" type="qcurve" smooth="yes"/>
      <point x="-614" y="1502" type="line"/>
    </contour>
  </outline>
</glyph>
<glyph name="uni031B" format="2">
  <unicode hex="031B"/>
  <outline>
    <contour>
      <point x="2" y="1274" type="line"/>
      <point x="-6" y="1215"/>
      <point x="-24" y="1133"/>
      <point x="-50" y="1074"/>
      <point x="-90" y="1023"/>
      <point x="-120" y="994" type="qcurve"/>
      <point x="-142" y="1016" type="line"/>
      <point x="-118" y="1049"/>
      <point x="-87" y="1102"/>
      <point x="-66" y="1156"/>
      <point x="-51" y="1225"/>
      <point x="-44" y="1274" type="qcurve"/>
    </contour>
  </outline>
</glyph>
<glyph name="uni0328" format="2">
  <unicode hex="0328"/>
  <anchor x="365" y="0" name="_m.uni0328_4"/>
  <outline>
    <contour>
      <point x="51" y="-426" type="qcurve" smooth="yes"/>
      <point x="-11" y="-426"/>
      <point x="-108" y="-352"/>
      <point x="-95" y="-271" type="qcurve" smooth="yes"/>
      <point x="-81" y="-189"/>
      <point x="56" y="-50"/>
      <point x="136" y="11" type="qcurve"/>
      <point x="180" y="0" type="line"/>
      <point x="96" y="-67"/>
      <point x="-37" y="-200"/>
      <point x="-49" y="-271" type="qcurve" smooth="yes"/>
      <point x="-59" y="-332"/>
      <point x="16" y="-380"/>
      <point x="59" y="-380" type="qcurve" smooth="yes"/>
      <point x="76" y="-380"/>
      <point x="106" y="-374"/>
      <point x="120" y="-369" type="qcurve"/>
      <point x="130" y="-412" type="line"/>
      <point x="111" y="-419"/>
      <point x="72" y="-426"/>
    </contour>
  </outline>
</glyph>
<glyph name="uni0363" format="2">
  <unicode hex="0363"/>
  <outline>
    <contour>
      <point x="-216" y="1294" type="qcurve"/>
      <point x="-174" y="1556" type="line" smooth="yes"/>
      <point x="-161" y="1638"/>
      <point x="-208" y="1711"/>
      <point x="-270" y="1710" type="qcurve"/>
      <point x="-334" y="1711"/>
      <point x="-433" y="1641"/>
      <point x="-444" y="1588" type="qcurve"/>
      <point x="-488" y="1598" type="line"/>
      <point x="-473" y="1665"/>
      <point x="-350" y="1757"/>
      <point x="-270" y="1758" type="qcurve"/>
      <point x="-187" y="1757"/>
      <point x="-111" y="1653"/>
      <point x="-126" y="1568" type="qcurve"/>
      <point x="-166" y="1326" type="line"/>
      <point x="-170" y="1297"/>
      <point x="-174" y="1230"/>
      <point x="-172" y="1202" type="qcurve"/>
      <point x="-222" y="1202" type="line"/>
      <point x="-223" y="1231"/>
      <point x="-221" y="1271"/>
    </contour>
    <contour>
      <point x="-176" y="1496" type="line"/>
      <point x="-184" y="1448" type="line"/>
      <point x="-352" y="1448" type="line"/>
      <point x="-416" y="1449"/>
      <point x="-495" y="1396"/>
      <point x="-504" y="1348" type="qcurve" smooth="yes"/>
      <point x="-514" y="1298"/>
      <point x="-462" y="1242"/>
      <point x="-408" y="1242" type="qcurve" smooth="yes"/>
      <point x="-370" y="1242"/>
      <point x="-291" y="1268"/>
      <point x="-223" y="1312"/>
      <point x="-204" y="1338" type="qcurve"/>
      <point x="-206" y="1300" type="line"/>
      <point x="-238" y="1256"/>
      <point x="-358" y="1196"/>
      <point x="-416" y="1196" type="qcurve" smooth="yes"/>
      <point x="-488" y="1196"/>
      <point x="-561" y="1286"/>
      <point x="-552" y="1350" type="qcurve" smooth="yes"/>
      <point x="-541" y="1420"/>
      <point x="-433" y="1495"/>
      <point x="-344" y="1496" type="qcurve"/>
    </contour>
  </outline>
</glyph>
<glyph name="uni0365" format="2">
  <unicode hex="0365"/>
  <outline>
    <contour>
      <point x="-268" y="1754" type="line"/>
      <point x="-360" y="1202" type="line"/>
      <point x="-406" y="1202" type="line"/>
      <point x="-314" y="1754" type="line"/>
    </contour>
    <contour>
      <point x="-316" y="1886" type="qcurve"/>
      <point x="-312" y="1902"/>
      <point x="-283" y="1927"/>
      <point x="-266" y="1928" type="qcurve"/>
      <point x="-244" y="1927"/>
      <point x="-217" y="1896"/>
      <point x="-222" y="1874" type="qcurve" smooth="yes"/>
      <point x="-226" y="1858"/>
      <point x="-255" y="1834"/>
      <point x="-272" y="1834" type="qcurve" smooth="yes"/>
      <point x="-294" y="1834"/>
      <point x="-320" y="1867"/>
    </contour>
  </outline>
</glyph>
<glyph name="uni0367" format="2">
  <unicode hex="0367"/>
  <anchor x="-413" y="1818" name="_t.uni0367_2"/>
  <outline>
    <contour>
      <point x="-206" y="1324" type="line"/>
      <point x="-136" y="1754" type="line"/>
      <point x="-88" y="1754" type="line"/>
      <point x="-180" y="1202" type="line"/>
      <point x="-214" y="1202" type="line"/>
    </contour>
    <contour>
      <point x="-184" y="1464" type="qcurve"/>
      <point x="-154" y="1466" type="line"/>
      <point x="-174" y="1342"/>
      <point x="-314" y="1193"/>
      <point x="-412" y="1192" type="qcurve"/>
      <point x="-501" y="1193"/>
      <point x="-577" y="1299"/>
      <point x="-560" y="1400" type="qcurve" smooth="yes"/>
      <point x="-502" y="1754" type="line"/>
      <point x="-454" y="1754" type="line"/>
      <point x="-510" y="1434" type="line" smooth="yes"/>
      <point x="-529" y="1321"/>
      <point x="-482" y="1239"/>
      <point x="-398" y="1240" type="qcurve"/>
      <point x="-315" y="1239"/>
      <point x="-201" y="1359"/>
    </contour>
  </outline>
</glyph>
<glyph name="uni0368" format="2">
  <unicode hex="0368"/>
  <outline>
    <contour>
      <point x="-394" y="1186" type="qcurve"/>
      <point x="-456" y="1187"/>
      <point x="-545" y="1256"/>
      <point x="-584" y="1376"/>
      <point x="-574" y="1452" type="qcurve"/>
      <point x="-572" y="1462" type="line"/>
      <point x="-553" y="1595"/>
      <point x="-398" y="1760"/>
      <point x="-288" y="1760" type="qcurve" smooth="yes"/>
      <point x="-211" y="1760"/>
      <point x="-111" y="1665"/>
      <point x="-122" y="1576" type="qcurve"/>
      <point x="-166" y="1576" type="line"/>
      <point x="-161" y="1644"/>
      <point x="-228" y="1713"/>
      <point x="-288" y="1714" type="qcurve"/>
      <point x="-348" y="1714"/>
      <point x="-449" y="1649"/>
      <point x="-515" y="1536"/>
      <point x="-526" y="1462" type="qcurve"/>
      <point x="-526" y="1452" type="line"/>
      <point x="-535" y="1386"/>
      <point x="-507" y="1287"/>
      <point x="-436" y="1234"/>
      <point x="-382" y="1234" type="qcurve"/>
      <point x="-323" y="1233"/>
      <point x="-233" y="1294"/>
      <point x="-200" y="1356" type="qcurve"/>
      <point x="-156" y="1356" type="line"/>
      <point x="-182" y="1301"/>
      <point x="-255" y="1225"/>
      <point x="-344" y="1187"/>
    </contour>
  </outline>
</glyph>
<glyph name="Psi" format="2">
  <advance width="1752"/>
  <unicode hex="03A8"/>
  <outline>
    <contour>
      <point x="1628" y="1490" type="line"/>
      <point x="1674" y="1490" type="line"/>
      <point x="1602" y="1056" type="line" smooth="yes"/>
      <point x="1569" y="859"/>
      <point x="1377" y="583"/>
      <point x="1073" y="440"/>
      <point x="871" y="440" type="qcurve" smooth="yes"/>
      <point x="841" y="440" type="line" smooth="yes"/>
      <point x="690" y="440"/>
      <point x="469" y="521"/>
      <point x="334" y="679"/>
      <point x="289" y="908"/>
      <point x="314" y="1056" type="qcurve" smooth="yes"/>
      <point x="386" y="1490" type="line"/>
      <point x="432" y="1490" type="line"/>
      <point x="360" y="1056" type="line" smooth="yes"/>
      <point x="329" y="871"/>
      <point x="417" y="616"/>
      <point x="651" y="486"/>
      <point x="840" y="486" type="qcurve" smooth="yes"/>
      <point x="870" y="486" type="line" smooth="yes"/>
      <point x="1060" y="486"/>
      <point x="1346" y="617"/>
      <point x="1526" y="871"/>
      <point x="1556" y="1056" type="qcurve" smooth="yes"/>
    </contour>
    <contour>
      <point x="1007" y="1490" type="line"/>
      <point x="1053" y="1490" type="line"/>
      <point x="806" y="0" type="line"/>
      <point x="760" y="0" type="line"/>
    </contour>
  </outline>
</glyph>
<glyph name="alpha" format="2">
  <advance width="1266"/>
  <unicode hex="03B1"/>
  <anchor x="594" y="0" name="m.uni0326"/>
  <anchor x="866" y="1242" name="m.uni030F_1"/>
  <outline>
    <contour>
      <point x="502" y="-24" type="qcurve" smooth="yes"/>
      <point x="358" y="-24"/>
      <point x="172" y="122"/>
      <point x="102" y="384"/>
      <point x="130" y="556" type="qcurve" smooth="yes"/>
      <point x="158" y="724"/>
      <point x="321" y="984"/>
      <point x="556" y="1132"/>
      <point x="693" y="1132" type="qcurve" smooth="yes"/>
      <point x="783" y="1132"/>
      <point x="922" y="1072"/>
      <point x="1016" y="957"/>
      <point x="1062" y="791"/>
      <point x="1059" y="684" type="qcurve"/>
      <point x="1071" y="684" type="line"/>
      <point x="1071" y="562" type="line"/>
      <point x="1074" y="0" type="line"/>
      <point x="1028" y="0" type="line"/>
      <point x="1025" y="620" type="line" smooth="yes"/>
      <point x="1024" y="738"/>
      <point x="985" y="913"/>
      <point x="904" y="1029"/>
      <point x="780" y="1086"/>
      <point x="694" y="1086" type="qcurve" smooth="yes"/>
      <point x="571" y="1086"/>
      <point x="353" y="950"/>
      <point x="202" y="711"/>
      <point x="176" y="556" type="qcurve" smooth="yes"/>
      <point x="150" y="398"/>
      <point x="211" y="158"/>
      <point x="374" y="24"/>
      <point x="502" y="24" type="qcurve" smooth="yes"/>
      <point x="575" y="24"/>
      <point x="717" y="67"/>
      <point x="847" y="172"/>
      <point x="959" y="352"/>
      <point x="1001" y="488" type="qcurve" smooth="yes"/>
      <point x="1197" y="1118" type="line"/>
      <point x="1245" y="1118" type="line"/>
      <point x="1070" y="556" type="line"/>
      <point x="1032" y="434" type="line"/>
      <point x="1020" y="434" type="line"/>
      <point x="980" y="303"/>
      <point x="864" y="126"/>
      <point x="725" y="21"/>
      <point x="576" y="-24"/>
    </contour>
  </outline>
</glyph>
<glyph name="gamma" format="2">
  <advance width="1114"/>
  <unicode hex="03B3"/>
  <outline>
    <contour>
      <point x="441" y="-25" type="line"/>
      <point x="193" y="1118" type="line"/>
      <point x="241" y="1118" type="line"/>
      <point x="411" y="336" type="line" smooth="yes"/>
      <point x="428" y="260"/>
      <point x="458" y="106"/>
      <point x="476" y="30" type="qcurve"/>
      <point x="464" y="30" type="line"/>
      <point x="508" y="106"/>
      <point x="589" y="260"/>
      <point x="631" y="336" type="qcurve" smooth="yes"/>
      <point x="1059" y="1118" type="line"/>
      <point x="1107" y="1118" type="line"/>
      <point x="481" y="-25" type="line"/>
    </contour>
    <contour>
      <point x="373" y="-418" type="line"/>
      <point x="443" y="8" type="line"/>
      <point x="489" y="8" type="line"/>
      <point x="419" y="-418" type="line"/>
    </contour>
  </outline>
</glyph>
<glyph name="delta" format="2">
  <advance width="1186"/>
  <unicode hex="03B4"/>
  <outline>
    <contour>
      <point x="499" y="-16" type="qcurve" smooth="yes"/>
      <point x="363" y="-16"/>
      <point x="174" y="109"/>
      <point x="94" y="339"/>
      <point x="120" y="496" type="qcurve" smooth="yes"/>
      <point x="146" y="654"/>
      <point x="302" y="881"/>
      <point x="532" y="1004"/>
      <point x="668" y="1004" type="qcurve"/>
      <point x="770" y="957" type="line"/>
      <point x="691" y="977"/>
      <point x="558" y="1027"/>
      <point x="464" y="1096"/>
      <point x="421" y="1190"/>
      <point x="431" y="1252" type="qcurve" smooth="yes"/>
      <point x="443" y="1325"/>
      <point x="552" y="1432"/>
      <point x="758" y="1490"/>
      <point x="916" y="1490" type="qcurve" smooth="yes"/>
      <point x="1025" y="1490" type="line"/>
      <point x="1017" y="1444" type="line"/>
      <point x="908" y="1444" type="line" smooth="yes"/>
      <point x="763" y="1444"/>
      <point x="579" y="1396"/>
      <point x="487" y="1310"/>
      <point x="477" y="1252" type="qcurve" smooth="yes"/>
      <point x="465" y="1182"/>
      <point x="536" y="1089"/>
      <point x="651" y="1032"/>
      <point x="767" y="999"/>
      <point x="801" y="988" type="qcurve" smooth="yes"/>
      <point x="871" y="965"/>
      <point x="977" y="879"/>
      <point x="1042" y="755"/>
      <point x="1062" y="594"/>
      <point x="1046" y="496" type="qcurve" smooth="yes"/>
      <point x="1020" y="339"/>
      <point x="864" y="109"/>
      <point x="635" y="-16"/>
    </contour>
    <contour>
      <point x="499" y="30" type="qcurve" smooth="yes"/>
      <point x="621" y="30"/>
      <point x="831" y="141"/>
      <point x="976" y="350"/>
      <point x="1000" y="496" type="qcurve" smooth="yes"/>
      <point x="1036" y="715"/>
      <point x="852" y="962"/>
      <point x="669" y="962" type="qcurve" smooth="yes"/>
      <point x="547" y="962"/>
      <point x="335" y="851"/>
      <point x="190" y="642"/>
      <point x="166" y="496" type="qcurve" smooth="yes"/>
      <point x="130" y="277"/>
      <point x="315" y="30"/>
    </contour>
  </outline>
</glyph>
<glyph name="epsilon" format="2">
  <advance width="1037"/>
  <unicode hex="03B5"/>
  <anchor x="875" y="1242" name="m.uni030F_1"/>
  <outline>
    <contour>
      <point x="439" y="-20" type="qcurve" smooth="yes"/>
      <point x="314" y="-20"/>
      <point x="149" y="60"/>
      <point x="77" y="198"/>
      <point x="91" y="286" type="qcurve" smooth="yes"/>
      <point x="103" y="360"/>
      <point x="182" y="476"/>
      <point x="304" y="557"/>
      <point x="457" y="600"/>
      <point x="543" y="600" type="qcurve" smooth="yes"/>
      <point x="623" y="600" type="line"/>
      <point x="616" y="554" type="line"/>
      <point x="504" y="554" type="line" smooth="yes"/>
      <point x="416" y="554"/>
      <point x="259" y="487"/>
      <point x="153" y="365"/>
      <point x="139" y="282" type="qcurve" smooth="yes"/>
      <point x="120" y="168"/>
      <point x="286" y="26"/>
      <point x="446" y="26" type="qcurve" smooth="yes"/>
      <point x="555" y="26"/>
      <point x="694" y="91"/>
      <point x="782" y="211"/>
      <point x="815" y="294" type="qcurve"/>
      <point x="858" y="286" type="line"/>
      <point x="824" y="194"/>
      <point x="720" y="56"/>
      <point x="559" y="-20"/>
    </contour>
    <contour>
      <point x="536" y="554" type="line" smooth="yes"/>
      <point x="446" y="554"/>
      <point x="314" y="590"/>
      <point x="233" y="660"/>
      <point x="202" y="763"/>
      <point x="213" y="830" type="qcurve" smooth="yes"/>
      <point x="229" y="921"/>
      <point x="340" y="1057"/>
      <point x="515" y="1132"/>
      <point x="627" y="1132" type="qcurve" smooth="yes"/>
      <point x="724" y="1132"/>
      <point x="848" y="1072"/>
      <point x="915" y="955"/>
      <point x="924" y="868" type="qcurve"/>
      <point x="877" y="856" type="line"/>
      <point x="866" y="975"/>
      <point x="745" y="1086"/>
      <point x="620" y="1086" type="qcurve" smooth="yes"/>
      <point x="472" y="1086"/>
      <point x="282" y="950"/>
      <point x="260" y="834" type="qcurve"/>
      <point x="242" y="724"/>
      <point x="369" y="600"/>
      <point x="511" y="600" type="qcurve" smooth="yes"/>
      <point x="623" y="600" type="line"/>
      <point x="616" y="554" type="line"/>
    </contour>
  </outline>
</glyph>
<glyph name="lambda" format="2">
  <advance width="1291"/>
  <unicode hex="03BB"/>
  <outline>
    <contour>
      <point x="7" y="0" type="line"/>
      <point x="630" y="1132" type="line"/>
      <point x="600" y="1275" type="line" smooth="yes"/>
      <point x="583" y="1356"/>
      <point x="509" y="1448"/>
      <point x="397" y="1469"/>
      <point x="323" y="1442" type="qcurve" smooth="yes"/>
      <point x="312" y="1438" type="line"/>
      <point x="301" y="1478" type="line"/>
      <point x="336" y="1492"/>
      <point x="393" y="1506"/>
      <point x="421" y="1506" type="qcurve" smooth="yes"/>
      <point x="476" y="1506"/>
      <point x="565" y="1457"/>
      <point x="627" y="1362"/>
      <point x="642" y="1292" type="qcurve" smooth="yes"/>
      <point x="875" y="215" type="line" smooth="yes"/>
      <point x="893" y="134"/>
      <point x="964" y="42"/>
      <point x="1074" y="21"/>
      <point x="1148" y="48" type="qcurve" smooth="yes"/>
      <point x="1159" y="52" type="line"/>
      <point x="1170" y="12" type="line"/>
      <point x="1136" y="-2"/>
      <point x="1073" y="-16"/>
      <point x="1045" y="-16" type="qcurve" smooth="yes"/>
      <point x="990" y="-16"/>
      <point x="906" y="33"/>
      <point x="848" y="128"/>
      <point x="833" y="198" type="qcurve" smooth="yes"/>
      <point x="706" y="782" type="line" smooth="yes"/>
      <point x="689" y="862"/>
      <point x="659" y="1022"/>
      <point x="642" y="1102" type="qcurve"/>
      <point x="653" y="1102" type="line"/>
      <point x="613" y="1022"/>
      <point x="530" y="862"/>
      <point x="486" y="782" type="qcurve" smooth="yes"/>
      <point x="60" y="0" type="line"/>
    </contour>
  </outline>
</glyph>
<glyph name="uni03C2" format="2">
  <advance width="1090"/>
  <unicode hex="03C2"/>
  <outline>
    <contour>
      <point x="752" y="-264" type="line"/>
      <point x="773" y="-140" type="line" smooth="yes"/>
      <point x="785" y="-71"/>
      <point x="715" y="0"/>
      <point x="630" y="0" type="qcurve" smooth="yes"/>
      <point x="501" y="0" type="line" smooth="yes"/>
      <point x="369" y="0"/>
      <point x="183" y="142"/>
      <point x="103" y="394"/>
      <point x="130" y="559" type="qcurve" smooth="yes"/>
      <point x="157" y="724"/>
      <point x="322" y="984"/>
      <point x="557" y="1134"/>
      <point x="689" y="1134" type="qcurve" smooth="yes"/>
      <point x="782" y="1134"/>
      <point x="909" y="1068"/>
      <point x="986" y="979"/>
      <point x="1023" y="906"/>
      <point x="1026" y="899" type="qcurve"/>
      <point x="982" y="876" type="line"/>
      <point x="979" y="884"/>
      <point x="948" y="950"/>
      <point x="882" y="1029"/>
      <point x="772" y="1088"/>
      <point x="689" y="1088" type="qcurve" smooth="yes"/>
      <point x="571" y="1088"/>
      <point x="355" y="951"/>
      <point x="201" y="713"/>
      <point x="176" y="559" type="qcurve" smooth="yes"/>
      <point x="151" y="405"/>
      <point x="219" y="174"/>
      <point x="383" y="46"/>
      <point x="501" y="46" type="qcurve" smooth="yes"/>
      <point x="630" y="46" type="line" smooth="yes"/>
      <point x="698" y="46"/>
      <point x="789" y="3"/>
      <point x="829" y="-80"/>
      <point x="819" y="-140" type="qcurve" smooth="yes"/>
      <point x="798" y="-264" type="line"/>
    </contour>
  </outline>
</glyph>
<glyph name="tau" format="2">
  <advance width="824"/>
  <unicode hex="03C4"/>
  <outline>
    <contour>
      <point x="537" y="-5" type="qcurve"/>
      <point x="421" y="-32"/>
      <point x="313" y="97"/>
      <point x="332" y="213" type="qcurve" smooth="yes"/>
      <point x="474" y="1072" type="line"/>
      <point x="95" y="1072" type="line"/>
      <point x="103" y="1118" type="line"/>
      <point x="907" y="1118" type="line"/>
      <point x="899" y="1072" type="line"/>
      <point x="520" y="1072" type="line"/>
      <point x="378" y="213" type="line" smooth="yes"/>
      <point x="362" y="113"/>
      <point x="447" y="18"/>
      <point x="537" y="40" type="qcurve" smooth="yes"/>
      <point x="545" y="42"/>
      <point x="563" y="47"/>
      <point x="572" y="49" type="qcurve"/>
      <point x="576" y="4" type="line"/>
      <point x="566" y="2"/>
      <point x="547" y="-3"/>
    </contour>
  </outline>
</glyph>
<glyph name="chi" format="2">
  <advance width="1113"/>
  <unicode hex="03C7"/>
  <outline>
    <contour>
      <point x="-7" y="-418" type="line"/>
      <point x="543" y="366" type="line"/>
      <point x="579" y="366" type="line"/>
      <point x="783" y="-222" type="line" smooth="yes"/>
      <point x="807" y="-290"/>
      <point x="848" y="-354"/>
      <point x="914" y="-372"/>
      <point x="976" y="-372" type="qcurve" smooth="yes"/>
      <point x="1018" y="-372" type="line"/>
      <point x="1011" y="-418" type="line"/>
      <point x="972" y="-418" type="line" smooth="yes"/>
      <point x="901" y="-418"/>
      <point x="819" y="-393"/>
      <point x="767" y="-318"/>
      <point x="741" y="-242" type="qcurve" smooth="yes"/>
      <point x="553" y="302" type="line"/>
      <point x="50" y="-418" type="line"/>
    </contour>
    <contour>
      <point x="536" y="338" type="line"/>
      <point x="330" y="920" type="line" smooth="yes"/>
      <point x="306" y="988"/>
      <point x="265" y="1051"/>
      <point x="199" y="1070"/>
      <point x="137" y="1070" type="qcurve" smooth="yes"/>
      <point x="95" y="1070" type="line"/>
      <point x="103" y="1118" type="line"/>
      <point x="142" y="1118" type="line" smooth="yes"/>
      <point x="214" y="1118"/>
      <point x="294" y="1093"/>
      <point x="344" y="1017"/>
      <point x="371" y="942" type="qcurve" smooth="yes"/>
      <point x="564" y="402" type="line"/>
      <point x="1066" y="1118" type="line"/>
      <point x="1123" y="1118" type="line"/>
      <point x="574" y="338" type="line"/>
    </contour>
  </outline>
</glyph>
<glyph name="psi" format="2">
  <advance width="1486"/>
  <unicode hex="03C8"/>
  <outline>
    <contour>
      <point x="625" y="-16" type="line" smooth="yes"/>
      <point x="465" y="-16"/>
      <point x="251" y="111"/>
      <point x="163" y="343"/>
      <point x="189" y="502" type="qcurve" smooth="yes"/>
      <point x="291" y="1118" type="line"/>
      <point x="337" y="1118" type="line"/>
      <point x="235" y="502" type="line" smooth="yes"/>
      <point x="212" y="364"/>
      <point x="281" y="151"/>
      <point x="470" y="30"/>
      <point x="625" y="30" type="qcurve" smooth="yes"/>
      <point x="671" y="30" type="line" smooth="yes"/>
      <point x="827" y="30"/>
      <point x="1062" y="151"/>
      <point x="1210" y="364"/>
      <point x="1233" y="502" type="qcurve" smooth="yes"/>
      <point x="1335" y="1118" type="line"/>
      <point x="1381" y="1118" type="line"/>
      <point x="1279" y="502" type="line" smooth="yes"/>
      <point x="1253" y="343"/>
      <point x="1087" y="111"/>
      <point x="832" y="-16"/>
      <point x="671" y="-16" type="qcurve" smooth="yes"/>
    </contour>
    <contour>
      <point x="559" y="-418" type="line"/>
      <point x="857" y="1384" type="line"/>
      <point x="903" y="1384" type="line"/>
      <point x="605" y="-418" type="line"/>
    </contour>
  </outline>
</glyph>
<glyph name="uni03CF" format="2">
  <advance width="1224"/>
  <unicode hex="03CF"/>
  <outline>
    <contour>
      <point x="269" y="536" type="line"/>
      <point x="262" y="584" type="line"/>
      <point x="333" y="649"/>
      <point x="462" y="768"/>
      <point x="592" y="888"/>
      <point x="663" y="952" type="qcurve" smooth="yes"/>
      <point x="1251" y="1490" type="line"/>
      <point x="1312" y="1490" type="line"/>
      <point x="589" y="828" type="line"/>
      <point x="575" y="817" type="line"/>
    </contour>
    <contour>
      <point x="139" y="0" type="line"/>
      <point x="386" y="1490" type="line"/>
      <point x="432" y="1490" type="line"/>
      <point x="344" y="960" type="line"/>
      <point x="283" y="592" type="line"/>
      <point x="278" y="560" type="line"/>
      <point x="185" y="0" type="line"/>
    </contour>
    <contour>
      <point x="685" y="-431" type="line"/>
      <point x="653" y="-405" type="line"/>
      <point x="1008" y="0" type="line"/>
      <point x="557" y="826" type="line"/>
      <point x="598" y="852" type="line"/>
      <point x="1063" y="0" type="line"/>
    </contour>
  </outline>
</glyph>
<glyph name="kappa1" format="2">
  <advance width="1226"/>
  <unicode hex="03F0"/>
  <outline>
    <contour>
      <point x="102" y="0" type="line"/>
      <point x="1082" y="1118" type="line"/>
      <point x="1138" y="1118" type="line"/>
      <point x="158" y="0" type="line"/>
    </contour>
    <contour>
      <point x="200" y="72" type="line"/>
      <point x="350" y="980" type="line" smooth="yes"/>
      <point x="361" y="1047"/>
      <point x="330" y="1091"/>
      <point x="274" y="1090" type="qcurve"/>
      <point x="255" y="1091"/>
      <point x="219" y="1088"/>
      <point x="200" y="1086" type="qcurve"/>
      <point x="208" y="1128" type="line"/>
      <point x="225" y="1133"/>
      <point x="264" y="1137"/>
      <point x="286" y="1138" type="qcurve"/>
      <point x="321" y="1138"/>
      <point x="369" y="1121"/>
      <point x="396" y="1086"/>
      <point x="404" y="1032"/>
      <point x="398" y="994" type="qcurve" smooth="yes"/>
      <point x="252" y="114" type="line"/>
    </contour>
    <contour>
      <point x="944" y="-18" type="qcurve"/>
      <point x="909" y="-18"/>
      <point x="860" y="-1"/>
      <point x="833" y="34"/>
      <point x="826" y="89"/>
      <point x="832" y="126" type="qcurve" smooth="yes"/>
      <point x="974" y="978" type="line"/>
      <point x="1026" y="1018" type="line"/>
      <point x="880" y="140" type="line" smooth="yes"/>
      <point x="869" y="73"/>
      <point x="900" y="29"/>
      <point x="956" y="30" type="qcurve"/>
      <point x="974" y="29"/>
      <point x="1010" y="32"/>
      <point x="1028" y="34" type="qcurve"/>
      <point x="1022" y="-8" type="line"/>
      <point x="1005" y="-13"/>
      <point x="965" y="-17"/>
    </contour>
  </outline>
</glyph>
<glyph name="rho1" format="2">
  <advance width="1188"/>
  <unicode hex="03F1"/>
  <outline>
    <contour>
      <point x="800" y="-474" type="qcurve"/>
      <point x="754" y="-472" type="line"/>
      <point x="765" y="-412"/>
      <point x="733" y="-329"/>
      <point x="625" y="-268"/>
      <point x="520" y="-242" type="qcurve" smooth="yes"/>
      <point x="417" y="-217"/>
      <point x="259" y="-135"/>
      <point x="159" y="9"/>
      <point x="126" y="247"/>
      <point x="148" y="428" type="qcurve"/>
      <point x="168" y="582" type="line"/>
      <point x="208" y="554" type="line"/>
      <point x="194" y="428" type="line"/>
      <point x="177" y="261"/>
      <point x="202" y="42"/>
      <point x="287" y="-93"/>
      <point x="434" y="-171"/>
      <point x="538" y="-198" type="qcurve" smooth="yes"/>
      <point x="620" y="-219"/>
      <point x="730" y="-267"/>
      <point x="791" y="-331"/>
      <point x="810" y="-417"/>
    </contour>
    <contour>
      <point x="514" y="60" type="qcurve" smooth="yes"/>
      <point x="407" y="62"/>
      <point x="261" y="152"/>
      <point x="177" y="311"/>
      <point x="162" y="418" type="qcurve"/>
      <point x="161" y="443"/>
      <point x="162" y="495"/>
      <point x="164" y="545"/>
      <point x="164" y="566" type="qcurve"/>
      <point x="168" y="584" type="line"/>
      <point x="193" y="750"/>
      <point x="341" y="997"/>
      <point x="560" y="1135"/>
      <point x="692" y="1134" type="qcurve"/>
      <point x="824" y="1135"/>
      <point x="1000" y="996"/>
      <point x="1067" y="748"/>
      <point x="1034" y="584" type="qcurve" smooth="yes"/>
      <point x="1030" y="562" type="line" smooth="yes"/>
      <point x="1001" y="419"/>
      <point x="857" y="190"/>
      <point x="645" y="58"/>
    </contour>
    <contour>
      <point x="522" y="110" type="qcurve"/>
      <point x="640" y="111"/>
      <point x="830" y="232"/>
      <point x="959" y="437"/>
      <point x="984" y="562" type="qcurve" smooth="yes"/>
      <point x="988" y="584" type="line" smooth="yes"/>
      <point x="1018" y="735"/>
      <point x="960" y="962"/>
      <point x="803" y="1088"/>
      <point x="684" y="1088" type="qcurve" smooth="yes"/>
      <point x="567" y="1088"/>
      <point x="372" y="962"/>
      <point x="239" y="736"/>
      <point x="214" y="584" type="qcurve"/>
      <point x="212" y="576" type="line"/>
      <point x="191" y="444"/>
      <point x="251" y="233"/>
      <point x="405" y="111"/>
    </contour>
  </outline>
</glyph>
<glyph name="uni03F6" format="2">
  <advance width="778"/>
  <unicode hex="03F6"/>
  <outline>
    <contour>
      <point x="-38" y="64" type="line"/>
      <point x="162" y="64" type="line" smooth="yes"/>
      <point x="305" y="64"/>
      <point x="518" y="165"/>
      <point x="651" y="365"/>
      <point x="674" y="512" type="qcurve" smooth="yes"/>
      <point x="682" y="568" type="line"/>
      <point x="706" y="720"/>
      <point x="644" y="919"/>
      <point x="468" y="1018"/>
      <point x="320" y="1018" type="qcurve" smooth="yes"/>
      <point x="120" y="1018" type="line"/>
      <point x="128" y="1064" type="line"/>
      <point x="328" y="1064" type="line"/>
      <point x="485" y="1065"/>
      <point x="680" y="950"/>
      <point x="754" y="729"/>
      <point x="728" y="568" type="qcurve"/>
      <point x="720" y="512" type="line"/>
      <point x="694" y="349"/>
      <point x="548" y="128"/>
      <point x="314" y="18"/>
      <point x="154" y="18" type="qcurve" smooth="yes"/>
      <point x="-46" y="18" type="line"/>
    </contour>
    <contour>
      <point x="212" y="520" type="line"/>
      <point x="220" y="568" type="line"/>
      <point x="700" y="568" type="line"/>
      <point x="692" y="520" type="line"/>
    </contour>
  </outline>
</glyph>
<glyph name="uni0460" format="2">
  <advance width="1620"/>
  <unicode hex="0460"/>
  <outline>
    <contour>
      <point x="192" y="318" type="qcurve" smooth="yes"/>
      <point x="386" y="1490" type="line"/>
      <point x="432" y="1490" type="line"/>
      <point x="238" y="318" type="line" smooth="yes"/>
      <point x="211" y="158"/>
      <point x="321" y="26"/>
      <point x="431" y="26" type="qcurve" smooth="yes"/>
      <point x="554" y="26"/>
      <point x="723" y="173"/>
      <point x="747" y="318" type="qcurve" smooth="yes"/>
      <point x="941" y="1490" type="line"/>
      <point x="987" y="1490" type="line"/>
      <point x="793" y="318" type="line" smooth="yes"/>
      <point x="769" y="173"/>
      <point x="889" y="26"/>
      <point x="1011" y="26" type="qcurve" smooth="yes"/>
      <point x="1121" y="26"/>
      <point x="1276" y="159"/>
      <point x="1302" y="318" type="qcurve" smooth="yes"/>
      <point x="1496" y="1490" type="line"/>
      <point x="1542" y="1490" type="line"/>
      <point x="1348" y="318" type="line" smooth="yes"/>
      <point x="1329" y="201"/>
      <point x="1233" y="51"/>
      <point x="1090" y="-20"/>
      <point x="1000" y="-20" type="qcurve" smooth="yes"/>
      <point x="912" y="-20"/>
      <point x="769" y="63"/>
      <point x="747" y="184" type="qcurve"/>
      <point x="686" y="63"/>
      <point x="515" y="-20"/>
      <point x="428" y="-20" type="qcurve" smooth="yes"/>
      <point x="338" y="-20"/>
      <point x="219" y="52"/>
      <point x="173" y="201"/>
    </contour>
  </outline>
</glyph>
<glyph name="uni046E" format="2">
  <advance width="1040"/>
  <unicode hex="046E"/>
  <outline>
    <contour>
      <point x="290" y="1490" type="line"/>
      <point x="630" y="1490" type="line" smooth="yes"/>
      <point x="759" y="1490"/>
      <point x="932" y="1407"/>
      <point x="1007" y="1250"/>
      <point x="988" y="1138" type="qcurve" smooth="yes"/>
      <point x="968" y="1018"/>
      <point x="823" y="842"/>
      <point x="587" y="745"/>
      <point x="430" y="744" type="qcurve"/>
      <point x="326" y="744" type="line"/>
      <point x="334" y="792" type="line"/>
      <point x="434" y="792" type="line"/>
      <point x="652" y="791"/>
      <point x="915" y="978"/>
      <point x="942" y="1138" type="qcurve"/>
      <point x="966" y="1287"/>
      <point x="797" y="1443"/>
      <point x="622" y="1442" type="qcurve"/>
      <point x="280" y="1442" type="line"/>
    </contour>
    <contour>
      <point x="334" y="792" type="line"/>
      <point x="446" y="792" type="line"/>
      <point x="682" y="791"/>
      <point x="891" y="586"/>
      <point x="862" y="406" type="qcurve"/>
      <point x="844" y="287"/>
      <point x="708" y="93"/>
      <point x="492" y="-20"/>
      <point x="352" y="-20" type="qcurve" smooth="yes"/>
      <point x="346" y="-20" type="line" smooth="yes"/>
      <point x="222" y="-20"/>
      <point x="84" y="-103"/>
      <point x="70" y="-184" type="qcurve" smooth="yes"/>
      <point x="61" y="-235"/>
      <point x="95" y="-319"/>
      <point x="166" y="-385"/>
      <point x="210" y="-412" type="qcurve"/>
      <point x="182" y="-448" type="line"/>
      <point x="131" y="-422"/>
      <point x="52" y="-345"/>
      <point x="15" y="-243"/>
      <point x="24" y="-182" type="qcurve"/>
      <point x="41" y="-81"/>
      <point x="212" y="26"/>
      <point x="354" y="26" type="qcurve" smooth="yes"/>
      <point x="360" y="26" type="line" smooth="yes"/>
      <point x="485" y="26"/>
      <point x="676" y="125"/>
      <point x="797" y="297"/>
      <point x="816" y="404" type="qcurve" smooth="yes"/>
      <point x="845" y="566"/>
      <point x="656" y="745"/>
      <point x="436" y="744" type="qcurve"/>
      <point x="326" y="744" type="line"/>
    </contour>
    <contour>
      <point x="574" y="1920" type="line"/>
      <point x="724" y="1714" type="line"/>
      <point x="952" y="1920" type="line"/>
      <point x="984" y="1920" type="line"/>
      <point x="980" y="1908" type="line"/>
      <point x="716" y="1644" type="line"/>
      <point x="710" y="1644" type="line"/>
      <point x="542" y="1908" type="line"/>
      <point x="544" y="1920" type="line"/>
    </contour>
  </outline>
</glyph>
<glyph name="uni0484" format="2">
  <unicode hex="0484"/>
  <outline>
    <contour>
      <point x="-606" y="1394" type="line"/>
      <point x="-596" y="1394" type="line" smooth="yes"/>
      <point x="-525" y="1394"/>
      <point x="-409" y="1427"/>
      <point x="-307" y="1471"/>
      <point x="-212" y="1506"/>
      <point x="-162" y="1506" type="qcurve"/>
      <point x="-96" y="1505"/>
      <point x="-35" y="1432"/>
      <point x="-46" y="1364" type="qcurve"/>
      <point x="-48" y="1346" type="line"/>
      <point x="-94" y="1346" type="line"/>
      <point x="-92" y="1364" type="line"/>
      <point x="-84" y="1411"/>
      <point x="-125" y="1459"/>
      <point x="-176" y="1458" type="qcurve"/>
      <point x="-224" y="1458"/>
      <point x="-313" y="1425"/>
      <point x="-408" y="1381"/>
      <point x="-524" y="1346"/>
      <point x="-600" y="1346" type="qcurve" smooth="yes"/>
      <point x="-612" y="1346" type="line"/>
    </contour>
  </outline>
</glyph>
<glyph name="uni04A8" format="2">
  <advance width="2073"/>
  <unicode hex="04A8"/>
  <outline>
    <contour>
      <point x="1567" y="-25" type="qcurve" smooth="yes"/>
      <point x="1459" y="-25"/>
      <point x="1273" y="28"/>
      <point x="1208" y="77" type="qcurve"/>
      <point x="1101" y="134"/>
      <point x="951" y="346"/>
      <point x="889" y="622"/>
      <point x="914" y="774" type="qcurve" smooth="yes"/>
      <point x="941" y="934"/>
      <point x="1105" y="1179"/>
      <point x="1346" y="1317"/>
      <point x="1487" y="1317" type="qcurve" smooth="yes"/>
      <point x="1631" y="1317"/>
      <point x="1830" y="1182"/>
      <point x="1916" y="945"/>
      <point x="1890" y="790" type="qcurve" smooth="yes"/>
      <point x="1868" y="654"/>
      <point x="1733" y="410"/>
      <point x="1527" y="208"/>
      <point x="1266" y="61"/>
      <point x="967" y="-20"/>
      <point x="807" y="-20" type="qcurve" smooth="yes"/>
      <point x="558" y="-20"/>
      <point x="254" y="174"/>
      <point x="141" y="520"/>
      <point x="178" y="747" type="qcurve" smooth="yes"/>
      <point x="206" y="917"/>
      <point x="341" y="1197"/>
      <point x="538" y="1400"/>
      <point x="783" y="1510"/>
      <point x="921" y="1510" type="qcurve"/>
      <point x="916" y="1464" type="line"/>
      <point x="747" y="1464"/>
      <point x="459" y="1282"/>
      <point x="259" y="957"/>
      <point x="223" y="741" type="qcurve" smooth="yes"/>
      <point x="188" y="530"/>
      <point x="291" y="207"/>
      <point x="574" y="26"/>
      <point x="809" y="26" type="qcurve" smooth="yes"/>
      <point x="1000" y="26"/>
      <point x="1350" y="144"/>
      <point x="1633" y="355"/>
      <point x="1818" y="635"/>
      <point x="1845" y="796" type="qcurve" smooth="yes"/>
      <point x="1869" y="937"/>
      <point x="1792" y="1151"/>
      <point x="1615" y="1271"/>
      <point x="1486" y="1271" type="qcurve" smooth="yes"/>
      <point x="1356" y="1271"/>
      <point x="1135" y="1143"/>
      <point x="984" y="917"/>
      <point x="959" y="768" type="qcurve" smooth="yes"/>
      <point x="934" y="616"/>
      <point x="999" y="349"/>
      <point x="1150" y="150"/>
      <point x="1252" y="97" type="qcurve"/>
      <point x="1311" y="60"/>
      <point x="1478" y="21"/>
      <point x="1569" y="21" type="qcurve" smooth="yes"/>
      <point x="1643" y="21"/>
      <point x="1770" y="50"/>
      <point x="1843" y="82" type="qcurve"/>
      <point x="1859" y="38" type="line"/>
      <point x="1808" y="16"/>
      <point x="1713" y="-12"/>
      <point x="1618" y="-25"/>
    </contour>
  </outline>
</glyph>
<glyph name="uni04A9" format="2">
  <advance width="1526"/>
  <unicode hex="04A9"/>
  <outline>
    <contour>
      <point x="616" y="-24" type="qcurve" smooth="yes"/>
      <point x="428" y="-24"/>
      <point x="193" y="130"/>
      <point x="103" y="394"/>
      <point x="130" y="559" type="qcurve" smooth="yes"/>
      <point x="157" y="723"/>
      <point x="321" y="983"/>
      <point x="556" y="1134"/>
      <point x="687" y="1134" type="qcurve"/>
      <point x="683" y="1088" type="line"/>
      <point x="565" y="1088"/>
      <point x="351" y="947"/>
      <point x="200" y="705"/>
      <point x="175" y="553" type="qcurve" smooth="yes"/>
      <point x="150" y="402"/>
      <point x="231" y="161"/>
      <point x="444" y="22"/>
      <point x="618" y="22" type="qcurve" smooth="yes"/>
      <point x="747" y="22"/>
      <point x="985" y="101"/>
      <point x="1179" y="244"/>
      <point x="1307" y="440"/>
      <point x="1326" y="557" type="qcurve" smooth="yes"/>
      <point x="1344" y="669"/>
      <point x="1282" y="839"/>
      <point x="1137" y="936"/>
      <point x="1032" y="936" type="qcurve" smooth="yes"/>
      <point x="927" y="936"/>
      <point x="748" y="837"/>
      <point x="628" y="664"/>
      <point x="609" y="551" type="qcurve" smooth="yes"/>
      <point x="591" y="440"/>
      <point x="652" y="244"/>
      <point x="801" y="97"/>
      <point x="913" y="56" type="qcurve"/>
      <point x="963" y="33"/>
      <point x="1094" y="22"/>
      <point x="1136" y="22" type="qcurve" smooth="yes"/>
      <point x="1213" y="22"/>
      <point x="1315" y="47"/>
      <point x="1382" y="78" type="qcurve"/>
      <point x="1399" y="35" type="line"/>
      <point x="1327" y="1"/>
      <point x="1201" y="-24"/>
      <point x="1134" y="-24" type="qcurve" smooth="yes"/>
      <point x="1070" y="-24"/>
      <point x="909" y="2"/>
      <point x="849" y="36" type="qcurve"/>
      <point x="691" y="105"/>
      <point x="535" y="384"/>
      <point x="564" y="557" type="qcurve" smooth="yes"/>
      <point x="585" y="682"/>
      <point x="719" y="874"/>
      <point x="918" y="982"/>
      <point x="1034" y="982" type="qcurve" smooth="yes"/>
      <point x="1152" y="982"/>
      <point x="1318" y="872"/>
      <point x="1392" y="677"/>
      <point x="1371" y="551" type="qcurve" smooth="yes"/>
      <point x="1355" y="451"/>
      <point x="1260" y="276"/>
      <point x="1117" y="134"/>
      <point x="935" y="31"/>
      <point x="727" y="-24"/>
    </contour>
  </outline>
</glyph>
<glyph name="uni04BC" format="2">
  <advance width="1653"/>
  <unicode hex="04BC"/>
  <outline>
    <contour>
      <point x="787" y="-20" type="qcurve" smooth="yes"/>
      <point x="602" y="-20"/>
      <point x="356" y="172"/>
      <point x="258" y="517"/>
      <point x="295" y="746" type="qcurve"/>
      <point x="324" y="917"/>
      <point x="458" y="1197"/>
      <point x="655" y="1400"/>
      <point x="903" y="1510"/>
      <point x="1044" y="1510" type="qcurve" smooth="yes"/>
      <point x="1227" y="1510"/>
      <point x="1464" y="1319"/>
      <point x="1556" y="984"/>
      <point x="1521" y="766" type="qcurve" smooth="yes"/>
      <point x="1514" y="722" type="line"/>
      <point x="323" y="722" type="line"/>
      <point x="330" y="768" type="line"/>
      <point x="1495" y="768" type="line"/>
      <point x="1473" y="758" type="line"/>
      <point x="1508" y="966"/>
      <point x="1430" y="1284"/>
      <point x="1216" y="1464"/>
      <point x="1044" y="1464" type="qcurve" smooth="yes"/>
      <point x="868" y="1464"/>
      <point x="575" y="1283"/>
      <point x="377" y="959"/>
      <point x="341" y="746" type="qcurve"/>
      <point x="306" y="530"/>
      <point x="391" y="206"/>
      <point x="614" y="26"/>
      <point x="786" y="26" type="qcurve" smooth="yes"/>
      <point x="901" y="26"/>
      <point x="1099" y="105"/>
      <point x="1256" y="235"/>
      <point x="1365" y="390"/>
      <point x="1390" y="466" type="qcurve"/>
      <point x="1437" y="466" type="line"/>
      <point x="1410" y="387"/>
      <point x="1298" y="217"/>
      <point x="1133" y="71"/>
      <point x="917" y="-20"/>
    </contour>
    <contour>
      <point x="93" y="1057" type="line"/>
      <point x="139" y="1057" type="line"/>
      <point x="127" y="987" type="line" smooth="yes"/>
      <point x="115" y="914"/>
      <point x="137" y="816"/>
      <point x="207" y="768"/>
      <point x="264" y="768" type="qcurve" smooth="yes"/>
      <point x="312" y="768" type="line"/>
      <point x="305" y="722" type="line"/>
      <point x="257" y="722" type="line" smooth="yes"/>
      <point x="151" y="722"/>
      <point x="60" y="863"/>
      <point x="81" y="987" type="qcurve" smooth="yes"/>
    </contour>
  </outline>
</glyph>
<glyph name="uni04C4" format="2">
  <advance width="1126"/>
  <unicode hex="04C4"/>
  <outline>
    <contour>
      <point x="217" y="536" type="line"/>
      <point x="224" y="582" type="line"/>
      <point x="418" y="582" type="line" smooth="yes"/>
      <point x="565" y="582"/>
      <point x="775" y="529"/>
      <point x="903" y="426"/>
      <point x="950" y="274"/>
      <point x="933" y="176" type="qcurve"/>
      <point x="914" y="57"/>
      <point x="785" y="-113"/>
      <point x="594" y="-204"/>
      <point x="480" y="-204" type="qcurve"/>
      <point x="488" y="-158" type="line"/>
      <point x="591" y="-158"/>
      <point x="759" y="-78"/>
      <point x="870" y="73"/>
      <point x="887" y="178" type="qcurve" smooth="yes"/>
      <point x="916" y="353"/>
      <point x="685" y="536"/>
      <point x="411" y="536" type="qcurve" smooth="yes"/>
    </contour>
    <contour>
      <point x="106" y="0" type="line"/>
      <point x="291" y="1118" type="line"/>
      <point x="337" y="1118" type="line"/>
      <point x="248" y="582" type="line"/>
      <point x="379" y="582" type="line"/>
      <point x="966" y="1118" type="line"/>
      <point x="1027" y="1118" type="line"/>
      <point x="391" y="536" type="line"/>
      <point x="241" y="536" type="line"/>
      <point x="152" y="0" type="line"/>
    </contour>
  </outline>
</glyph>
<glyph name="uni04FD" format="2">
  <advance width="913"/>
  <unicode hex="04FD"/>
  <outline>
    <contour>
      <point x="475" y="-416" type="qcurve" smooth="yes"/>
      <point x="455" y="-416"/>
      <point x="420" y="-409"/>
      <point x="409" y="-402" type="qcurve"/>
      <point x="416" y="-360" type="line"/>
      <point x="434" y="-365"/>
      <point x="468" y="-370"/>
      <point x="481" y="-370" type="qcurve" smooth="yes"/>
      <point x="555" y="-370"/>
      <point x="671" y="-258"/>
      <point x="686" y="-170" type="qcurve" smooth="yes"/>
      <point x="693" y="-126"/>
      <point x="677" y="-24"/>
      <point x="623" y="120"/>
      <point x="573" y="226" type="qcurve" smooth="yes"/>
      <point x="437" y="516" type="line"/>
      <point x="24" y="0" type="line"/>
      <point x="-32" y="0" type="line"/>
      <point x="416" y="558" type="line"/>
      <point x="153" y="1118" type="line"/>
      <point x="209" y="1118" type="line"/>
      <point x="451" y="600" type="line"/>
      <point x="865" y="1118" type="line"/>
      <point x="921" y="1118" type="line"/>
      <point x="472" y="558" type="line"/>
      <point x="618" y="252" type="line" smooth="yes"/>
      <point x="695" y="89"/>
      <point x="744" y="-97"/>
      <point x="732" y="-172" type="qcurve" smooth="yes"/>
      <point x="721" y="-241"/>
      <point x="646" y="-352"/>
      <point x="537" y="-416"/>
    </contour>
  </outline>
</glyph>
<glyph name="o.sups" format="2">
  <advance width="794"/>
  <unicode hex="1D52"/>
  <outline>
    <contour>
      <point x="428" y="730" type="qcurve" smooth="yes"/>
      <point x="339" y="730"/>
      <point x="213" y="830"/>
      <point x="159" y="1006"/>
      <point x="178" y="1120" type="qcurve" smooth="yes"/>
      <point x="197" y="1232"/>
      <point x="307" y="1404"/>
      <point x="462" y="1502"/>
      <point x="546" y="1502" type="qcurve" smooth="yes"/>
      <point x="640" y="1502"/>
      <point x="767" y="1398"/>
      <point x="820" y="1223"/>
      <point x="802" y="1114" type="qcurve" smooth="yes"/>
      <point x="785" y="1005"/>
      <point x="677" y="831"/>
      <point x="520" y="730"/>
    </contour>
    <contour>
      <point x="430" y="770" type="qcurve"/>
      <point x="511" y="771"/>
      <point x="648" y="863"/>
      <point x="744" y="1022"/>
      <point x="760" y="1122" type="qcurve" smooth="yes"/>
      <point x="774" y="1211"/>
      <point x="733" y="1364"/>
      <point x="630" y="1458"/>
      <point x="550" y="1458" type="qcurve" smooth="yes"/>
      <point x="472" y="1458"/>
      <point x="334" y="1365"/>
      <point x="238" y="1207"/>
      <point x="222" y="1108" type="qcurve" smooth="yes"/>
      <point x="206" y="1014"/>
      <point x="248" y="861"/>
      <point x="353" y="771"/>
    </contour>
  </outline>
</glyph>
<glyph name="v.sups" format="2">
  <advance width="722"/>
  <unicode hex="1D5B"/>
  <outline>
    <contour>
      <point x="808" y="1490" type="line"/>
      <point x="418" y="744" type="line"/>
      <point x="364" y="744" type="line"/>
      <point x="222" y="1490" type="line"/>
      <point x="268" y="1490" type="line"/>
      <point x="398" y="802" type="line"/>
      <point x="402" y="802" type="line"/>
      <point x="760" y="1490" type="line"/>
    </contour>
  </outline>
</glyph>
<glyph name="uni1DCE" format="2">
  <unicode hex="1DCE"/>
  <outline>
    <contour>
      <point x="-211" y="1514" type="qcurve" smooth="yes"/>
      <point x="-149" y="1514"/>
      <point x="-51" y="1440"/>
      <point x="-65" y="1359" type="qcurve" smooth="yes"/>
      <point x="-78" y="1277"/>
      <point x="-216" y="1138"/>
      <point x="-296" y="1077" type="qcurve"/>
      <point x="-340" y="1088" type="line"/>
      <point x="-256" y="1155"/>
      <point x="-123" y="1289"/>
      <point x="-111" y="1359" type="qcurve" smooth="yes"/>
      <point x="-101" y="1421"/>
      <point x="-176" y="1468"/>
      <point x="-219" y="1468" type="qcurve" smooth="yes"/>
      <point x="-235" y="1468"/>
      <point x="-266" y="1462"/>
      <point x="-280" y="1457" type="qcurve"/>
      <point x="-290" y="1500" type="line"/>
      <point x="-270" y="1507"/>
      <point x="-232" y="1514"/>
    </contour>
  </outline>
</glyph>
<glyph name="uni1DD0" format="2">
  <unicode hex="1DD0"/>
  <outline>
    <contour>
      <point x="-632" y="-76" type="line"/>
      <point x="-584" y="-76" type="line"/>
      <point x="-748" y="-370" type="line"/>
      <point x="-719" y="-356"/>
      <point x="-669" y="-345"/>
      <point x="-646" y="-344" type="qcurve"/>
      <point x="-597" y="-344"/>
      <point x="-519" y="-383"/>
      <point x="-452" y="-422"/>
      <point x="-420" y="-422" type="qcurve" smooth="yes"/>
      <point x="-389" y="-422"/>
      <point x="-325" y="-373"/>
      <point x="-306" y="-334" type="qcurve"/>
      <point x="-264" y="-346" type="line"/>
      <point x="-280" y="-379"/>
      <point x="-332" y="-435"/>
      <point x="-393" y="-468"/>
      <point x="-426" y="-468" type="qcurve" smooth="yes"/>
      <point x="-465" y="-468"/>
      <point x="-535" y="-430"/>
      <point x="-608" y="-391"/>
      <point x="-652" y="-392" type="qcurve"/>
      <point x="-685" y="-391"/>
      <point x="-763" y="-421"/>
      <point x="-816" y="-450" type="qcurve"/>
      <point x="-838" y="-438" type="line"/>
    </contour>
  </outline>
</glyph>
<glyph name="uni1DE7" format="2">
  <unicode hex="1DE7"/>
  <outline>
    <contour>
      <point x="-450" y="1186" type="qcurve"/>
      <point x="-555" y="1187"/>
      <point x="-655" y="1340"/>
      <point x="-642" y="1452" type="qcurve"/>
      <point x="-642" y="1464" type="line"/>
      <point x="-632" y="1551"/>
      <point x="-548" y="1685"/>
      <point x="-424" y="1760"/>
      <point x="-356" y="1760" type="qcurve" smooth="yes"/>
      <point x="-301" y="1760"/>
      <point x="-221" y="1704"/>
      <point x="-184" y="1591"/>
      <point x="-194" y="1506" type="qcurve"/>
      <point x="-206" y="1440" type="line" smooth="yes"/>
      <point x="-223" y="1353"/>
      <point x="-303" y="1241"/>
      <point x="-403" y="1187"/>
    </contour>
    <contour>
      <point x="-450" y="1234" type="qcurve"/>
      <point x="-391" y="1233"/>
      <point x="-279" y="1305"/>
      <point x="-232" y="1382" type="qcurve"/>
      <point x="-204" y="1566" type="line"/>
      <point x="-223" y="1638"/>
      <point x="-308" y="1713"/>
      <point x="-366" y="1714" type="qcurve"/>
      <point x="-417" y="1714"/>
      <point x="-517" y="1648"/>
      <point x="-587" y="1536"/>
      <point x="-594" y="1464" type="qcurve"/>
      <point x="-596" y="1450" type="line"/>
      <point x="-605" y="1362"/>
      <point x="-538" y="1233"/>
    </contour>
    <contour>
      <point x="-168" y="1752" type="line"/>
      <point x="-134" y="1752" type="line"/>
      <point x="-210" y="1288" type="line" smooth="yes"/>
      <point x="-215" y="1258"/>
      <point x="-205" y="1236"/>
      <point x="-186" y="1236" type="qcurve" smooth="yes"/>
      <point x="-180" y="1236"/>
      <point x="-167" y="1239"/>
      <point x="-162" y="1240" type="qcurve"/>
      <point x="-164" y="1198" type="line"/>
      <point x="-178" y="1194"/>
      <point x="-206" y="1190"/>
      <point x="-214" y="1190" type="qcurve" smooth="yes"/>
      <point x="-242" y="1190"/>
      <point x="-267" y="1230"/>
      <point x="-262" y="1262" type="qcurve" smooth="yes"/>
      <point x="-202" y="1626" type="line"/>
    </contour>
  </outline>
</glyph>
<glyph name="uni1DE8" format="2">
  <unicode hex="1DE8"/>
  <outline>
    <contour>
      <point x="-654" y="1202" type="line"/>
      <point x="-520" y="1996" type="line"/>
      <point x="-474" y="1996" type="line"/>
      <point x="-586" y="1318" type="line"/>
      <point x="-616" y="1202" type="line"/>
    </contour>
    <contour>
      <point x="-406" y="1184" type="qcurve" smooth="yes"/>
      <point x="-470" y="1184"/>
      <point x="-562" y="1246"/>
      <point x="-610" y="1365"/>
      <point x="-608" y="1448" type="qcurve"/>
      <point x="-594" y="1506" type="line"/>
      <point x="-559" y="1628"/>
      <point x="-407" y="1760"/>
      <point x="-318" y="1760" type="qcurve" smooth="yes"/>
      <point x="-225" y="1760"/>
      <point x="-119" y="1618"/>
      <point x="-136" y="1478" type="qcurve"/>
      <point x="-138" y="1466" type="line"/>
      <point x="-148" y="1381"/>
      <point x="-228" y="1254"/>
      <point x="-342" y="1184"/>
    </contour>
    <contour>
      <point x="-402" y="1230" type="qcurve"/>
      <point x="-325" y="1231"/>
      <point x="-197" y="1360"/>
      <point x="-184" y="1466" type="qcurve"/>
      <point x="-184" y="1478" type="line"/>
      <point x="-169" y="1597"/>
      <point x="-253" y="1713"/>
      <point x="-322" y="1714" type="qcurve"/>
      <point x="-386" y="1713"/>
      <point x="-514" y="1619"/>
      <point x="-556" y="1534" type="qcurve"/>
      <point x="-578" y="1412" type="line"/>
      <point x="-564" y="1327"/>
      <point x="-472" y="1231"/>
    </contour>
  </outline>
</glyph>
<glyph name="uni1DEE" format="2">
  <unicode hex="1DEE"/>
  <outline>
    <contour>
      <point x="-872" y="1668" type="line"/>
      <point x="-990" y="954" type="line"/>
      <point x="-1034" y="954" type="line"/>
      <point x="-904" y="1748" type="line"/>
      <point x="-870" y="1748" type="line"/>
    </contour>
    <contour>
      <point x="-660" y="1766" type="qcurve" smooth="yes"/>
      <point x="-598" y="1766"/>
      <point x="-508" y="1703"/>
      <point x="-468" y="1578"/>
      <point x="-480" y="1484" type="qcurve"/>
      <point x="-480" y="1472" type="line"/>
      <point x="-496" y="1344"/>
      <point x="-652" y="1190"/>
      <point x="-748" y="1190" type="qcurve" smooth="yes"/>
      <point x="-843" y="1190"/>
      <point x="-952" y="1329"/>
      <point x="-950" y="1454" type="qcurve"/>
      <point x="-938" y="1512" type="line"/>
      <point x="-913" y="1593"/>
      <point x="-828" y="1706"/>
      <point x="-719" y="1766"/>
    </contour>
    <contour>
      <point x="-664" y="1720" type="qcurve"/>
      <point x="-727" y="1719"/>
      <point x="-855" y="1625"/>
      <point x="-898" y="1540" type="qcurve"/>
      <point x="-920" y="1418" type="line"/>
      <point x="-906" y="1333"/>
      <point x="-813" y="1237"/>
      <point x="-744" y="1236" type="qcurve"/>
      <point x="-667" y="1237"/>
      <point x="-541" y="1366"/>
      <point x="-528" y="1472" type="qcurve"/>
      <point x="-526" y="1484" type="line"/>
      <point x="-510" y="1603"/>
      <point x="-594" y="1719"/>
    </contour>
  </outline>
</glyph>
<glyph name="uni1DF0" format="2">
  <unicode hex="1DF0"/>
  <outline>
    <contour>
      <point x="-718" y="1060" type="line"/>
      <point x="-552" y="1280" type="line"/>
      <point x="-516" y="1248" type="line"/>
      <point x="-680" y="1036" type="line"/>
    </contour>
    <contour>
      <point x="-226" y="1324" type="line"/>
      <point x="-156" y="1754" type="line"/>
      <point x="-110" y="1754" type="line"/>
      <point x="-200" y="1202" type="line"/>
      <point x="-234" y="1202" type="line"/>
    </contour>
    <contour>
      <point x="-204" y="1464" type="qcurve"/>
      <point x="-174" y="1466" type="line"/>
      <point x="-194" y="1342"/>
      <point x="-335" y="1193"/>
      <point x="-432" y="1192" type="qcurve"/>
      <point x="-530" y="1193"/>
      <point x="-595" y="1312"/>
      <point x="-574" y="1438" type="qcurve" smooth="yes"/>
      <point x="-522" y="1754" type="line"/>
      <point x="-476" y="1754" type="line"/>
      <point x="-530" y="1434" type="line" smooth="yes"/>
      <point x="-548" y="1325"/>
      <point x="-501" y="1239"/>
      <point x="-418" y="1240" type="qcurve"/>
      <point x="-335" y="1239"/>
      <point x="-221" y="1358"/>
    </contour>
  </outline>
</glyph>
<glyph name="uni1EFC" format="2">
  <advance width="868"/>
  <unicode hex="1EFC"/>
  <outline>
    <contour>
      <point x="450" y="894" type="qcurve"/>
      <point x="470" y="936" type="line"/>
      <point x="586" y="906"/>
      <point x="752" y="765"/>
      <point x="828" y="559"/>
      <point x="806" y="430" type="qcurve" smooth="yes"/>
      <point x="784" y="300"/>
      <point x="653" y="96"/>
      <point x="463" y="-20"/>
      <point x="354" y="-20" type="qcurve" smooth="yes"/>
      <point x="258" y="-20"/>
      <point x="117" y="68"/>
      <point x="36" y="236"/>
      <point x="20" y="475"/>
      <point x="48" y="626" type="qcurve" smooth="yes"/>
      <point x="60" y="690" type="line" smooth="yes"/>
      <point x="88" y="840"/>
      <point x="188" y="1083"/>
      <point x="334" y="1270"/>
      <point x="530" y="1398"/>
      <point x="654" y="1432" type="qcurve"/>
      <point x="662" y="1390" type="line"/>
      <point x="545" y="1356"/>
      <point x="362" y="1231"/>
      <point x="224" y="1052"/>
      <point x="131" y="815"/>
      <point x="104" y="668" type="qcurve" smooth="yes"/>
      <point x="94" y="612" type="line" smooth="yes"/>
      <point x="59" y="427"/>
      <point x="102" y="164"/>
      <point x="247" y="26"/>
      <point x="364" y="26" type="qcurve" smooth="yes"/>
      <point x="456" y="26"/>
      <point x="623" y="133"/>
      <point x="741" y="317"/>
      <point x="760" y="430" type="qcurve" smooth="yes"/>
      <point x="780" y="552"/>
      <point x="715" y="735"/>
      <point x="562" y="861"/>
    </contour>
  </outline>
</glyph>
<glyph name="uni1EFD" format="2">
  <advance width="848"/>
  <unicode hex="1EFD"/>
  <outline>
    <contour>
      <point x="434" y="894" type="qcurve"/>
      <point x="454" y="936" type="line"/>
      <point x="576" y="904"/>
      <point x="740" y="757"/>
      <point x="810" y="551"/>
      <point x="790" y="430" type="qcurve" smooth="yes"/>
      <point x="768" y="300"/>
      <point x="636" y="96"/>
      <point x="447" y="-20"/>
      <point x="338" y="-20" type="qcurve" smooth="yes"/>
      <point x="240" y="-20"/>
      <point x="99" y="70"/>
      <point x="19" y="240"/>
      <point x="4" y="478"/>
      <point x="32" y="626" type="qcurve" smooth="yes"/>
      <point x="44" y="690" type="line" smooth="yes"/>
      <point x="70" y="833"/>
      <point x="167" y="1081"/>
      <point x="310" y="1293"/>
      <point x="500" y="1470"/>
      <point x="618" y="1542" type="qcurve"/>
      <point x="638" y="1502" type="line"/>
      <point x="519" y="1424"/>
      <point x="336" y="1250"/>
      <point x="203" y="1049"/>
      <point x="114" y="810"/>
      <point x="88" y="668" type="qcurve" smooth="yes"/>
      <point x="78" y="612" type="line" smooth="yes"/>
      <point x="43" y="429"/>
      <point x="85" y="167"/>
      <point x="229" y="26"/>
      <point x="348" y="26" type="qcurve" smooth="yes"/>
      <point x="440" y="26"/>
      <point x="606" y="134"/>
      <point x="725" y="317"/>
      <point x="744" y="430" type="qcurve"/>
      <point x="762" y="545"/>
      <point x="703" y="728"/>
      <point x="553" y="859"/>
    </contour>
  </outline>
</glyph>
<glyph name="uni1FBF" format="2">
  <advance width="386"/>
  <unicode hex="1FBF"/>
  <outline>
    <contour>
      <point x="247" y="1272" type="qcurve" smooth="yes"/>
      <point x="231" y="1272" type="line"/>
      <point x="238" y="1318" type="line"/>
      <point x="254" y="1318" type="line" smooth="yes"/>
      <point x="313" y="1318"/>
      <point x="395" y="1378"/>
      <point x="403" y="1424" type="qcurve" smooth="yes"/>
      <point x="411" y="1471"/>
      <point x="346" y="1519"/>
      <point x="287" y="1519" type="qcurve" smooth="yes"/>
      <point x="239" y="1519" type="line"/>
      <point x="247" y="1565" type="line"/>
      <point x="295" y="1565" type="line" smooth="yes"/>
      <point x="373" y="1565"/>
      <point x="460" y="1492"/>
      <point x="449" y="1424" type="qcurve" smooth="yes"/>
      <point x="438" y="1357"/>
      <point x="325" y="1272"/>
    </contour>
  </outline>
</glyph>
<glyph name="uni1FDF" format="2">
  <advance width="555"/>
  <unicode hex="1FDF"/>
  <outline>
    <contour>
      <point x="460" y="1272" type="line" smooth="yes"/>
      <point x="382" y="1272"/>
      <point x="297" y="1357"/>
      <point x="308" y="1424" type="qcurve" smooth="yes"/>
      <point x="319" y="1492"/>
      <point x="430" y="1565"/>
      <point x="508" y="1565" type="qcurve" smooth="yes"/>
      <point x="556" y="1565" type="line"/>
      <point x="548" y="1519" type="line"/>
      <point x="500" y="1519" type="line" smooth="yes"/>
      <point x="442" y="1519"/>
      <point x="362" y="1471"/>
      <point x="354" y="1424" type="qcurve" smooth="yes"/>
      <point x="346" y="1378"/>
      <point x="409" y="1318"/>
      <point x="467" y="1318" type="qcurve" smooth="yes"/>
      <point x="483" y="1318" type="line"/>
      <point x="476" y="1272" type="line"/>
    </contour>
    <contour>
      <point x="592" y="1678" type="qcurve" smooth="yes"/>
      <point x="550" y="1678"/>
      <point x="494" y="1714"/>
      <point x="449" y="1760"/>
      <point x="401" y="1796"/>
      <point x="366" y="1796" type="qcurve" smooth="yes"/>
      <point x="317" y="1796"/>
      <point x="245" y="1737"/>
      <point x="232" y="1685" type="qcurve"/>
      <point x="186" y="1685" type="line"/>
      <point x="203" y="1753"/>
      <point x="302" y="1842"/>
      <point x="366" y="1842" type="qcurve" smooth="yes"/>
      <point x="413" y="1842"/>
      <point x="472" y="1806"/>
      <point x="516" y="1760"/>
      <point x="560" y="1724"/>
      <point x="591" y="1724" type="qcurve" smooth="yes"/>
      <point x="634" y="1724"/>
      <point x="697" y="1774"/>
      <point x="719" y="1831" type="qcurve"/>
      <point x="766" y="1831" type="line"/>
      <point x="742" y="1760"/>
      <point x="649" y="1678"/>
    </contour>
  </outline>
</glyph>
<glyph name="uni1FED" format="2">
  <advance width="1028"/>
  <unicode hex="1FED"/>
  <outline>
    <contour>
      <point x="481" y="1373" type="qcurve" smooth="yes"/>
      <point x="462" y="1373"/>
      <point x="439" y="1401"/>
      <point x="442" y="1420" type="qcurve" smooth="yes"/>
      <point x="445" y="1440"/>
      <point x="478" y="1467"/>
      <point x="497" y="1467" type="qcurve" smooth="yes"/>
      <point x="517" y="1467"/>
      <point x="539" y="1440"/>
      <point x="536" y="1420" type="qcurve" smooth="yes"/>
      <point x="533" y="1401"/>
      <point x="501" y="1373"/>
    </contour>
    <contour>
      <point x="885" y="1373" type="qcurve" smooth="yes"/>
      <point x="866" y="1373"/>
      <point x="843" y="1401"/>
      <point x="846" y="1420" type="qcurve" smooth="yes"/>
      <point x="849" y="1440"/>
      <point x="882" y="1467"/>
      <point x="901" y="1467" type="qcurve" smooth="yes"/>
      <point x="921" y="1467"/>
      <point x="943" y="1440"/>
      <point x="940" y="1420" type="qcurve" smooth="yes"/>
      <point x="937" y="1401"/>
      <point x="905" y="1373"/>
    </contour>
    <contour>
      <point x="709" y="1420" type="line"/>
      <point x="673" y="1420" type="line"/>
      <point x="667" y="1694" type="line"/>
      <point x="716" y="1694" type="line"/>
    </contour>
  </outline>
</glyph>
<glyph name="uni1FFD" format="2">
  <advance width="327"/>
  <unicode hex="1FFD"/>
  <outline>
    <contour>
      <point x="240" y="1283" type="line"/>
      <point x="324" y="1557" type="line"/>
      <point x="373" y="1557" type="line"/>
      <point x="276" y="1283" type="line"/>
    </contour>
  </outline>
</glyph>
<glyph name="uni203B" format="2">
  <advance width="896"/>
  <unicode hex="203B"/>
  <outline>
    <contour>
      <point x="56" y="272" type="line"/>
      <point x="28" y="308" type="line"/>
      <point x="916" y="1102" type="line"/>
      <point x="944" y="1064" type="line"/>
    </contour>
    <contour>
      <point x="782" y="276" type="line"/>
      <point x="156" y="1070" type="line"/>
      <point x="190" y="1102" type="line"/>
      <point x="816" y="306" type="line"/>
    </contour>
    <contour>
      <point x="52" y="706" type="qcurve"/>
      <point x="56" y="730"/>
      <point x="90" y="772"/>
      <point x="124" y="770" type="qcurve"/>
      <point x="160" y="770"/>
      <point x="177" y="730"/>
      <point x="174" y="706" type="qcurve"/>
      <point x="172" y="681"/>
      <point x="139" y="640"/>
      <point x="104" y="640" type="qcurve" smooth="yes"/>
      <point x="67" y="640"/>
      <point x="49" y="681"/>
    </contour>
    <contour>
      <point x="348" y="306" type="qcurve"/>
      <point x="350" y="330"/>
      <point x="384" y="372"/>
      <point x="418" y="370" type="qcurve"/>
      <point x="455" y="370"/>
      <point x="473" y="330"/>
      <point x="470" y="306" type="qcurve"/>
      <point x="466" y="281"/>
      <point x="433" y="240"/>
      <point x="398" y="240" type="qcurve" smooth="yes"/>
      <point x="362" y="240"/>
      <point x="345" y="281"/>
    </contour>
    <contour>
      <point x="474" y="1072" type="qcurve"/>
      <point x="478" y="1095"/>
      <point x="512" y="1137"/>
      <point x="546" y="1136" type="qcurve" smooth="yes"/>
      <point x="581" y="1135"/>
      <point x="600" y="1095"/>
      <point x="596" y="1072" type="qcurve"/>
      <point x="593" y="1047"/>
      <point x="560" y="1005"/>
      <point x="524" y="1006" type="qcurve"/>
      <point x="488" y="1005"/>
      <point x="471" y="1047"/>
    </contour>
    <contour>
      <point x="772" y="706" type="qcurve"/>
      <point x="776" y="730"/>
      <point x="810" y="772"/>
      <point x="844" y="770" type="qcurve"/>
      <point x="880" y="770"/>
      <point x="897" y="730"/>
      <point x="894" y="706" type="qcurve"/>
      <point x="892" y="681"/>
      <point x="859" y="640"/>
      <point x="824" y="640" type="qcurve" smooth="yes"/>
      <point x="787" y="640"/>
      <point x="769" y="681"/>
    </contour>
  </outline>
</glyph>
<glyph name="uni204D" format="2">
  <advance width="1274"/>
  <unicode hex="204D"/>
  <outline>
    <contour>
      <point x="533" y="212" type="qcurve" smooth="yes"/>
      <point x="233" y="212" type="line"/>
      <point x="241" y="258" type="line"/>
      <point x="427" y="258" type="line"/>
      <point x="538" y="928" type="line"/>
      <point x="352" y="928" type="line"/>
      <point x="359" y="974" type="line"/>
      <point x="659" y="974" type="line" smooth="yes"/>
      <point x="855" y="974"/>
      <point x="1029" y="765"/>
      <point x="1000" y="594" type="qcurve" smooth="yes"/>
      <point x="981" y="479"/>
      <point x="859" y="308"/>
      <point x="664" y="212"/>
    </contour>
    <contour>
      <point x="281" y="212" type="line"/>
      <point x="233" y="212" type="line"/>
      <point x="359" y="974" type="line"/>
      <point x="407" y="974" type="line"/>
    </contour>
  </outline>
</glyph>
<glyph name="uni204F" format="2">
  <advance width="561"/>
  <unicode hex="204F"/>
  <outline>
    <contour>
      <point x="252" y="-298" type="line"/>
      <point x="211" y="-298" type="line"/>
      <point x="176" y="152" type="line"/>
      <point x="226" y="152" type="line"/>
    </contour>
    <contour>
      <point x="342" y="955" type="qcurve" smooth="yes"/>
      <point x="320" y="955"/>
      <point x="294" y="986"/>
      <point x="298" y="1008" type="qcurve" smooth="yes"/>
      <point x="302" y="1030"/>
      <point x="338" y="1061"/>
      <point x="360" y="1061" type="qcurve" smooth="yes"/>
      <point x="382" y="1061"/>
      <point x="408" y="1030"/>
      <point x="404" y="1008" type="qcurve" smooth="yes"/>
      <point x="400" y="986"/>
      <point x="364" y="955"/>
    </contour>
  </outline>
</glyph>
<glyph name="uni2050" format="2">
  <advance width="1582"/>
  <unicode hex="2050"/>
  <outline>
    <contour>
      <point x="974" y="1552" type="qcurve"/>
      <point x="1121" y="1551"/>
      <point x="1362" y="1487"/>
      <point x="1555" y="1353"/>
      <point x="1630" y="1246" type="qcurve"/>
      <point x="1590" y="1228" type="line"/>
      <point x="1521" y="1320"/>
      <point x="1344" y="1442"/>
      <point x="1122" y="1504"/>
      <point x="982" y="1504" type="qcurve"/>
      <point x="773" y="1506"/>
      <point x="434" y="1365"/>
      <point x="284" y="1228" type="qcurve"/>
      <point x="250" y="1246" type="line"/>
      <point x="366" y="1359"/>
      <point x="594" y="1493"/>
      <point x="836" y="1552"/>
    </contour>
    <contour>
      <point x="630" y="-478" type="qcurve"/>
      <point x="483" y="-477"/>
      <point x="242" y="-413"/>
      <point x="50" y="-278"/>
      <point x="-26" y="-172" type="qcurve"/>
      <point x="14" y="-154" type="line"/>
      <point x="118" y="-291"/>
      <point x="413" y="-429"/>
      <point x="622" y="-430" type="qcurve" smooth="yes"/>
      <point x="762" y="-431"/>
      <point x="1004" y="-369"/>
      <point x="1220" y="-245"/>
      <point x="1320" y="-154" type="qcurve"/>
      <point x="1354" y="-172" type="line"/>
      <point x="1238" y="-284"/>
      <point x="1010" y="-419"/>
      <point x="768" y="-478"/>
    </contour>
  </outline>
</glyph>
<glyph name="uni2052" format="2">
  <advance width="1441"/>
  <unicode hex="2052"/>
  <outline>
    <contour>
      <point x="1047" y="248" type="qcurve" smooth="yes"/>
      <point x="981" y="248"/>
      <point x="903" y="342"/>
      <point x="914" y="408" type="qcurve" smooth="yes"/>
      <point x="921" y="452"/>
      <point x="976" y="525"/>
      <point x="1056" y="568"/>
      <point x="1100" y="568" type="qcurve" smooth="yes"/>
      <point x="1166" y="568"/>
      <point x="1245" y="474"/>
      <point x="1234" y="408" type="qcurve" smooth="yes"/>
      <point x="1227" y="364"/>
      <point x="1171" y="291"/>
      <point x="1091" y="248"/>
    </contour>
    <contour>
      <point x="403" y="922" type="qcurve" smooth="yes"/>
      <point x="337" y="922"/>
      <point x="259" y="1016"/>
      <point x="269" y="1082" type="qcurve"/>
      <point x="277" y="1126"/>
      <point x="332" y="1199"/>
      <point x="412" y="1242"/>
      <point x="456" y="1242" type="qcurve" smooth="yes"/>
      <point x="522" y="1242"/>
      <point x="600" y="1148"/>
      <point x="589" y="1082" type="qcurve" smooth="yes"/>
      <point x="582" y="1038"/>
      <point x="527" y="965"/>
      <point x="447" y="922"/>
    </contour>
    <contour>
      <point x="90" y="0" type="line"/>
      <point x="1357" y="1490" type="line"/>
      <point x="1413" y="1490" type="line"/>
      <point x="144" y="0" type="line"/>
    </contour>
  </outline>
</glyph>
<glyph name="five.sups" format="2">
  <advance width="788"/>
  <unicode hex="2075"/>
  <outline>
    <contour>
      <point x="422" y="734" type="qcurve" smooth="yes"/>
      <point x="342" y="734"/>
      <point x="232" y="795"/>
      <point x="182" y="902"/>
      <point x="192" y="968" type="qcurve"/>
      <point x="238" y="968" type="line"/>
      <point x="225" y="883"/>
      <point x="327" y="777"/>
      <point x="424" y="776" type="qcurve"/>
      <point x="536" y="777"/>
      <point x="708" y="916"/>
      <point x="728" y="1026" type="qcurve"/>
      <point x="745" y="1132"/>
      <point x="623" y="1268"/>
      <point x="512" y="1268" type="qcurve" smooth="yes"/>
      <point x="460" y="1268"/>
      <point x="351" y="1233"/>
      <point x="312" y="1204" type="qcurve"/>
      <point x="256" y="1214" type="line"/>
      <point x="386" y="1638" type="line"/>
      <point x="838" y="1638" type="line"/>
      <point x="832" y="1594" type="line"/>
      <point x="418" y="1594" type="line"/>
      <point x="312" y="1248" type="line"/>
      <point x="318" y="1248" type="line"/>
      <point x="359" y="1279"/>
      <point x="463" y="1312"/>
      <point x="518" y="1312" type="qcurve" smooth="yes"/>
      <point x="604" y="1312"/>
      <point x="728" y="1239"/>
      <point x="785" y="1107"/>
      <point x="770" y="1018" type="qcurve"/>
      <point x="758" y="940"/>
      <point x="659" y="810"/>
      <point x="511" y="734"/>
    </contour>
  </outline>
</glyph>
<glyph name="eight.sups" format="2">
  <advance width="824"/>
  <unicode hex="2078"/>
  <outline>
    <contour>
      <point x="442" y="734" type="qcurve" smooth="yes"/>
      <point x="355" y="734"/>
      <point x="223" y="799"/>
      <point x="157" y="910"/>
      <point x="168" y="978" type="qcurve" smooth="yes"/>
      <point x="182" y="1058"/>
      <point x="317" y="1188"/>
      <point x="414" y="1208" type="qcurve"/>
      <point x="414" y="1210" type="line"/>
      <point x="341" y="1232"/>
      <point x="263" y="1351"/>
      <point x="276" y="1422" type="qcurve" smooth="yes"/>
      <point x="287" y="1484"/>
      <point x="376" y="1587"/>
      <point x="511" y="1650"/>
      <point x="590" y="1650" type="qcurve" smooth="yes"/>
      <point x="669" y="1650"/>
      <point x="788" y="1588"/>
      <point x="846" y="1484"/>
      <point x="834" y="1420" type="qcurve" smooth="yes"/>
      <point x="821" y="1346"/>
      <point x="706" y="1232"/>
      <point x="626" y="1210" type="qcurve"/>
      <point x="626" y="1208" type="line"/>
      <point x="713" y="1190"/>
      <point x="808" y="1057"/>
      <point x="794" y="974" type="qcurve" smooth="yes"/>
      <point x="783" y="906"/>
      <point x="681" y="797"/>
      <point x="530" y="734"/>
    </contour>
    <contour>
      <point x="442" y="776" type="qcurve"/>
      <point x="519" y="777"/>
      <point x="652" y="832"/>
      <point x="740" y="926"/>
      <point x="750" y="984" type="qcurve" smooth="yes"/>
      <point x="764" y="1067"/>
      <point x="637" y="1187"/>
      <point x="524" y="1186" type="qcurve"/>
      <point x="451" y="1187"/>
      <point x="316" y="1131"/>
      <point x="225" y="1037"/>
      <point x="216" y="980" type="qcurve"/>
      <point x="200" y="893"/>
      <point x="327" y="777"/>
    </contour>
    <contour>
      <point x="514" y="1224" type="qcurve"/>
      <point x="579" y="1225"/>
      <point x="699" y="1279"/>
      <point x="783" y="1369"/>
      <point x="792" y="1422" type="qcurve" smooth="yes"/>
      <point x="805" y="1495"/>
      <point x="696" y="1609"/>
      <point x="594" y="1608" type="qcurve"/>
      <point x="529" y="1609"/>
      <point x="411" y="1558"/>
      <point x="331" y="1475"/>
      <point x="322" y="1426" type="qcurve"/>
      <point x="308" y="1336"/>
      <point x="419" y="1225"/>
    </contour>
  </outline>
</glyph>
<glyph name="minus.sups" format="2">
  <advance width="866"/>
  <unicode hex="207B"/>
  <outline>
    <contour>
      <point x="818" y="1134" type="line"/>
      <point x="808" y="1088" type="line"/>
      <point x="238" y="1088" type="line"/>
      <point x="248" y="1134" type="line"/>
    </contour>
  </outline>
</glyph>
<glyph name="uni2094" format="2">
  <advance width="836"/>
  <unicode hex="2094"/>
  <outline>
    <contour>
      <point x="394" y="396" type="qcurve" smooth="yes"/>
      <point x="504" y="396"/>
      <point x="649" y="294"/>
      <point x="707" y="108"/>
      <point x="684" y="-18" type="qcurve"/>
      <point x="680" y="-34" type="line"/>
      <point x="658" y="-155"/>
      <point x="545" y="-335"/>
      <point x="378" y="-433"/>
      <point x="274" y="-434" type="qcurve"/>
      <point x="175" y="-433"/>
      <point x="42" y="-335"/>
      <point x="-14" y="-161"/>
      <point x="2" y="-46" type="qcurve"/>
      <point x="8" y="-12" type="line"/>
      <point x="658" y="-12" type="line"/>
      <point x="652" y="-56" type="line"/>
      <point x="46" y="-56" type="line"/>
      <point x="46" y="-56" type="line"/>
      <point x="21" y="-209"/>
      <point x="149" y="-390"/>
      <point x="282" y="-390" type="qcurve" smooth="yes"/>
      <point x="369" y="-390"/>
      <point x="516" y="-299"/>
      <point x="617" y="-139"/>
      <point x="634" y="-34" type="qcurve"/>
      <point x="638" y="-18" type="line"/>
      <point x="667" y="161"/>
      <point x="537" y="355"/>
      <point x="388" y="354" type="qcurve"/>
      <point x="306" y="355"/>
      <point x="162" y="283"/>
      <point x="108" y="218" type="qcurve"/>
      <point x="78" y="242" type="line"/>
      <point x="130" y="313"/>
      <point x="293" y="396"/>
    </contour>
  </outline>
</glyph>
<glyph name="peseta" format="2">
  <advance width="2094"/>
  <unicode hex="20A7"/>
  <outline>
    <contour>
      <point x="504" y="678" type="qcurve" smooth="yes"/>
      <point x="264" y="678" type="line"/>
      <point x="274" y="724" type="line"/>
      <point x="512" y="724" type="line" smooth="yes"/>
      <point x="624" y="724"/>
      <point x="813" y="808"/>
      <point x="940" y="969"/>
      <point x="958" y="1082" type="qcurve"/>
      <point x="977" y="1190"/>
      <point x="908" y="1352"/>
      <point x="752" y="1443"/>
      <point x="640" y="1442" type="qcurve"/>
      <point x="424" y="1442" type="line"/>
      <point x="186" y="0" type="line"/>
      <point x="140" y="0" type="line"/>
      <point x="386" y="1490" type="line"/>
      <point x="648" y="1490" type="line" smooth="yes"/>
      <point x="774" y="1490"/>
      <point x="948" y="1387"/>
      <point x="1026" y="1204"/>
      <point x="1006" y="1082" type="qcurve" smooth="yes"/>
      <point x="985" y="956"/>
      <point x="841" y="775"/>
      <point x="629" y="678"/>
    </contour>
    <contour>
      <point x="1966" y="882" type="qcurve"/>
      <point x="1918" y="870" type="line"/>
      <point x="1908" y="944"/>
      <point x="1854" y="1040"/>
      <point x="1766" y="1088"/>
      <point x="1704" y="1088" type="qcurve" smooth="yes"/>
      <point x="1593" y="1088"/>
      <point x="1437" y="950"/>
      <point x="1418" y="840" type="qcurve"/>
      <point x="1409" y="781"/>
      <point x="1437" y="695"/>
      <point x="1509" y="634"/>
      <point x="1566" y="610" type="qcurve" smooth="yes"/>
      <point x="1672" y="566" type="line" smooth="yes"/>
      <point x="1727" y="544"/>
      <point x="1811" y="487"/>
      <point x="1865" y="417"/>
      <point x="1885" y="333"/>
      <point x="1876" y="282" type="qcurve" smooth="yes"/>
      <point x="1865" y="212"/>
      <point x="1795" y="100"/>
      <point x="1694" y="20"/>
      <point x="1574" y="-24"/>
      <point x="1512" y="-24" type="qcurve"/>
      <point x="1436" y="-23"/>
      <point x="1314" y="44"/>
      <point x="1239" y="169"/>
      <point x="1234" y="256" type="qcurve"/>
      <point x="1282" y="268" type="line"/>
      <point x="1286" y="187"/>
      <point x="1346" y="78"/>
      <point x="1447" y="24"/>
      <point x="1510" y="24" type="qcurve" smooth="yes"/>
      <point x="1582" y="24"/>
      <point x="1720" y="89"/>
      <point x="1818" y="206"/>
      <point x="1830" y="282" type="qcurve" smooth="yes"/>
      <point x="1840" y="342"/>
      <point x="1806" y="429"/>
      <point x="1721" y="494"/>
      <point x="1654" y="520" type="qcurve"/>
      <point x="1548" y="564" type="line" smooth="yes"/>
      <point x="1485" y="591"/>
      <point x="1397" y="669"/>
      <point x="1361" y="780"/>
      <point x="1374" y="856" type="qcurve" smooth="yes"/>
      <point x="1388" y="937"/>
      <point x="1481" y="1062"/>
      <point x="1619" y="1135"/>
      <point x="1702" y="1134" type="qcurve"/>
      <point x="1815" y="1135"/>
      <point x="1947" y="1006"/>
    </contour>
    <contour>
      <point x="1534" y="1118" type="line"/>
      <point x="1526" y="1070" type="line"/>
      <point x="974" y="1070" type="line"/>
      <point x="984" y="1118" type="line"/>
    </contour>
    <contour>
      <point x="1234" y="1384" type="line"/>
      <point x="1280" y="1384" type="line"/>
      <point x="1090" y="236" type="line"/>
      <point x="1080" y="171"/>
      <point x="1122" y="76"/>
      <point x="1209" y="26"/>
      <point x="1266" y="26" type="qcurve" smooth="yes"/>
      <point x="1286" y="26"/>
      <point x="1322" y="34"/>
      <point x="1344" y="40" type="qcurve"/>
      <point x="1350" y="-2" type="line"/>
      <point x="1326" y="-12"/>
      <point x="1283" y="-20"/>
      <point x="1256" y="-20" type="qcurve" smooth="yes"/>
      <point x="1188" y="-20"/>
      <point x="1083" y="43"/>
      <point x="1031" y="158"/>
      <point x="1044" y="236" type="qcurve" smooth="yes"/>
    </contour>
  </outline>
</glyph>
<glyph name="uni20AF" format="2">
  <advance width="2394"/>
  <unicode hex="20AF"/>
  <outline>
    <contour>
      <point x="808" y="0" type="qcurve"/>
      <point x="824" y="46" type="line"/>
      <point x="953" y="47"/>
      <point x="1181" y="226"/>
      <point x="1345" y="543"/>
      <point x="1378" y="750" type="qcurve"/>
      <point x="1380" y="760" type="line"/>
      <point x="1418" y="988"/>
      <point x="1311" y="1302"/>
      <point x="1029" y="1464"/>
      <point x="804" y="1464" type="qcurve" smooth="yes"/>
      <point x="717" y="1464"/>
      <point x="528" y="1440"/>
      <point x="347" y="1398"/>
      <point x="270" y="1368" type="qcurve"/>
      <point x="278" y="1414" type="line"/>
      <point x="394" y="1458"/>
      <point x="682" y="1510"/>
      <point x="812" y="1510" type="qcurve" smooth="yes"/>
      <point x="988" y="1510"/>
      <point x="1245" y="1410"/>
      <point x="1403" y="1217"/>
      <point x="1456" y="939"/>
      <point x="1426" y="762" type="qcurve"/>
      <point x="1426" y="750" type="line"/>
      <point x="1389" y="524"/>
      <point x="1210" y="187"/>
      <point x="958" y="0"/>
    </contour>
    <contour>
      <point x="686" y="1676" type="line"/>
      <point x="458" y="302" type="line" smooth="yes"/>
      <point x="444" y="214"/>
      <point x="389" y="91"/>
      <point x="314" y="15"/>
      <point x="227" y="-20"/>
      <point x="180" y="-20" type="qcurve" smooth="yes"/>
      <point x="86" y="-20"/>
      <point x="-20" y="106"/>
      <point x="-2" y="206" type="qcurve"/>
      <point x="16" y="318"/>
      <point x="168" y="433"/>
      <point x="250" y="434" type="qcurve"/>
      <point x="323" y="434"/>
      <point x="422" y="355"/>
      <point x="504" y="240"/>
      <point x="596" y="125"/>
      <point x="726" y="46"/>
      <point x="824" y="46" type="qcurve"/>
      <point x="808" y="0" type="line"/>
      <point x="708" y="0"/>
      <point x="574" y="78"/>
      <point x="480" y="193"/>
      <point x="401" y="309"/>
      <point x="311" y="386"/>
      <point x="246" y="386" type="qcurve"/>
      <point x="177" y="387"/>
      <point x="58" y="288"/>
      <point x="42" y="202" type="qcurve"/>
      <point x="29" y="123"/>
      <point x="104" y="26"/>
      <point x="178" y="26" type="qcurve" smooth="yes"/>
      <point x="270" y="26"/>
      <point x="392" y="175"/>
      <point x="414" y="314" type="qcurve"/>
      <point x="638" y="1676" type="line"/>
    </contour>
    <contour>
      <point x="1338" y="-418" type="line"/>
      <point x="1500" y="556" type="line" smooth="yes"/>
      <point x="1529" y="732"/>
      <point x="1680" y="992"/>
      <point x="1898" y="1135"/>
      <point x="2026" y="1134" type="qcurve"/>
      <point x="2125" y="1134"/>
      <point x="2269" y="1048"/>
      <point x="2356" y="891"/>
      <point x="2381" y="680"/>
      <point x="2360" y="556" type="qcurve"/>
      <point x="2360" y="552" type="line"/>
      <point x="2333" y="389"/>
      <point x="2184" y="128"/>
      <point x="1967" y="-23"/>
      <point x="1838" y="-24" type="qcurve"/>
      <point x="1746" y="-23"/>
      <point x="1600" y="55"/>
      <point x="1509" y="198"/>
      <point x="1498" y="294" type="qcurve"/>
      <point x="1534" y="526" type="line"/>
      <point x="1522" y="418"/>
      <point x="1551" y="235"/>
      <point x="1630" y="99"/>
      <point x="1756" y="24"/>
      <point x="1842" y="24" type="qcurve" smooth="yes"/>
      <point x="1959" y="24"/>
      <point x="2154" y="163"/>
      <point x="2288" y="402"/>
      <point x="2312" y="552" type="qcurve"/>
      <point x="2314" y="556" type="line"/>
      <point x="2339" y="707"/>
      <point x="2286" y="948"/>
      <point x="2137" y="1088"/>
      <point x="2018" y="1088" type="qcurve" smooth="yes"/>
      <point x="1897" y="1088"/>
      <point x="1702" y="952"/>
      <point x="1572" y="712"/>
      <point x="1546" y="556" type="qcurve" smooth="yes"/>
      <point x="1384" y="-418" type="line"/>
    </contour>
  </outline>
</glyph>
<glyph name="uni20B1" format="2">
  <advance width="1269"/>
  <unicode hex="20B1"/>
  <outline>
    <contour>
      <point x="140" y="0" type="line"/>
      <point x="387" y="1490" type="line"/>
      <point x="801" y="1490" type="line" smooth="yes"/>
      <point x="998" y="1490"/>
      <point x="1184" y="1229"/>
      <point x="1147" y="1006" type="qcurve" smooth="yes"/>
      <point x="1123" y="859"/>
      <point x="982" y="641"/>
      <point x="771" y="522"/>
      <point x="640" y="522" type="qcurve" smooth="yes"/>
      <point x="250" y="522" type="line"/>
      <point x="258" y="568" type="line"/>
      <point x="648" y="568" type="line" smooth="yes"/>
      <point x="767" y="568"/>
      <point x="955" y="676"/>
      <point x="1079" y="873"/>
      <point x="1101" y="1006" type="qcurve" smooth="yes"/>
      <point x="1123" y="1141"/>
      <point x="1065" y="1337"/>
      <point x="912" y="1444"/>
      <point x="793" y="1444" type="qcurve" smooth="yes"/>
      <point x="425" y="1444" type="line"/>
      <point x="186" y="0" type="line"/>
    </contour>
    <contour>
      <point x="121" y="827" type="line"/>
      <point x="129" y="873" type="line"/>
      <point x="1281" y="873" type="line"/>
      <point x="1273" y="827" type="line"/>
    </contour>
    <contour>
      <point x="173" y="1139" type="line"/>
      <point x="180" y="1185" type="line"/>
      <point x="1332" y="1185" type="line"/>
      <point x="1325" y="1139" type="line"/>
    </contour>
  </outline>
</glyph>
<glyph name="uni20B4" format="2">
  <advance width="1042"/>
  <unicode hex="20B4"/>
  <outline>
    <contour>
      <point x="654" y="1462" type="qcurve" smooth="yes"/>
      <point x="493" y="1462"/>
      <point x="293" y="1303"/>
      <point x="258" y="1160" type="qcurve"/>
      <point x="212" y="1160" type="line"/>
      <point x="239" y="1273"/>
      <point x="355" y="1428"/>
      <point x="536" y="1508"/>
      <point x="658" y="1508" type="qcurve" smooth="yes"/>
      <point x="782" y="1508"/>
      <point x="943" y="1425"/>
      <point x="1012" y="1280"/>
      <point x="996" y="1186" type="qcurve" smooth="yes"/>
      <point x="981" y="1100"/>
      <point x="887" y="973"/>
      <point x="830" y="928" type="qcurve"/>
      <point x="770" y="928" type="line"/>
      <point x="823" y="967"/>
      <point x="937" y="1117"/>
      <point x="952" y="1206" type="qcurve"/>
      <point x="969" y="1317"/>
      <point x="819" y="1462"/>
    </contour>
    <contour>
      <point x="1064" y="916" type="line"/>
      <point x="94" y="916" type="line"/>
      <point x="100" y="962" type="line"/>
      <point x="1072" y="962" type="line"/>
    </contour>
    <contour>
      <point x="1000" y="536" type="line"/>
      <point x="30" y="536" type="line"/>
      <point x="38" y="582" type="line"/>
      <point x="1010" y="582" type="line"/>
    </contour>
    <contour>
      <point x="422" y="-24" type="qcurve"/>
      <point x="238" y="-23"/>
      <point x="47" y="164"/>
      <point x="72" y="318" type="qcurve"/>
      <point x="81" y="365"/>
      <point x="116" y="450"/>
      <point x="170" y="526"/>
      <point x="206" y="558" type="qcurve"/>
      <point x="264" y="558" type="line"/>
      <point x="211" y="517"/>
      <point x="130" y="377"/>
      <point x="118" y="306" type="qcurve" smooth="yes"/>
      <point x="97" y="175"/>
      <point x="261" y="23"/>
      <point x="424" y="24" type="qcurve"/>
      <point x="587" y="23"/>
      <point x="802" y="182"/>
      <point x="834" y="326" type="qcurve"/>
      <point x="882" y="326" type="line"/>
      <point x="857" y="213"/>
      <point x="733" y="57"/>
      <point x="545" y="-23"/>
    </contour>
  </outline>
</glyph>
<glyph name="uni20BC" format="2">
  <advance width="1392"/>
  <unicode hex="20BC"/>
  <outline>
    <contour>
      <point x="1122" y="0" type="line"/>
      <point x="1076" y="0" type="line"/>
      <point x="1110" y="198" type="line" smooth="yes"/>
      <point x="1146" y="413"/>
      <point x="1067" y="691"/>
      <point x="877" y="826"/>
      <point x="744" y="826" type="qcurve" smooth="yes"/>
      <point x="607" y="826"/>
      <point x="367" y="690"/>
      <point x="194" y="411"/>
      <point x="158" y="198" type="qcurve"/>
      <point x="126" y="0" type="line"/>
      <point x="78" y="0" type="line"/>
      <point x="112" y="200" type="line" smooth="yes"/>
      <point x="150" y="421"/>
      <point x="331" y="720"/>
      <point x="589" y="873"/>
      <point x="742" y="872" type="qcurve"/>
      <point x="897" y="873"/>
      <point x="1108" y="717"/>
      <point x="1192" y="417"/>
      <point x="1156" y="200" type="qcurve" smooth="yes"/>
    </contour>
    <contour>
      <point x="810" y="1118" type="line"/>
      <point x="624" y="0" type="line"/>
      <point x="578" y="0" type="line"/>
      <point x="764" y="1118" type="line"/>
    </contour>
  </outline>
</glyph>
<glyph name="uni2123" format="2">
  <advance width="1150"/>
  <unicode hex="2123"/>
  <outline>
    <contour>
      <point x="1064" y="1566" type="line"/>
      <point x="-24" y="-360" type="line"/>
      <point x="-74" y="-360" type="line"/>
      <point x="1006" y="1550" type="line"/>
      <point x="810" y="1720" type="line"/>
      <point x="844" y="1758" type="line"/>
    </contour>
    <contour>
      <point x="214" y="1490" type="line"/>
      <point x="488" y="58" type="line"/>
      <point x="494" y="58" type="line"/>
      <point x="1244" y="1490" type="line"/>
      <point x="1294" y="1490" type="line"/>
      <point x="514" y="0" type="line"/>
      <point x="450" y="0" type="line"/>
      <point x="164" y="1490" type="line"/>
    </contour>
  </outline>
</glyph>
<glyph name="estimated" format="2">
  <advance width="1200"/>
  <unicode hex="212E"/>
  <outline>
    <contour>
      <point x="914" y="198" type="qcurve"/>
      <point x="898" y="94" type="line"/>
      <point x="807" y="40"/>
      <point x="613" y="-20"/>
      <point x="520" y="-20" type="qcurve" smooth="yes"/>
      <point x="378" y="-20"/>
      <point x="172" y="132"/>
      <point x="78" y="388"/>
      <point x="104" y="542" type="qcurve" smooth="yes"/>
      <point x="124" y="657"/>
      <point x="244" y="860"/>
      <point x="415" y="1015"/>
      <point x="610" y="1102"/>
      <point x="706" y="1102" type="qcurve"/>
      <point x="839" y="1103"/>
      <point x="1033" y="962"/>
      <point x="1121" y="718"/>
      <point x="1094" y="562" type="qcurve"/>
      <point x="1095" y="560"/>
      <point x="1093" y="541"/>
      <point x="1088" y="514" type="qcurve"/>
      <point x="346" y="514" type="line"/>
      <point x="290" y="186" type="line"/>
      <point x="331" y="136"/>
      <point x="459" y="76"/>
      <point x="538" y="76" type="qcurve" smooth="yes"/>
      <point x="628" y="76"/>
      <point x="818" y="134"/>
    </contour>
    <contour>
      <point x="692" y="1010" type="qcurve"/>
      <point x="619" y="1009"/>
      <point x="468" y="942"/>
      <point x="408" y="888" type="qcurve"/>
      <point x="360" y="608" type="line"/>
      <point x="884" y="608" type="line"/>
      <point x="930" y="896" type="line"/>
      <point x="889" y="949"/>
      <point x="765" y="1009"/>
    </contour>
  </outline>
</glyph>
<glyph name="Fturn" format="2">
  <advance width="1196"/>
  <unicode hex="2132"/>
  <anchor x="609" y="0" name="m.uni0326"/>
  <anchor x="1178" y="1490" name="m.uni030F_1"/>
  <outline>
    <contour>
      <point x="1119" y="1490" type="line"/>
      <point x="872" y="0" type="line"/>
      <point x="74" y="0" type="line"/>
      <point x="82" y="46" type="line"/>
      <point x="834" y="46" type="line"/>
      <point x="946" y="722" type="line"/>
      <point x="264" y="722" type="line"/>
      <point x="271" y="768" type="line"/>
      <point x="953" y="768" type="line"/>
      <point x="1073" y="1490" type="line"/>
    </contour>
  </outline>
</glyph>
<glyph name="arrowdown" format="2">
  <advance width="1708"/>
  <unicode hex="2193"/>
  <outline>
    <contour>
      <point x="1519" y="636" type="line"/>
      <point x="759" y="-16" type="line"/>
      <point x="215" y="636" type="line"/>
      <point x="252" y="670" type="line"/>
      <point x="626" y="222" type="line" smooth="yes"/>
      <point x="649" y="195"/>
      <point x="695" y="133"/>
      <point x="740" y="71"/>
      <point x="761" y="41" type="qcurve"/>
      <point x="752" y="41" type="line"/>
      <point x="755" y="71"/>
      <point x="762" y="135"/>
      <point x="771" y="200"/>
      <point x="776" y="230" type="qcurve" smooth="yes"/>
      <point x="985" y="1490" type="line"/>
      <point x="1031" y="1490" type="line"/>
      <point x="822" y="230" type="line" smooth="yes"/>
      <point x="817" y="200"/>
      <point x="806" y="135"/>
      <point x="793" y="71"/>
      <point x="786" y="41" type="qcurve"/>
      <point x="777" y="41" type="line"/>
      <point x="801" y="63"/>
      <point x="849" y="110"/>
      <point x="898" y="156"/>
      <point x="947" y="201"/>
      <point x="971" y="222" type="qcurve" smooth="yes"/>
      <point x="1490" y="670" type="line"/>
    </contour>
  </outline>
</glyph>
<glyph name="uni21BA" format="2">
  <advance width="1954"/>
  <unicode hex="21BA"/>
  <outline>
    <contour>
      <point x="1124" y="1442" type="qcurve"/>
      <point x="1132" y="1490" type="line"/>
      <point x="1286" y="1490"/>
      <point x="1537" y="1374"/>
      <point x="1707" y="1169"/>
      <point x="1778" y="899"/>
      <point x="1752" y="744" type="qcurve" smooth="yes"/>
      <point x="1727" y="590"/>
      <point x="1568" y="320"/>
      <point x="1329" y="116"/>
      <point x="1039" y="0"/>
      <point x="884" y="0" type="qcurve" smooth="yes"/>
      <point x="730" y="0"/>
      <point x="480" y="116"/>
      <point x="309" y="320"/>
      <point x="238" y="590"/>
      <point x="264" y="744" type="qcurve"/>
      <point x="310" y="744" type="line"/>
      <point x="286" y="600"/>
      <point x="352" y="347"/>
      <point x="513" y="155"/>
      <point x="749" y="46"/>
      <point x="894" y="46" type="qcurve" smooth="yes"/>
      <point x="1039" y="46"/>
      <point x="1310" y="155"/>
      <point x="1533" y="347"/>
      <point x="1683" y="600"/>
      <point x="1706" y="744" type="qcurve" smooth="yes"/>
      <point x="1730" y="890"/>
      <point x="1664" y="1143"/>
      <point x="1504" y="1335"/>
      <point x="1269" y="1442"/>
    </contour>
    <contour>
      <point x="1112" y="1096" type="line"/>
      <point x="784" y="1456" type="line"/>
      <point x="1232" y="1816" type="line"/>
    </contour>
  </outline>
</glyph>
<glyph name="integral" format="2">
  <advance width="661"/>
  <unicode hex="222B"/>
  <outline>
    <contour>
      <point x="-104" y="-474" type="qcurve" smooth="yes"/>
      <point x="-131" y="-474"/>
      <point x="-172" y="-466"/>
      <point x="-192" y="-458" type="qcurve"/>
      <point x="-171" y="-416" type="line"/>
      <point x="-154" y="-422"/>
      <point x="-119" y="-428"/>
      <point x="-97" y="-428" type="qcurve" smooth="yes"/>
      <point x="-14" y="-428"/>
      <point x="131" y="-317"/>
      <point x="147" y="-218" type="qcurve" smooth="yes"/>
      <point x="404" y="1334" type="line" smooth="yes"/>
      <point x="417" y="1413"/>
      <point x="507" y="1527"/>
      <point x="633" y="1590"/>
      <point x="701" y="1590" type="qcurve" smooth="yes"/>
      <point x="728" y="1590"/>
      <point x="769" y="1582"/>
      <point x="789" y="1574" type="qcurve"/>
      <point x="765" y="1530" type="line"/>
      <point x="750" y="1537"/>
      <point x="717" y="1544"/>
      <point x="694" y="1544" type="qcurve" smooth="yes"/>
      <point x="612" y="1544"/>
      <point x="467" y="1432"/>
      <point x="450" y="1334" type="qcurve"/>
      <point x="193" y="-218" type="line" smooth="yes"/>
      <point x="180" y="-297"/>
      <point x="90" y="-412"/>
      <point x="-36" y="-474"/>
    </contour>
  </outline>
</glyph>
<glyph name="approxequal" format="2">
  <advance width="1304"/>
  <unicode hex="2248"/>
  <outline>
    <contour>
      <point x="180" y="664" type="line"/>
      <point x="200" y="727"/>
      <point x="283" y="816"/>
      <point x="402" y="864"/>
      <point x="474" y="864" type="qcurve" smooth="yes"/>
      <point x="551" y="864"/>
      <point x="650" y="805"/>
      <point x="690" y="776" type="qcurve" smooth="yes"/>
      <point x="729" y="748"/>
      <point x="803" y="704"/>
      <point x="856" y="704" type="qcurve" smooth="yes"/>
      <point x="932" y="704"/>
      <point x="1057" y="792"/>
      <point x="1088" y="862" type="qcurve"/>
      <point x="1132" y="850" type="line"/>
      <point x="1107" y="789"/>
      <point x="1024" y="703"/>
      <point x="915" y="658"/>
      <point x="850" y="658" type="qcurve"/>
      <point x="784" y="657"/>
      <point x="695" y="713"/>
      <point x="658" y="742" type="qcurve" smooth="yes"/>
      <point x="618" y="773"/>
      <point x="534" y="817"/>
      <point x="468" y="818" type="qcurve"/>
      <point x="381" y="817"/>
      <point x="249" y="728"/>
      <point x="226" y="658" type="qcurve"/>
    </contour>
    <contour>
      <point x="180" y="306" type="line"/>
      <point x="200" y="369"/>
      <point x="283" y="458"/>
      <point x="402" y="506"/>
      <point x="474" y="506" type="qcurve" smooth="yes"/>
      <point x="551" y="506"/>
      <point x="650" y="447"/>
      <point x="690" y="418" type="qcurve" smooth="yes"/>
      <point x="729" y="390"/>
      <point x="803" y="346"/>
      <point x="856" y="346" type="qcurve" smooth="yes"/>
      <point x="932" y="346"/>
      <point x="1057" y="434"/>
      <point x="1088" y="504" type="qcurve"/>
      <point x="1132" y="492" type="line"/>
      <point x="1107" y="431"/>
      <point x="1024" y="345"/>
      <point x="915" y="300"/>
      <point x="850" y="300" type="qcurve" smooth="yes"/>
      <point x="784" y="300"/>
      <point x="695" y="355"/>
      <point x="658" y="384" type="qcurve" smooth="yes"/>
      <point x="618" y="415"/>
      <point x="534" y="460"/>
      <point x="468" y="460" type="qcurve" smooth="yes"/>
      <point x="381" y="460"/>
      <point x="249" y="370"/>
      <point x="226" y="300" type="qcurve"/>
    </contour>
  </outline>
</glyph>
<glyph name="openbullet" format="2">
  <advance width="1154"/>
  <unicode hex="25E6"/>
  <outline>
    <contour>
      <point x="559" y="408" type="qcurve" smooth="yes"/>
      <point x="504" y="408"/>
      <point x="425" y="460"/>
      <point x="388" y="548"/>
      <point x="397" y="600" type="qcurve" smooth="yes"/>
      <point x="406" y="651"/>
      <point x="466" y="732"/>
      <point x="556" y="780"/>
      <point x="607" y="780" type="qcurve" smooth="yes"/>
      <point x="660" y="780"/>
      <point x="740" y="728"/>
      <point x="779" y="641"/>
      <point x="769" y="590" type="qcurve"/>
      <point x="761" y="538"/>
      <point x="699" y="455"/>
      <point x="610" y="408"/>
    </contour>
    <contour>
      <point x="559" y="454" type="qcurve" smooth="yes"/>
      <point x="618" y="454"/>
      <point x="713" y="535"/>
      <point x="723" y="594" type="qcurve" smooth="yes"/>
      <point x="733" y="653"/>
      <point x="665" y="734"/>
      <point x="605" y="734" type="qcurve" smooth="yes"/>
      <point x="546" y="734"/>
      <point x="452" y="652"/>
      <point x="441" y="590" type="qcurve" smooth="yes"/>
      <point x="432" y="534"/>
      <point x="500" y="454"/>
    </contour>
  </outline>
</glyph>
<glyph name="i.numr" format="2">
  <advance width="306"/>
  <unicode hex="E0A5"/>
  <outline>
    <contour>
      <point x="162" y="744" type="line"/>
      <point x="292" y="1536" type="line"/>
      <point x="336" y="1536" type="line"/>
      <point x="206" y="744" type="line"/>
    </contour>
    <contour>
      <point x="338" y="1672" type="qcurve"/>
      <point x="322" y="1673"/>
      <point x="302" y="1695"/>
      <point x="304" y="1710" type="qcurve" smooth="yes"/>
      <point x="306" y="1726"/>
      <point x="333" y="1748"/>
      <point x="350" y="1748" type="qcurve" smooth="yes"/>
      <point x="366" y="1748"/>
      <point x="384" y="1726"/>
      <point x="382" y="1710" type="qcurve"/>
      <point x="381" y="1695"/>
      <point x="354" y="1673"/>
    </contour>
  </outline>
</glyph>
<glyph name="n.numr" format="2">
  <advance width="780"/>
  <unicode hex="E0A6"/>
  <outline>
    <contour>
      <point x="290" y="1282" type="qcurve"/>
      <point x="202" y="744" type="line"/>
      <point x="158" y="744" type="line"/>
      <point x="290" y="1536" type="line"/>
      <point x="334" y="1536" type="line"/>
      <point x="314" y="1416" type="line"/>
      <point x="320" y="1416" type="line"/>
      <point x="356" y="1475"/>
      <point x="486" y="1545"/>
      <point x="562" y="1544" type="qcurve"/>
      <point x="673" y="1545"/>
      <point x="792" y="1404"/>
      <point x="772" y="1286" type="qcurve" smooth="yes"/>
      <point x="682" y="744" type="line"/>
      <point x="638" y="744" type="line"/>
      <point x="728" y="1286" type="line" smooth="yes"/>
      <point x="744" y="1382"/>
      <point x="644" y="1501"/>
      <point x="548" y="1502" type="qcurve"/>
      <point x="452" y="1501"/>
      <point x="307" y="1379"/>
    </contour>
  </outline>
</glyph>
<glyph name="bracketleft.sups" format="2">
  <advance width="442"/>
  <unicode hex="E0A7"/>
  <outline>
    <contour>
      <point x="168" y="544" type="line"/>
      <point x="374" y="1784" type="line"/>
      <point x="598" y="1784" type="line"/>
      <point x="590" y="1736" type="line"/>
      <point x="414" y="1736" type="line"/>
      <point x="222" y="590" type="line"/>
      <point x="400" y="590" type="line"/>
      <point x="392" y="544" type="line"/>
    </contour>
  </outline>
</glyph>
<glyph name="bracketright.sups" format="2">
  <advance width="442"/>
  <unicode hex="E0A8"/>
  <outline>
    <contour>
      <point x="44" y="544" type="line"/>
      <point x="50" y="590" type="line"/>
      <point x="228" y="590" type="line"/>
      <point x="418" y="1736" type="line"/>
      <point x="242" y="1736" type="line"/>
      <point x="248" y="1784" type="line"/>
      <point x="472" y="1784" type="line"/>
      <point x="268" y="544" type="line"/>
    </contour>
  </outline>
</glyph>
<glyph name="zero.dnom" format="2">
  <advance width="734"/>
  <unicode hex="E0B4"/>
  <outline>
    <contour>
      <point x="271" y="-12" type="qcurve" smooth="yes"/>
      <point x="138" y="-12"/>
      <point x="26" y="208"/>
      <point x="57" y="396" type="qcurve" smooth="yes"/>
      <point x="88" y="586"/>
      <point x="276" y="803"/>
      <point x="406" y="802" type="qcurve"/>
      <point x="537" y="803"/>
      <point x="653" y="586"/>
      <point x="621" y="396" type="qcurve" smooth="yes"/>
      <point x="590" y="208"/>
      <point x="405" y="-12"/>
    </contour>
    <contour>
      <point x="278" y="32" type="qcurve" smooth="yes"/>
      <point x="390" y="32"/>
      <point x="550" y="226"/>
      <point x="579" y="396" type="qcurve"/>
      <point x="606" y="568"/>
      <point x="509" y="759"/>
      <point x="399" y="760" type="qcurve"/>
      <point x="290" y="759"/>
      <point x="129" y="568"/>
      <point x="101" y="396" type="qcurve" smooth="yes"/>
      <point x="73" y="226"/>
      <point x="167" y="32"/>
    </contour>
  </outline>
</glyph>
<glyph name="three.dnom" format="2">
  <advance width="688"/>
  <unicode hex="E0B7"/>
  <outline>
    <contour>
      <point x="239" y="-12" type="qcurve" smooth="yes"/>
      <point x="124" y="-12"/>
      <point x="-14" y="107"/>
      <point x="0" y="198" type="qcurve"/>
      <point x="48" y="198" type="line"/>
      <point x="35" y="124"/>
      <point x="150" y="32"/>
      <point x="246" y="32" type="qcurve" smooth="yes"/>
      <point x="349" y="32"/>
      <point x="493" y="136"/>
      <point x="506" y="210" type="qcurve" smooth="yes"/>
      <point x="519" y="288"/>
      <point x="393" y="387"/>
      <point x="281" y="386" type="qcurve"/>
      <point x="255" y="386" type="line"/>
      <point x="262" y="428" type="line"/>
      <point x="288" y="428" type="line" smooth="yes"/>
      <point x="385" y="428"/>
      <point x="528" y="520"/>
      <point x="540" y="596" type="qcurve" smooth="yes"/>
      <point x="552" y="666"/>
      <point x="456" y="759"/>
      <point x="367" y="760" type="qcurve"/>
      <point x="278" y="759"/>
      <point x="145" y="668"/>
      <point x="133" y="594" type="qcurve"/>
      <point x="85" y="594" type="line"/>
      <point x="96" y="655"/>
      <point x="179" y="749"/>
      <point x="303" y="803"/>
      <point x="374" y="802" type="qcurve"/>
      <point x="481" y="803"/>
      <point x="602" y="684"/>
      <point x="588" y="596" type="qcurve"/>
      <point x="576" y="529"/>
      <point x="470" y="430"/>
      <point x="393" y="410" type="qcurve"/>
      <point x="393" y="408" type="line"/>
      <point x="478" y="390"/>
      <point x="561" y="284"/>
      <point x="550" y="210" type="qcurve"/>
      <point x="539" y="147"/>
      <point x="452" y="47"/>
      <point x="319" y="-12"/>
    </contour>
  </outline>
</glyph>
<glyph name="four.dnom" format="2">
  <advance width="745"/>
  <unicode hex="E0B8"/>
  <outline>
    <contour>
      <point x="25" y="178" type="line"/>
      <point x="32" y="216" type="line"/>
      <point x="533" y="792" type="line"/>
      <point x="559" y="792" type="line"/>
      <point x="547" y="718" type="line"/>
      <point x="521" y="718" type="line"/>
      <point x="91" y="224" type="line"/>
      <point x="91" y="222" type="line"/>
      <point x="603" y="222" type="line"/>
      <point x="595" y="178" type="line"/>
    </contour>
    <contour>
      <point x="408" y="0" type="line"/>
      <point x="440" y="192" type="line"/>
      <point x="442" y="206" type="line"/>
      <point x="539" y="792" type="line"/>
      <point x="583" y="792" type="line"/>
      <point x="452" y="0" type="line"/>
    </contour>
  </outline>
</glyph>
<glyph name="nine.dnom" format="2">
  <advance width="731"/>
  <unicode hex="E0BD"/>
  <outline>
    <contour>
      <point x="399" y="802" type="qcurve"/>
      <point x="456" y="802"/>
      <point x="549" y="760"/>
      <point x="610" y="670"/>
      <point x="630" y="531"/>
      <point x="614" y="434" type="qcurve" smooth="yes"/>
      <point x="595" y="318"/>
      <point x="507" y="114"/>
      <point x="362" y="-12"/>
      <point x="256" y="-12" type="qcurve" smooth="yes"/>
      <point x="153" y="-12"/>
      <point x="45" y="107"/>
      <point x="51" y="200" type="qcurve"/>
      <point x="95" y="200" type="line"/>
      <point x="92" y="127"/>
      <point x="180" y="32"/>
      <point x="263" y="32" type="qcurve" smooth="yes"/>
      <point x="378" y="32"/>
      <point x="535" y="236"/>
      <point x="567" y="428" type="qcurve"/>
      <point x="563" y="428" type="line"/>
      <point x="530" y="371"/>
      <point x="390" y="300"/>
      <point x="316" y="300" type="qcurve" smooth="yes"/>
      <point x="244" y="300"/>
      <point x="136" y="365"/>
      <point x="83" y="479"/>
      <point x="95" y="550" type="qcurve" smooth="yes"/>
      <point x="107" y="619"/>
      <point x="191" y="734"/>
      <point x="321" y="803"/>
    </contour>
    <contour>
      <point x="392" y="762" type="qcurve" smooth="yes"/>
      <point x="298" y="762"/>
      <point x="153" y="637"/>
      <point x="139" y="550" type="qcurve" smooth="yes"/>
      <point x="125" y="462"/>
      <point x="234" y="340"/>
      <point x="328" y="340" type="qcurve" smooth="yes"/>
      <point x="392" y="340"/>
      <point x="506" y="403"/>
      <point x="577" y="502"/>
      <point x="576" y="556" type="qcurve" smooth="yes"/>
      <point x="575" y="652"/>
      <point x="475" y="762"/>
    </contour>
  </outline>
</glyph>
<glyph name="parenleft.numr" format="2">
  <advance width="398"/>
  <unicode hex="E0DA"/>
  <outline>
    <contour>
      <point x="239" y="1154" type="qcurve" smooth="yes"/>
      <point x="262" y="1288"/>
      <point x="373" y="1536"/>
      <point x="457" y="1650" type="qcurve"/>
      <point x="501" y="1650" type="line"/>
      <point x="444" y="1574"/>
      <point x="356" y="1407"/>
      <point x="299" y="1236"/>
      <point x="285" y="1154" type="qcurve" smooth="yes"/>
      <point x="271" y="1066"/>
      <point x="274" y="893"/>
      <point x="307" y="732"/>
      <point x="337" y="660" type="qcurve"/>
      <point x="293" y="660" type="line"/>
      <point x="247" y="774"/>
      <point x="217" y="1021"/>
    </contour>
  </outline>
</glyph>
<glyph name="parenright.numr" format="2">
  <advance width="399"/>
  <unicode hex="E0DB"/>
  <outline>
    <contour>
      <point x="357" y="1154" type="qcurve"/>
      <point x="335" y="1020"/>
      <point x="223" y="774"/>
      <point x="139" y="660" type="qcurve"/>
      <point x="95" y="660" type="line"/>
      <point x="151" y="732"/>
      <point x="238" y="897"/>
      <point x="297" y="1070"/>
      <point x="311" y="1154" type="qcurve" smooth="yes"/>
      <point x="326" y="1241"/>
      <point x="322" y="1415"/>
      <point x="290" y="1579"/>
      <point x="259" y="1650" type="qcurve"/>
      <point x="303" y="1650" type="line"/>
      <point x="350" y="1536"/>
      <point x="380" y="1285"/>
    </contour>
  </outline>
</glyph>
<glyph name="uni02B2.ccmp" format="2">
  <advance width="222"/>
  <unicode hex="E0F5"/>
  <outline>
    <contour>
      <point x="296" y="1440" type="line"/>
      <point x="342" y="1440" type="line"/>
      <point x="184" y="494" type="line"/>
      <point x="168" y="403"/>
      <point x="99" y="317"/>
      <point x="42" y="318" type="qcurve"/>
      <point x="23" y="317"/>
      <point x="-10" y="324"/>
      <point x="-20" y="328" type="qcurve"/>
      <point x="-14" y="370" type="line"/>
      <point x="-6" y="367"/>
      <point x="20" y="364"/>
      <point x="30" y="364" type="qcurve" smooth="yes"/>
      <point x="74" y="364"/>
      <point x="126" y="430"/>
      <point x="136" y="494" type="qcurve"/>
    </contour>
  </outline>
</glyph>
<glyph name="largerighthook" format="2">
  <advance width="1171"/>
  <unicode hex="E10F"/>
  <outline>
    <contour>
      <point x="379" y="-23" type="line"/>
      <point x="387" y="23" type="line"/>
      <point x="494" y="23" type="line" smooth="yes"/>
      <point x="721" y="23"/>
      <point x="1009" y="245"/>
      <point x="1041" y="440" type="qcurve" smooth="yes"/>
      <point x="1074" y="640"/>
      <point x="856" y="874"/>
      <point x="635" y="874" type="qcurve" smooth="yes"/>
      <point x="409" y="874"/>
      <point x="114" y="619"/>
      <point x="76" y="389" type="qcurve"/>
      <point x="36" y="389" type="line"/>
      <point x="63" y="552"/>
      <point x="223" y="790"/>
      <point x="476" y="920"/>
      <point x="642" y="920" type="qcurve" smooth="yes"/>
      <point x="798" y="920"/>
      <point x="1014" y="799"/>
      <point x="1111" y="583"/>
      <point x="1087" y="440" type="qcurve" smooth="yes"/>
      <point x="1064" y="300"/>
      <point x="901" y="92"/>
      <point x="647" y="-23"/>
      <point x="486" y="-23" type="qcurve" smooth="yes"/>
    </contour>
  </outline>
</glyph>
<glyph name="tildeacute.lc" format="2">
  <advance width="1017"/>
  <unicode hex="E112"/>
  <outline>
    <contour>
      <point x="757" y="1310" type="qcurve" smooth="yes"/>
      <point x="715" y="1310"/>
      <point x="659" y="1346"/>
      <point x="614" y="1392"/>
      <point x="566" y="1428"/>
      <point x="531" y="1428" type="qcurve" smooth="yes"/>
      <point x="482" y="1428"/>
      <point x="410" y="1369"/>
      <point x="397" y="1317" type="qcurve"/>
      <point x="351" y="1317" type="line"/>
      <point x="368" y="1385"/>
      <point x="467" y="1474"/>
      <point x="531" y="1474" type="qcurve" smooth="yes"/>
      <point x="578" y="1474"/>
      <point x="637" y="1438"/>
      <point x="681" y="1392"/>
      <point x="725" y="1356"/>
      <point x="756" y="1356" type="qcurve" smooth="yes"/>
      <point x="799" y="1356"/>
      <point x="862" y="1406"/>
      <point x="884" y="1463" type="qcurve"/>
      <point x="931" y="1463" type="line"/>
      <point x="907" y="1392"/>
      <point x="814" y="1310"/>
    </contour>
    <contour>
      <point x="651" y="1616" type="line"/>
      <point x="850" y="1890" type="line"/>
      <point x="910" y="1890" type="line"/>
      <point x="697" y="1616" type="line"/>
    </contour>
  </outline>
</glyph>
